<svg viewBox="0 0 24 24" fill="none" xmlns="http://www.w3.org/2000/svg"><path fill-rule="evenodd" clip-rule="evenodd" d="M11.9 7.2h8.4v3.4h-8.4V7.2Z" fill="#fff"/><path fill-rule="evenodd" clip-rule="evenodd" d="M4.3 18.3c-.74 0-1.384-.403-1.73-1a2 2 0 0 0 1.73 3h2v-2h-2Z" fill="#3ECC5F"/><path fill-rule="evenodd" clip-rule="evenodd" d="M13.298 7.738 20.3 7.3v-1a2 2 0 0 0-2-2h-9l-.25-.433a.289.289 0 0 0-.5 0L8.3 4.3l-.25-.433a.289.289 0 0 0-.5 0L7.3 4.3l-.25-.433a.289.289 0 0 0-.5 0L6.3 4.3h-.006l-.415-.414a.289.289 0 0 0-.482.13l-.137.51-.52-.14a.289.289 0 0 0-.353.354l.139.52-.51.136a.289.289 0 0 0-.13.483l.414.415V6.3l-.433.25a.289.289 0 0 0 0 .5l.433.25-.433.25a.289.289 0 0 0 0 .5l.433.25-.433.25a.289.289 0 0 0 0 .5l.433.25-.433.25a.289.289 0 0 0 0 .5l.433.25-.433.25a.289.289 0 0 0 0 .5l.433.25-.433.25a.289.289 0 0 0 0 .5l.433.25-.433.25a.289.289 0 0 0 0 .5l.433.25-.433.25a.289.289 0 0 0 0 .5l.433.25-.433.25a.289.289 0 0 0 0 .5l.433.25-.433.25a.289.289 0 0 0 0 .5l.433.25-.433.25a.289.289 0 0 0 0 .5l.433.25-.433.25a.289.289 0 0 0 0 .5l.433.25a2 2 0 0 0 2 2h12a2 2 0 0 0 2-2v-8l-7.002-.438a1.065 1.065 0 0 1 0-2.124Z" fill="#3ECC5F"/><path fill-rule="evenodd" clip-rule="evenodd" d="M16.3 20.3h3v-4h-3v4Z" fill="#3ECC5F"/><path fill-rule="evenodd" clip-rule="evenodd" d="M21.3 17.8c-.022 0-.043.004-.064.006l-.012-.045a.5.5 0 1 0-.494-.857 2.653 2.653 0 0 0-.033-.034.496.496 0 0 0-.299-.788.5.5 0 0 0-.56.293l-.044-.011c.002-.021.006-.042.006-.064a.5.5 0 0 0-1 0c0 .022.004.043.006.064l-.044.011a.5.5 0 1 0-.859.495 2 2 0 1 0 3.333 1.924c.021.002.042.006.064.006a.5.5 0 1 0 0-1Z" fill="#44D860"/><path fill-rule="evenodd" clip-rule="evenodd" d="M17.3 14.3h3v-2h-3v2Z" fill="#3ECC5F"/><path fill-rule="evenodd" clip-rule="evenodd" d="M21.3 13.55a.25.25 0 1 0 0-.5l-.032.003-.006-.022a.25.25 0 0 0-.096-.481.247.247 0 0 0-.15.052.665.665 0 0 0-.018-.017.247.247 0 0 0-.005-.308.25.25 0 0 0-.424.06 1 1 0 1 0 0 1.925.25.25 0 0 0 .48-.098.247.247 0 0 0-.05-.149.665.665 0 0 0 .016-.017.247.247 0 0 0 .31-.005.25.25 0 0 0-.063-.424l.006-.022c.01.001.021.003.032.003Z" fill="#44D860"/><path fill-rule="evenodd" clip-rule="evenodd" d="M8.3 7.55a.25.25 0 0 1-.25-.25.75.75 0 0 0-1.5 0 .25.25 0 0 1-.5 0c0-.69.56-1.25 1.25-1.25s1.25.56 1.25 1.25a.25.25 0 0 1-.25.25Z" fill="#000"/><path fill-rule="evenodd" clip-rule="evenodd" d="M12.3 20.3h6a2 2 0 0 0 2-2v-7h-6a2 2 0 0 0-2 2v7Z" fill="#FFFF50"/><path fill-rule="evenodd" clip-rule="evenodd" d="M18.802 14.4h-5.004a.1.1 0 0 1 0-.2h5.004a.1.1 0 1 1 0 .2Zm0 2h-5.004a.1.1 0 0 1 0-.2h5.004a.1.1 0 1 1 0 .2Zm0 2h-5.004a.1.1 0 0 1 0-.2h5.004a.1.1 0 1 1 0 .2Zm0-4.981h-5.004a.1.1 0 0 1 0-.2h5.004a.1.1 0 1 1 0 .2Zm0 1.981h-5.004a.1.1 0 0 1 0-.2h5.004a.1.1 0 1 1 0 .2Zm0 2h-5.004a.1.1 0 0 1 0-.2h5.004a.1.1 0 1 1 0 .2ZM20.3 8.161h-.003c-.31.01-.456.32-.585.592-.134.285-.238.47-.409.465-.189-.007-.297-.22-.411-.446-.132-.26-.282-.554-.596-.543-.305.01-.452.28-.581.517-.138.253-.232.406-.412.4-.193-.008-.295-.181-.414-.382-.132-.224-.285-.475-.593-.467-.3.01-.447.239-.577.44-.137.213-.233.343-.416.336-.198-.007-.3-.151-.417-.318-.133-.187-.282-.4-.59-.39-.293.01-.44.198-.57.363-.123.156-.219.28-.422.272a.1.1 0 0 0-.008.2c.302.01.455-.18.588-.349.117-.15.219-.278.419-.285.192-.008.283.111.42.304.13.184.276.392.572.402.31.01.46-.221.592-.426.119-.184.22-.342.415-.349.18-.006.277.135.415.368.13.22.276.47.579.48.312.01.463-.262.594-.503.114-.21.222-.406.412-.413.18-.004.273.16.411.433.13.255.276.544.583.556h.017c.306 0 .452-.308.58-.58.114-.24.222-.468.407-.477v-.2Z" fill="#000"/><path fill-rule="evenodd" clip-rule="evenodd" d="M10.3 20.3h4v-4h-4v4Z" fill="#3ECC5F"/><path d="m20.276 9.922-7.778 2.084a.2.2 0 0 0-.141.245l.76 2.837a.2.2 0 0 0 .245.141l7.777-2.084a.2.2 0 0 0 .142-.245l-.76-2.836a.2.2 0 0 0-.245-.142Z" fill="#D8D8D8"/><path d="m14.845 13.56-.278.074a.1.1 0 0 0-.07.122l.074.279a.1.1 0 0 0 .122.07l.279-.074a.1.1 0 0 0 .07-.123l-.074-.278a.1.1 0 0 0-.123-.07ZM15.404 13.41l-.278.074a.1.1 0 0 0-.07.123l.074.278a.1.1 0 0 0 .122.07l.279-.074a.1.1 0 0 0 .07-.122l-.074-.279a.1.1 0 0 0-.123-.07ZM15.963 13.26l-.278.074a.1.1 0 0 0-.07.123l.074.278a.1.1 0 0 0 .122.07l.279-.074a.1.1 0 0 0 .07-.122l-.074-.279a.1.1 0 0 0-.123-.07ZM16.522 13.11l-.278.074a.1.1 0 0 0-.07.123l.074.278a.1.1 0 0 0 .122.071l.279-.075a.1.1 0 0 0 .07-.122l-.074-.278a.1.1 0 0 0-.123-.071ZM17.081 12.96l-.278.075a.1.1 0 0 0-.07.122l.074.279a.1.1 0 0 0 .122.07l.279-.074a.1.1 0 0 0 .07-.123l-.074-.278a.1.1 0 0 0-.123-.071ZM17.64 12.81l-.278.075a.1.1 0 0 0-.07.122l.074.279a.1.1 0 0 0 .122.07l.279-.074a.1.1 0 0 0 .07-.123l-.074-.278a.1.1 0 0 0-.123-.07ZM18.2 12.66l-.28.075a.1.1 0 0 0-.07.123l.075.278a.1.1 0 0 0 .122.07l.279-.074a.1.1 0 0 0 .07-.122l-.074-.279a.1.1 0 0 0-.123-.07ZM18.758 12.51l-.278.075a.1.1 0 0 0-.07.123l.074.278a.1.1 0 0 0 .122.071l.279-.075a.1.1 0 0 0 .07-.122l-.074-.279a.1.1 0 0 0-.123-.07ZM19.317 12.36l-.278.075a.1.1 0 0 0-.07.123l.074.278a.1.1 0 0 0 .122.071l.279-.074a.1.1 0 0 0 .07-.123l-.074-.278a.1.1 0 0 0-.123-.071Z" fill="#4A4A4A"/><path fill-rule="evenodd" clip-rule="evenodd" d="m13.082 14.032 1.187-.318a.1.1 0 0 1 .122.07l.075.279a.1.1 0 0 1-.07.122l-1.187.318a.1.1 0 0 1-.123-.07l-.075-.279a.1.1 0 0 1 .071-.122Zm6.533-1.75 1.187-.319a.1.1 0 0 1 .122.07l.075.28a.1.1 0 0 1-.07.122l-1.188.318a.1.1 0 0 1-.122-.07l-.075-.28a.1.1 0 0 1 .071-.122ZM12.78 12.903l.453-.121a.1.1 0 0 1 .122.07l.075.279a.1.1 0 0 1-.07.122l-.454.121a.1.1 0 0 1-.122-.07l-.075-.279a.1.1 0 0 1 .07-.122Z" fill="#4A4A4A"/><path d="m13.792 12.632-.279.074a.1.1 0 0 0-.07.123l.074.278a.1.1 0 0 0 .123.071l.278-.075a.1.1 0 0 0 .07-.122l-.074-.278a.1.1 0 0 0-.122-.071ZM14.35 12.482l-.278.075a.1.1 0 0 0-.07.122l.074.279a.1.1 0 0 0 .123.07l.278-.074a.1.1 0 0 0 .07-.123l-.074-.278a.1.1 0 0 0-.122-.071ZM14.91 12.332l-.279.075a.1.1 0 0 0-.07.122l.074.279a.1.1 0 0 0 .123.07l.278-.074a.1.1 0 0 0 .07-.123l-.074-.278a.1.1 0 0 0-.122-.07ZM15.469 12.182l-.279.075a.1.1 0 0 0-.07.123l.074.278a.1.1 0 0 0 .123.07l.278-.074a.1.1 0 0 0 .07-.122l-.074-.279a.1.1 0 0 0-.122-.07ZM16.028 12.033l-.279.074a.1.1 0 0 0-.07.123l.074.278a.1.1 0 0 0 .123.071l.278-.075a.1.1 0 0 0 .07-.122l-.074-.279a.1.1 0 0 0-.122-.07ZM16.587 11.883l-.279.075a.1.1 0 0 0-.07.122l.074.278a.1.1 0 0 0 .123.071l.278-.074a.1.1 0 0 0 .07-.123l-.074-.278a.1.1 0 0 0-.122-.071ZM17.146 11.733l-.279.075a.1.1 0 0 0-.07.122l.074.279a.1.1 0 0 0 .123.07l.278-.074a.1.1 0 0 0 .07-.123l-.074-.278a.1.1 0 0 0-.122-.07ZM17.705 11.583l-.279.075a.1.1 0 0 0-.07.122l.074.279a.1.1 0 0 0 .123.07l.278-.074a.1.1 0 0 0 .07-.123l-.074-.278a.1.1 0 0 0-.122-.07ZM18.264 11.434l-.279.074a.1.1 0 0 0-.07.123l.074.278a.1.1 0 0 0 .122.07l.279-.074a.1.1 0 0 0 .07-.122l-.074-.279a.1.1 0 0 0-.122-.07ZM18.823 11.284l-.279.074a.1.1 0 0 0-.07.123l.074.278a.1.1 0 0 0 .123.071l.278-.075a.1.1 0 0 0 .07-.122l-.074-.278a.1.1 0 0 0-.122-.071ZM19.382 11.134l-.279.075a.1.1 0 0 0-.07.122l.074.279a.1.1 0 0 0 .123.07l.278-.074a.1.1 0 0 0 .07-.123l-.074-.278a.1.1 0 0 0-.122-.071ZM19.94 10.984l-.278.075a.1.1 0 0 0-.07.122l.074.279a.1.1 0 0 0 .122.07l.279-.074a.1.1 0 0 0 .07-.123l-.074-.278a.1.1 0 0 0-.122-.07ZM20.5 10.834l-.279.075a.1.1 0 0 0-.07.122l.074.279a.1.1 0 0 0 .122.07l.279-.074a.1.1 0 0 0 .07-.122l-.074-.279a.1.1 0 0 0-.122-.07Z" fill="#4A4A4A"/><path fill-rule="evenodd" clip-rule="evenodd" d="m20.483 10.771-.454.122a.1.1 0 0 1-.122-.071l-.075-.278a.1.1 0 0 1 .071-.123l.453-.121a.1.1 0 0 1 .123.07l.074.279a.1.1 0 0 1-.07.122Z" fill="#4A4A4A"/><path d="m19.47 11.042.279-.074a.1.1 0 0 0 .07-.123l-.074-.278a.1.1 0 0 0-.122-.07l-.279.074a.1.1 0 0 0-.07.122l.074.279a.1.1 0 0 0 .123.07ZM18.912 11.192l.278-.074a.1.1 0 0 0 .07-.123l-.074-.278a.1.1 0 0 0-.122-.071l-.279.074a.1.1 0 0 0-.07.123l.074.278a.1.1 0 0 0 .122.071ZM18.352 11.342l.279-.075a.1.1 0 0 0 .07-.122l-.074-.279a.1.1 0 0 0-.122-.07l-.279.074a.1.1 0 0 0-.07.123l.074.278a.1.1 0 0 0 .122.071ZM17.794 11.492l.278-.075a.1.1 0 0 0 .07-.122l-.074-.279a.1.1 0 0 0-.122-.07l-.279.074a.1.1 0 0 0-.07.123l.074.278a.1.1 0 0 0 .123.07ZM17.235 11.642l.278-.075a.1.1 0 0 0 .07-.123l-.074-.278a.1.1 0 0 0-.122-.07l-.279.074a.1.1 0 0 0-.07.122l.074.279a.1.1 0 0 0 .123.07ZM16.676 11.791l.278-.074a.1.1 0 0 0 .07-.123l-.074-.278a.1.1 0 0 0-.122-.071l-.279.075a.1.1 0 0 0-.07.122l.074.279a.1.1 0 0 0 .123.07ZM16.117 11.941l.278-.075a.1.1 0 0 0 .07-.122l-.074-.278a.1.1 0 0 0-.122-.071l-.279.074a.1.1 0 0 0-.07.123l.074.278a.1.1 0 0 0 .123.071ZM15.558 12.09l.278-.074a.1.1 0 0 0 .07-.122l-.074-.279a.1.1 0 0 0-.122-.07l-.279.074a.1.1 0 0 0-.07.123l.074.278a.1.1 0 0 0 .123.07ZM14.999 12.24l.278-.074a.1.1 0 0 0 .07-.123l-.074-.278a.1.1 0 0 0-.122-.07l-.279.074a.1.1 0 0 0-.07.122l.074.279a.1.1 0 0 0 .123.07ZM14.44 12.39l.278-.074a.1.1 0 0 0 .07-.123l-.074-.278a.1.1 0 0 0-.122-.07l-.279.074a.1.1 0 0 0-.07.122l.074.279a.1.1 0 0 0 .123.07ZM13.88 12.54l.28-.074a.1.1 0 0 0 .07-.123l-.075-.278a.1.1 0 0 0-.122-.071l-.279.075a.1.1 0 0 0-.07.122l.074.278a.1.1 0 0 0 .123.071ZM13.322 12.69l.278-.075a.1.1 0 0 0 .07-.122l-.074-.279a.1.1 0 0 0-.122-.07l-.279.074a.1.1 0 0 0-.07.123l.074.278a.1.1 0 0 0 .123.071ZM12.763 12.84l.278-.075a.1.1 0 0 0 .071-.122l-.075-.279a.1.1 0 0 0-.122-.07l-.278.074a.1.1 0 0 0-.071.123l.074.278a.1.1 0 0 0 .123.07Z" fill="#4A4A4A"/><path d="m19.47 11.042.279-.074a.1.1 0 0 0 .07-.123l-.074-.278a.1.1 0 0 0-.122-.07l-.279.074a.1.1 0 0 0-.07.122l.074.279a.1.1 0 0 0 .123.07ZM18.912 11.192l.278-.074a.1.1 0 0 0 .07-.123l-.074-.278a.1.1 0 0 0-.122-.071l-.279.074a.1.1 0 0 0-.07.123l.074.278a.1.1 0 0 0 .122.071ZM18.352 11.342l.279-.075a.1.1 0 0 0 .07-.122l-.074-.279a.1.1 0 0 0-.122-.07l-.279.074a.1.1 0 0 0-.07.123l.074.278a.1.1 0 0 0 .122.071ZM17.794 11.492l.278-.075a.1.1 0 0 0 .07-.122l-.074-.279a.1.1 0 0 0-.122-.07l-.279.074a.1.1 0 0 0-.07.123l.074.278a.1.1 0 0 0 .123.07ZM17.235 11.642l.278-.075a.1.1 0 0 0 .07-.123l-.074-.278a.1.1 0 0 0-.122-.07l-.279.074a.1.1 0 0 0-.07.122l.074.279a.1.1 0 0 0 .123.07ZM16.676 11.791l.278-.074a.1.1 0 0 0 .07-.123l-.074-.278a.1.1 0 0 0-.122-.071l-.279.075a.1.1 0 0 0-.07.122l.074.279a.1.1 0 0 0 .123.07ZM16.117 11.941l.278-.075a.1.1 0 0 0 .07-.122l-.074-.278a.1.1 0 0 0-.122-.071l-.279.074a.1.1 0 0 0-.07.123l.074.278a.1.1 0 0 0 .123.071ZM15.558 12.09l.278-.074a.1.1 0 0 0 .07-.122l-.074-.279a.1.1 0 0 0-.122-.07l-.279.074a.1.1 0 0 0-.07.123l.074.278a.1.1 0 0 0 .123.07ZM14.999 12.24l.278-.074a.1.1 0 0 0 .07-.123l-.074-.278a.1.1 0 0 0-.122-.07l-.279.074a.1.1 0 0 0-.07.122l.074.279a.1.1 0 0 0 .123.07ZM14.44 12.39l.278-.074a.1.1 0 0 0 .07-.123l-.074-.278a.1.1 0 0 0-.122-.07l-.279.074a.1.1 0 0 0-.07.122l.074.279a.1.1 0 0 0 .123.07ZM13.88 12.54l.28-.074a.1.1 0 0 0 .07-.123l-.075-.278a.1.1 0 0 0-.122-.071l-.279.075a.1.1 0 0 0-.07.122l.074.278a.1.1 0 0 0 .123.071ZM13.322 12.69l.278-.075a.1.1 0 0 0 .07-.122l-.074-.279a.1.1 0 0 0-.122-.07l-.279.074a.1.1 0 0 0-.07.123l.074.278a.1.1 0 0 0 .123.071ZM12.763 12.84l.278-.075a.1.1 0 0 0 .071-.122l-.075-.279a.1.1 0 0 0-.122-.07l-.278.074a.1.1 0 0 0-.071.123l.074.278a.1.1 0 0 0 .123.07Z" fill="#4A4A4A"/><path fill-rule="evenodd" clip-rule="evenodd" d="m12.93 13.462.645-.173a.1.1 0 0 1 .122.07l.075.28a.1.1 0 0 1-.07.122l-.646.173a.1.1 0 0 1-.123-.071l-.074-.278a.1.1 0 0 1 .07-.123Z" fill="#4A4A4A"/><path d="m14.151 13.135-.278.074a.1.1 0 0 0-.071.123l.075.278a.1.1 0 0 0 .122.07l.279-.074a.1.1 0 0 0 .07-.122l-.074-.279a.1.1 0 0 0-.123-.07ZM14.71 12.985l-.278.074a.1.1 0 0 0-.071.123l.075.278a.1.1 0 0 0 .122.071l.279-.075a.1.1 0 0 0 .07-.122l-.074-.278a.1.1 0 0 0-.123-.071ZM15.27 12.835l-.28.075a.1.1 0 0 0-.07.122l.075.279a.1.1 0 0 0 .122.07l.279-.074a.1.1 0 0 0 .07-.123l-.074-.278a.1.1 0 0 0-.123-.071ZM15.828 12.685l-.278.075a.1.1 0 0 0-.071.122l.075.279a.1.1 0 0 0 .122.07l.278-.074a.1.1 0 0 0 .071-.123l-.074-.278a.1.1 0 0 0-.123-.07ZM16.387 12.536l-.278.074a.1.1 0 0 0-.071.123l.075.278a.1.1 0 0 0 .122.07l.279-.074a.1.1 0 0 0 .07-.122l-.074-.279a.1.1 0 0 0-.123-.07ZM16.946 12.386l-.278.074a.1.1 0 0 0-.071.123l.075.278a.1.1 0 0 0 .122.071l.279-.075a.1.1 0 0 0 .07-.122l-.074-.279a.1.1 0 0 0-.123-.07ZM17.505 12.236l-.278.074a.1.1 0 0 0-.071.123l.075.278a.1.1 0 0 0 .122.071l.278-.074a.1.1 0 0 0 .071-.123l-.074-.278a.1.1 0 0 0-.123-.071ZM18.064 12.086l-.279.075a.1.1 0 0 0-.07.122l.074.279a.1.1 0 0 0 .123.07l.278-.074a.1.1 0 0 0 .071-.123l-.075-.278a.1.1 0 0 0-.122-.07ZM18.623 11.936l-.279.075a.1.1 0 0 0-.07.123l.074.278a.1.1 0 0 0 .123.07l.278-.074a.1.1 0 0 0 .071-.122l-.075-.279a.1.1 0 0 0-.122-.07ZM19.182 11.787l-.278.074a.1.1 0 0 0-.071.123l.074.278a.1.1 0 0 0 .123.07l.278-.074a.1.1 0 0 0 .071-.122l-.075-.279a.1.1 0 0 0-.122-.07ZM19.74 11.637l-.277.074a.1.1 0 0 0-.071.123l.074.278a.1.1 0 0 0 .123.071l.278-.075a.1.1 0 0 0 .071-.122l-.075-.279a.1.1 0 0 0-.122-.07Z" fill="#4A4A4A"/><path fill-rule="evenodd" clip-rule="evenodd" d="m20.039 11.557.61-.164a.1.1 0 0 1 .123.071l.074.279a.1.1 0 0 1-.07.122l-.61.164a.1.1 0 0 1-.123-.071l-.075-.278a.1.1 0 0 1 .07-.123h.001Z" fill="#4A4A4A"/><path d="m13.517 14.54-.279.075a.1.1 0 0 0-.07.122l.074.279a.1.1 0 0 0 .123.07l.278-.074a.1.1 0 0 0 .071-.123l-.075-.278a.1.1 0 0 0-.122-.07ZM14.076 14.39l-.279.075a.1.1 0 0 0-.07.122l.074.279a.1.1 0 0 0 .123.07l.278-.074a.1.1 0 0 0 .071-.123l-.075-.278a.1.1 0 0 0-.122-.07ZM14.635 14.24l-.279.075a.1.1 0 0 0-.07.123l.074.278a.1.1 0 0 0 .123.07l.278-.074a.1.1 0 0 0 .071-.122l-.075-.279a.1.1 0 0 0-.122-.07ZM15.194 14.09l-.279.075a.1.1 0 0 0-.07.123l.074.278a.1.1 0 0 0 .123.071l.278-.075a.1.1 0 0 0 .07-.122l-.074-.278a.1.1 0 0 0-.122-.071Z" fill="#4A4A4A"/><path fill-rule="evenodd" clip-rule="evenodd" d="m15.474 14.016 2.69-.72a.1.1 0 0 1 .122.07l.074.278a.1.1 0 0 1-.07.123l-2.69.72a.1.1 0 0 1-.122-.07l-.074-.279a.1.1 0 0 1 .07-.122Zm2.97-.796.348-.093a.1.1 0 0 1 .123.07l.074.279a.1.1 0 0 1-.07.122l-.349.094a.1.1 0 0 1-.122-.071l-.075-.279a.1.1 0 0 1 .07-.122Z" fill="#4A4A4A"/><path d="m19.351 12.977-.278.075a.1.1 0 0 0-.071.122l.075.279a.1.1 0 0 0 .122.07l.279-.074a.1.1 0 0 0 .07-.123l-.074-.278a.1.1 0 0 0-.123-.071ZM19.91 12.827l-.278.075a.1.1 0 0 0-.071.122l.075.279a.1.1 0 0 0 .122.07l.279-.074a.1.1 0 0 0 .07-.123l-.074-.278a.1.1 0 0 0-.123-.07ZM20.958 12.546l-.278.075a.1.1 0 0 0-.071.122l.075.279a.1.1 0 0 0 .122.07l.279-.074a.1.1 0 0 0 .07-.123l-.074-.278a.1.1 0 0 0-.123-.07ZM20.113 12.988l-.028-.104a.1.1 0 0 1 .07-.123l.28-.074a.1.1 0 0 1 .122.07l.027.105-.471.126ZM20.603 12.931l.028.105a.1.1 0 0 1-.07.122l-.279.075a.1.1 0 0 1-.122-.07l-.028-.105.471-.127ZM20.259 10.038l-7.652 2.05a.108.108 0 1 0 .057.21l7.65-2.05a.108.108 0 1 0-.055-.21Z" fill="#4A4A4A"/><path opacity=".136" d="m13.075 12-.3.08a.072.072 0 1 0 .037.14l.3-.08a.072.072 0 1 0-.037-.14ZM13.678 11.838l-.3.081a.072.072 0 1 0 .037.14l.3-.08a.072.072 0 1 0-.037-.14ZM14.142 11.714l-.3.08a.072.072 0 1 0 .037.14l.3-.08a.072.072 0 1 0-.037-.14ZM14.606 11.59l-.3.08a.072.072 0 0 0 .038.14l.3-.08a.072.072 0 0 0-.038-.14ZM15.07 11.465l-.3.081a.072.072 0 0 0 .037.14l.3-.08a.072.072 0 0 0-.037-.14ZM15.65 11.31l-.3.08a.072.072 0 0 0 .037.14l.3-.08a.072.072 0 1 0-.037-.14ZM16.114 11.186l-.3.08a.072.072 0 0 0 .037.14l.3-.08a.072.072 0 1 0-.038-.14ZM16.578 11.061l-.3.081a.072.072 0 1 0 .037.14l.3-.08a.072.072 0 1 0-.037-.14ZM17.042 10.937l-.3.08a.072.072 0 0 0 .038.14l.3-.08a.072.072 0 1 0-.037-.14ZM17.622 10.782l-.3.08a.072.072 0 0 0 .037.14l.3-.08a.072.072 0 0 0-.038-.14ZM18.086 10.657l-.3.081a.072.072 0 0 0 .037.14l.3-.08a.072.072 0 0 0-.037-.14ZM18.55 10.533l-.3.08a.072.072 0 0 0 .038.14l.3-.08a.072.072 0 1 0-.037-.14ZM19.13 10.378l-.3.08a.072.072 0 1 0 .037.14l.3-.08a.072.072 0 1 0-.038-.14ZM19.594 10.253l-.301.08a.072.072 0 1 0 .037.14l.301-.08a.072.072 0 1 0-.037-.14ZM20.058 10.129l-.301.08a.072.072 0 0 0 .037.14l.302-.08a.072.072 0 0 0-.038-.14Z" fill="#D8D8D8"/><path fill-rule="evenodd" clip-rule="evenodd" d="M16.3 17.8c-.022 0-.043.004-.064.006l-.012-.045a.5.5 0 1 0-.494-.857 2.653 2.653 0 0 0-.033-.034.496.496 0 0 0-.299-.788.5.5 0 0 0-.56.293l-.044-.011c.002-.021.006-.042.006-.064a.5.5 0 0 0-1 0c0 .022.004.043.006.064l-.044.011a.5.5 0 1 0-.859.495 2 2 0 1 0 3.333 1.924c.021.002.042.006.064.006a.5.5 0 1 0 0-1Z" fill="#44D860"/><path fill-rule="evenodd" clip-rule="evenodd" d="M10.3 14.3h4v-2h-4v2Z" fill="#3ECC5F"/><path fill-rule="evenodd" clip-rule="evenodd" d="M15.3 13.55a.25.25 0 1 0 0-.5l-.032.003-.006-.022a.25.25 0 0 0-.096-.481.247.247 0 0 0-.15.052.665.665 0 0 0-.018-.017.247.247 0 0 0-.005-.308.25.25 0 0 0-.424.06 1 1 0 1 0 0 1.925.25.25 0 0 0 .48-.098.247.247 0 0 0-.05-.149.665.665 0 0 0 .016-.017.247.247 0 0 0 .31-.005.25.25 0 0 0-.063-.424l.006-.022c.01.001.021.003.032.003Z" fill="#44D860"/><path fill-rule="evenodd" clip-rule="evenodd" d="M16.3 6.175a.272.272 0 0 1-.096-.019.26.26 0 0 1-.081-.054.263.263 0 0 1-.054-.081.261.261 0 0 1 0-.192.263.263 0 0 1 .092-.112.26.26 0 0 1 .09-.037.257.257 0 0 1 .188.037l.038.031a.255.255 0 0 1 .073.177.253.253 0 0 1-.154.231.256.256 0 0 1-.096.02Zm2-.125a.255.255 0 0 1-.208-.11.261.261 0 0 1-.042-.139.255.255 0 0 1 .11-.209.26.26 0 0 1 .091-.037.257.257 0 0 1 .188.037l.038.031a.255.255 0 0 1 .054.273.355.355 0 0 1-.023.043.368.368 0 0 1-.031.038.259.259 0 0 1-.177.073Z" fill="#000"/></svg>
