<svg viewBox="0 0 24 24" fill="none" xmlns="http://www.w3.org/2000/svg"><path d="M21.217 6.8a.27.27 0 0 1 .012.076v4.078a.298.298 0 0 1-.15.26l-3.424 1.969v3.907a.304.304 0 0 1-.147.259l-7.15 4.111c-.014.01-.033.017-.05.024l-.021.007a.33.33 0 0 1-.152 0l-.024-.01c-.017-.007-.033-.011-.048-.02l-7.142-4.112a.297.297 0 0 1-.15-.26V4.857c0-.029.005-.055.012-.079 0-.01.007-.016.01-.023.004-.017.01-.034.019-.048l.021-.026.024-.036.03-.024.034-.023L6.492 2.54a.29.29 0 0 1 .298 0l3.573 2.053.033.024.029.024.026.036.022.023.019.048c0 .01.007.017.01.024.006.028.009.054.009.08v7.643l2.978-1.713v-3.91c0-.023.003-.052.01-.076l.01-.026.018-.047.022-.024.026-.036.029-.024.033-.023L17.21 4.56a.301.301 0 0 1 .298 0l3.57 2.058.034.024c.01.01.022.014.029.024.012.009.019.023.026.035l.021.024c.01.017.015.03.02.048l.009.023V6.8Zm-.58 3.98V7.392l-1.252.719-1.727.994v3.393l2.978-1.713v-.005Zm-3.576 6.138v-3.395l-1.7.971-4.85 2.77v3.425l6.55-3.77ZM3.366 5.37v11.548l6.55 3.769V17.26l-3.421-1.934h-.003l-.03-.024c-.01-.01-.022-.014-.03-.024-.011-.01-.018-.024-.025-.03l-.024-.032-.014-.038c-.005-.01-.012-.021-.015-.033l-.007-.043-.002-.033V7.08l-1.728-.994-1.253-.716h.002Zm3.276-2.23L3.666 4.857 6.64 6.569l2.976-1.713-2.974-1.713v-.002ZM8.19 13.833l1.727-.992V5.37l-1.247.718-1.727.995v7.47l1.249-.72h-.002Zm9.169-8.667-2.974 1.713 2.974 1.713 2.974-1.713-2.974-1.713Zm-.297 3.943-1.728-.995-1.249-.718v3.385l1.727.995 1.25.72v-3.39.003Zm-6.845 7.639 4.365-2.491 2.182-1.244-2.974-1.713-3.426 1.972-3.117 1.796 2.97 1.68Z" fill="#FF2D20"/></svg>
