<svg viewBox="0 0 24 24" fill="none" xmlns="http://www.w3.org/2000/svg"><path fill-rule="evenodd" clip-rule="evenodd" d="M13.776 2.04c-.144 0-.279.03-.403.071.264.176.409.409.48.672.006.036.016.062.021.098.005.031.01.062.01.093.021.455-.118.511-.216.78-.15.346-.109.718.072 1.017a.608.608 0 0 0 .062.114c-.196-1.307.894-1.503 1.095-1.91.016-.357-.279-.595-.511-.76a1.141 1.141 0 0 0-.61-.176Zm1.643.294c-.021.118-.005.087-.01.15-.006.04-.006.092-.01.134-.01.042-.023.083-.037.124a1.15 1.15 0 0 1-.042.124c-.02.041-.035.077-.056.118-.016.021-.026.042-.042.062l-.03.047a1.78 1.78 0 0 1-.078.103c-.03.031-.057.067-.093.093v.005c-.031.026-.062.057-.098.083-.108.082-.233.145-.346.222-.036.026-.073.046-.103.078a.754.754 0 0 0-.099.082c-.036.031-.062.062-.093.098-.025.031-.056.067-.077.104-.026.035-.05.07-.072.108-.021.041-.036.077-.057.119-.016.041-.031.077-.042.119a1.693 1.693 0 0 0-.036.129c-.005.02-.005.046-.01.067-.005.02-.005.041-.01.062 0 .041-.005.088-.005.129 0 .031 0 .062.005.093 0 .041.005.083.015.13.005.04.016.082.026.123.015.041.026.083.041.124.01.026.026.052.037.072l-1.188-.46a12.782 12.782 0 0 0-.6-.154l-.325-.078a9.587 9.587 0 0 0-.94-.14c-.01 0-.016-.004-.026-.004a9.236 9.236 0 0 0-1.601-.021c-.315.02-.63.062-.945.114-.078.01-.155.026-.233.04-.155.032-.31.066-.465.104l-.232.062c-.077.031-.15.067-.222.098l-.17.078c-.01.005-.021.005-.026.01-.052.026-.098.047-.145.073a2.283 2.283 0 0 0-.196.098c-.036.015-.072.036-.104.051a3.026 3.026 0 0 0-.305.18c-.035.027-.071.048-.103.073-.005.005-.01.005-.015.01-.031.021-.067.047-.098.073l-.01.01-.078.062c-.01.005-.02.016-.03.02-.027.022-.053.047-.078.068-.006.01-.016.016-.021.02-.031.032-.062.058-.093.088-.005 0-.005.006-.01.011a1.46 1.46 0 0 0-.094.088c-.005.005-.005.01-.01.01a1.133 1.133 0 0 0-.077.083c-.01.01-.026.02-.036.03-.026.032-.057.062-.088.094-.005.01-.016.015-.02.025-.042.042-.078.083-.12.124l-.015.016c-.082.088-.17.175-.264.253-.093.083-.19.16-.289.227a3.146 3.146 0 0 1-.635.351 3.703 3.703 0 0 1-.336.124c-.217.047-.439.135-.63.15-.041 0-.088.01-.129.016a5.72 5.72 0 0 0-.129.03l-.124.047a1.311 1.311 0 0 0-.124.057c-.036.026-.077.046-.114.072a.84.84 0 0 0-.103.088.882.882 0 0 0-.103.093c-.031.036-.062.067-.088.103-.026.042-.057.078-.078.12a.909.909 0 0 0-.072.118c-.02.046-.041.088-.057.134l-.046.134a.991.991 0 0 0-.026.124c0 .006-.005.011-.005.016-.01.047-.01.108-.016.14-.005.035-.01.067-.01.103a.543.543 0 0 0 .026.165c.01.03.02.062.036.093v.005a.917.917 0 0 0 .057.093c.02.031.041.062.067.093.028.029.057.057.088.083.03.03.063.058.098.082.124.109.155.145.315.228.026.015.052.026.083.041.005 0 .01.005.015.005 0 .01 0 .016.005.026.005.041.016.083.026.124.01.043.024.084.041.124.016.03.026.062.042.093.005.01.01.02.015.026.021.041.042.077.062.113l.078.109c.028.034.057.067.088.098.03.03.062.057.098.088 0 0 .005.005.01.005a1.037 1.037 0 0 0 .207.14.85.85 0 0 0 .118.056.583.583 0 0 0 .104.036c.005.005.01.005.02.01.021.006.047.011.068.016-.016.279-.021.543.02.635.047.104.274-.211.501-.573-.03.357-.051.775 0 .899.057.129.367-.274.636-.718 3.662-.847 7.003 1.684 7.354 5.258-.067-.558-.754-.868-1.069-.79-.155.382-.418.873-.841 1.177.037-.345.02-.693-.052-1.033a3.34 3.34 0 0 1-.64 1.302c-.491.036-.982-.202-1.24-.558-.02-.015-.026-.046-.042-.067a.934.934 0 0 1-.04-.108.43.43 0 0 1-.032-.109c-.005-.036-.005-.072-.005-.114v-.077a.815.815 0 0 1 .026-.109c.01-.036.02-.072.036-.108.02-.036.036-.072.062-.108.088-.248.088-.45-.072-.569a.587.587 0 0 0-.099-.051c-.02-.006-.046-.016-.067-.021l-.041-.015a.813.813 0 0 0-.109-.026.394.394 0 0 0-.108-.016.831.831 0 0 0-.114-.01c-.025 0-.051.005-.077.005a.412.412 0 0 0-.114.015c-.036.006-.072.011-.108.021a.926.926 0 0 0-.109.036l-.103.047c-.03.015-.062.036-.098.052-1.203.784-.486 2.623.336 3.155-.31.057-.625.124-.713.191l-.01.01c.222.135.455.25.697.347.276.09.556.172.837.248v.005c.427.088.865.119 1.301.093 2.288-.16 4.163-1.9 4.504-4.194l.031.134c.015.093.036.191.046.29v.005c.01.046.016.092.021.134v.02c.005.047.01.094.01.135.006.057.01.113.01.17v.083c0 .026.006.057.006.083 0 .03-.005.062-.005.093v.072c0 .036-.005.067-.005.103 0 .02 0 .041-.006.067 0 .036-.005.073-.005.114-.005.015-.005.03-.005.046l-.015.12c0 .015 0 .03-.005.046-.006.051-.016.098-.021.15v.01c-.01.046-.02.098-.031.144v.016l-.031.14c0 .005-.005.015-.005.02-.01.047-.021.093-.036.14v.015c-.016.052-.031.098-.042.145-.005.005-.005.01-.005.01l-.046.155c-.021.052-.037.098-.057.15-.021.051-.036.103-.057.15l-.062.15h-.005c-.021.046-.041.097-.067.144a.222.222 0 0 1-.016.036c-.005.005-.005.01-.01.015a4.89 4.89 0 0 1-1.451 1.736c-.042.026-.083.057-.125.088-.01.01-.026.015-.036.026-.036.025-.072.051-.113.077l.015.031h.005l.217-.03h.005c.135-.022.269-.047.403-.073a.875.875 0 0 0 .114-.026l.072-.015c.036-.006.072-.016.109-.021.03-.01.062-.016.093-.026a9.788 9.788 0 0 0 1.497-.496 8.271 8.271 0 0 1-3.207 2.619 8.517 8.517 0 0 0 1.761-.305 8.253 8.253 0 0 0 4.881-3.9 8.244 8.244 0 0 1-1.39 3.321c.501-.33.964-.714 1.38-1.146a8.187 8.187 0 0 0 2.174-4.39c.177.817.227 1.657.15 2.49 3.73-5.202.31-10.594-1.12-12.015-.006-.01-.01-.015-.01-.026-.006.006-.006.006-.006.011 0-.005 0-.005-.005-.01 0 .061-.006.124-.01.186a6.958 6.958 0 0 1-.052.345c-.026.114-.057.228-.088.341a4.28 4.28 0 0 1-.124.33c-.048.108-.1.213-.155.316a3.964 3.964 0 0 1-.398.573c-.077.093-.16.176-.242.259a3.192 3.192 0 0 1-.15.129l-.12.103c-.092.072-.185.14-.288.201a3.57 3.57 0 0 1-.305.176 8.755 8.755 0 0 1-.325.145 3.631 3.631 0 0 1-.682.186c-.12.02-.238.03-.351.04a3.89 3.89 0 0 1-.248.011c-.12 0-.238-.01-.351-.02a2.615 2.615 0 0 1-.352-.052 2.593 2.593 0 0 1-.346-.088h-.005c.114-.01.227-.02.341-.041a3.73 3.73 0 0 0 1.317-.501c.098-.067.196-.134.29-.207.092-.072.18-.15.263-.232.087-.078.165-.165.242-.253.078-.093.15-.186.217-.28.01-.015.02-.035.031-.05.052-.084.104-.166.15-.249a3.553 3.553 0 0 0 .367-.981c.02-.119.041-.233.052-.346.01-.119.02-.238.02-.351 0-.083-.005-.166-.01-.248-.01-.12-.026-.233-.041-.346a3.858 3.858 0 0 0-.078-.346c-.036-.109-.072-.222-.114-.331a3.544 3.544 0 0 0-.527-.91 11.038 11.038 0 0 0-.237-.262c-.041-.042-.088-.088-.134-.13a9.424 9.424 0 0 0-.718-.506.959.959 0 0 0-.104-.051 2.012 2.012 0 0 0-.49-.217Z" fill="#E0234E"/></svg>
