<svg viewBox="0 0 24 24" fill="none" xmlns="http://www.w3.org/2000/svg"><path d="M7.285 13.5H2.007l.003.077.009.15.004.063.014.171.004.039a8.813 8.813 0 0 0 .387 1.871c0 .004.002.007.003.011l.058.173.016.044a10.063 10.063 0 0 0 .08.216l.048.124a4.619 4.619 0 0 0 .078.189l.052.117.031.07.066.14.022.046.079.16.012.024c.03.059.061.117.093.175l.004.008.02.036 4.508-2.715.017-.01a3.606 3.606 0 0 1-.33-1.179Z" fill="#93D500"/><path d="m8.582 15.923-.013.013-3.717 3.717.057.053.105.094.055.048.127.107.034.029a8.31 8.31 0 0 0 .324.254l.006.004c.224.168.456.325.695.47l.025.016c.045.027.09.054.137.08l.084.048.08.045c.048.026.096.053.145.078a8.427 8.427 0 0 0 .431.21l.132-.32 1.87-4.54.007-.017a3.62 3.62 0 0 1-.584-.389Z" fill="#4D5A31"/><path d="M8.195 15.553a3.238 3.238 0 0 1-.212-.262 3.65 3.65 0 0 1-.2-.296L3.27 17.713c.069.116.141.228.215.338l.007.012.003.005.007.01v.002l.019.026.001.002c.079.116.16.23.242.342l.006.007.005.007.11.142.015.019c.038.049.077.097.117.145l.028.034a10.29 10.29 0 0 0 .155.181l.094.105.053.058.024.026.07.075.028.03.125.127 3.723-3.723a3.21 3.21 0 0 1-.122-.13Z" fill="#6BA43A"/><path d="M13.13 15.921a3.662 3.662 0 0 1-.124.096l.009.016 2.714 4.506a8.206 8.206 0 0 0 1.134-.886l-3.718-3.717-.015-.015Z" fill="#4D5A31"/><path d="m15.335 20.576-.092-.153-2.534-4.206a3.578 3.578 0 0 1-.316.167 3.6 3.6 0 0 1-2.567.2c-.057-.017-.113-.04-.169-.06-.056-.02-.113-.037-.168-.06L7.62 21.003l-.073.178-.063.152.014.006.016.006.004.002c.044.018.089.033.133.05.056.022.11.044.167.065l.085.032a8.912 8.912 0 0 0 1.88.442l.075.008.142.016.036.003.174.014.06.004.153.01.094.003.122.004a10.28 10.28 0 0 0 .217.003 8.877 8.877 0 0 0 1.495-.126l.154-.028.088-.017.09-.02c.05-.01.1-.02.15-.032l.028-.007a8.885 8.885 0 0 0 2.124-.791l.13-.074.157-.088.107-.06.001-.001.002-.001h.001l.001-.001.002-.001.006-.004.034-.02-.091-.153Zm-6.75-10.21a4.17 4.17 0 0 1 .123-.097l-.009-.015-2.714-4.506c-.126.082-.25.167-.372.256a8.933 8.933 0 0 0-.762.629L8.57 10.35l.015.015Z" fill="#93D500"/><path d="M4.594 6.88c-.043.043-.083.087-.124.13l-.123.128a8.875 8.875 0 0 0-.753.933l-.032.046-.076.112a6.38 6.38 0 0 0-.104.16 8.833 8.833 0 0 0-1.375 4.397l-.005.178-.003.179h5.266c0-.06.005-.119.008-.179s.004-.119.01-.178a3.572 3.572 0 0 1 .794-1.917c.038-.046.08-.09.12-.133.04-.044.077-.09.12-.133L4.594 6.881Zm10.864-1.306c-.007-.005-.014-.01-.021-.013a7.255 7.255 0 0 0-.14-.083l-.082-.047-.082-.046a27.998 27.998 0 0 0-.143-.077l-.023-.012a8.866 8.866 0 0 0-.95-.426l-.024-.01a8.908 8.908 0 0 0-1.987-.498l-.074-.01-.075-.008a6.585 6.585 0 0 0-.143-.016l-.04-.004a14.02 14.02 0 0 0-.17-.014l-.066-.004-.146-.009a3.121 3.121 0 0 0-.078-.003v5.278c.27.028.54.086.8.174l3.884-3.884a8.66 8.66 0 0 0-.44-.288Z" fill="#4D5A31"/><path d="M10.679 4.29c-.06.001-.12.001-.179.003a8.86 8.86 0 0 0-1.113.115l-.024.004-.155.029-.087.016a5.71 5.71 0 0 0-.24.052l-.028.006a8.918 8.918 0 0 0-2.125.792l-.13.074a10.34 10.34 0 0 0-.156.087c-.038.023-.077.043-.115.066h-.002a.099.099 0 0 1-.008.005l-.03.017v.001l.093.153 2.625 4.359a3.846 3.846 0 0 1 .316-.167 3.576 3.576 0 0 1 1.536-.35V4.285c-.06 0-.119.003-.178.004Z" fill="#6BA43A"/><path d="M19.704 12.708a9.926 9.926 0 0 0-.05-.61l-.002-.014-.001-.007a9.571 9.571 0 0 0-.027-.201v-.006a8.88 8.88 0 0 0-.273-1.245l-.002-.008-.059-.19-.008-.025a10.987 10.987 0 0 0-.057-.17l-.016-.046-.054-.147c-.009-.024-.017-.047-.027-.07a4.804 4.804 0 0 0-.086-.216l-.04-.094c-.016-.04-.034-.08-.052-.12l-.03-.068a15.234 15.234 0 0 0-.066-.142l-.021-.043a7.015 7.015 0 0 0-.08-.162l-.012-.022c-.03-.06-.061-.119-.093-.177l-.003-.006a8.906 8.906 0 0 0-.504-.818l-3.886 3.886c.088.26.146.529.174.8h5.278c0-.027-.002-.054-.003-.08Z" fill="#4D5A31"/><path d="M14.45 13.143c0 .06-.006.119-.01.179-.002.06-.003.119-.01.178a3.573 3.573 0 0 1-.793 1.918c-.037.046-.08.088-.12.133-.04.044-.077.09-.12.132l3.723 3.723c.043-.043.082-.086.124-.13l.123-.128c.276-.299.528-.61.754-.935l.027-.039.082-.12.07-.108.034-.052a8.83 8.83 0 0 0 1.377-4.573c.002-.059.003-.118.003-.178H14.45Z" fill="#6BA43A"/><path d="M21.279 2.722a2.467 2.467 0 0 0-3.953 2.84l-5.374 5.373a2.467 2.467 0 1 0 1.114 1.113l5.373-5.373a2.466 2.466 0 0 0 2.84-3.953Z" fill="#424143"/></svg>
