<svg viewBox="0 0 24 24" fill="none" xmlns="http://www.w3.org/2000/svg"><path d="M12.5 14.014a1.783 1.783 0 1 0 0-3.565 1.783 1.783 0 0 0 0 3.565Z" fill="#61DAFB"/><path d="M12.5 15.884c5.283 0 9.565-1.635 9.565-3.652 0-2.017-4.282-3.652-9.565-3.652-5.283 0-9.565 1.635-9.565 3.652 0 2.017 4.282 3.652 9.565 3.652Z" stroke="#61DAFB" stroke-width=".87"/><path d="M9.337 14.058c2.642 4.575 6.199 7.466 7.946 6.457 1.746-1.008 1.021-5.534-1.62-10.11C13.02 5.832 9.464 2.94 7.717 3.949c-1.746 1.009-1.021 5.535 1.62 10.11Z" stroke="#61DAFB" stroke-width=".87"/><path d="M9.337 10.406c-2.641 4.575-3.366 9.1-1.62 10.11 1.747 1.008 5.304-1.883 7.946-6.458 2.641-4.575 3.366-9.101 1.62-10.11-1.747-1.009-5.305 1.883-7.946 6.458Z" stroke="#61DAFB" stroke-width=".87"/></svg>
