<svg viewBox="-2 0 24 24" fill="green" xmlns="http://www.w3.org/2000/svg">
  <path d="M18.6641,3.17115 C16.4455,-0.01417 12.0538,-0.95901 8.87603,1.06708 L3.29032,4.62465 C1.76747,5.58656 0.71661,7.14482 0.39843,8.91657 C0.13207,10.3888 0.36611,11.9333 1.06377,13.2490 C0.58565,13.9759 0.25975,14.7766 0.10535,15.6177 C-0.21600,17.4430 0.20445,19.2953 1.27135,20.7930 C3.49000,23.9872 7.88195,24.9296 11.0530,22.9036 L16.6387,19.3460 C18.1616,18.3841 19.2124,16.8258 19.5306,15.0541 C19.7969,13.5819 19.5629,12.0374 18.8652,10.7217 C19.3433,9.99485 19.6692,9.19414 19.8236,8.35303 C20.1396,6.52781 19.7192,4.67510 18.6642,3.17115" fill="#FF3E00"/>
  <path d="M8.32690,21.0989 C6.52902,21.5707 4.62735,20.8676 3.56753,19.3483 C2.92593,18.4399 2.67408,17.3176 2.86647,16.2267 C2.89991,16.0527 2.94462,15.8799 2.99967,15.7097 L3.10465,15.3918 L3.39135,15.5736 C4.05311,16.0673 4.79389,16.4312 5.57744,16.6686 L5.78461,16.7318 L5.76555,16.9333 C5.73977,17.2256 5.81987,17.5176 5.98814,17.7626 C6.30748,18.2321 6.88009,18.4441 7.42234,18.2926 C7.54347,18.2603 7.65894,18.2094 7.76694,18.1418 L13.3481,14.6208 C13.6238,14.4429 13.8164,14.1568 13.8717,13.8380 C13.9273,13.5156 13.8524,13.1834 13.6607,12.9152 C13.3414,12.4457 12.7688,12.2337 12.2265,12.3852 C12.1054,12.4175 11.9899,12.4684 11.8819,12.5360 L9.76020,13.8851 C9.40819,14.0993 9.02869,14.2644 8.62604,14.3740 C6.82816,14.8458 4.92649,14.1427 3.86667,12.6234 C3.22507,11.7150 2.97322,10.5927 3.16561,9.50183 C3.35086,8.44482 3.98522,7.50879 4.90207,6.92882 L10.4833,3.37039 C10.8353,3.15619 11.2148,2.99109 11.6174,2.88546 C13.4153,2.41366 15.3170,3.11677 16.3768,4.63607 C17.0184,5.54447 17.2703,6.66677 17.0779,7.75767 C17.0445,7.93164 16.9998,8.10444 16.9447,8.27464 L16.8397,8.59254 L16.5530,8.41074 C15.8912,7.91704 15.1505,7.55314 14.3669,7.31574 L14.1598,7.25254 L14.1788,7.05104 C14.2046,6.75874 14.1245,6.46674 13.9562,6.22174 C13.6369,5.75224 13.0643,5.54024 12.5220,5.69174 C12.4009,5.72404 12.2854,5.77494 12.1774,5.84254 L6.59924,9.36354 C6.32354,9.54144 6.13094,9.82754 6.07564,10.1463 C6.02004,10.4687 6.09494,10.8009 6.28664,11.0691 C6.60598,11.5386 7.17859,11.7506 7.72084,11.5991 C7.84197,11.5668 7.95744,11.5159 8.06544,11.4483 L10.1871,10.0992 C10.5391,9.88504 10.9186,9.71994 11.3213,9.61434 C13.1191,9.14254 15.0208,9.84564 16.0806,11.3649 C16.7222,12.2733 16.9741,13.3956 16.7817,14.4865 C16.5965,15.5435 15.9621,16.4795 15.0453,17.0495 L9.46407,20.6079 C9.11206,20.8221 8.73256,20.9872 8.32991,21.0968" fill="#fff"/>
</svg>
