<svg viewBox="0 0 170 38" xmlns="http://www.w3.org/2000/svg" width="170" height="38">
  <g fill="none" fill-rule="evenodd">
    <g fill="currentColor">
      <path class="ign-logo__fill"
        d="M51.7 27V10.6h4.4l5.6 12.3 5.5-12.3h4.3V27h-3.7v-9.5L63.6 27h-3.9l-4.2-9.5V27h-3.8M86.1 20.6l-3-7-3 7h6ZM77.4 27H73l7.3-16.4h5.3L93.1 27H89l-1.5-3.3h-8.6L77.4 27ZM94.8 27V10.6h15.8v3.3h-12V17h10.3v3.3H98.6v3.3h12.1V27H94.8M117.6 18.1h8.3v-4.3h-8.3v4.3Zm-3.8 9V10.5H127c1.8 0 2.8 1 2.8 2.7v5.5c0 1.3-1.1 2.5-3.3 2.5h-.4l3.8 5.7h-4.2l-3.7-5.6h-4.4V27h-3.8ZM136.8 27h-1.3c-1.8 0-2.6-1-2.6-2.4v-2.1h3.9v1.2h8.2v-3.3h-9.4c-1.5 0-2.6-1-2.6-2.4v-5c0-1.4 1.2-2.4 2.6-2.4h10.7c1.5 0 2.5 1 2.5 2.6v2H145v-1.3h-8.2V17h9.3c1.4 0 2.7 1 2.7 2.7v4.6c0 1.6-1 2.6-2.6 2.6h-9.4M152.5 27V10.6h3.9v6.6l7.5-6.6h5.3l-8.9 7.6 9.2 8.8H164l-7.6-7.4V27h-3.9">
      </path>
    </g>
    <g fill-rule="nonzero">
      <path d="M4.3 0h27c2.4 0 4.3 2 4.3 4.3V33c0 2.4-1.9 4.3-4.3 4.3h-27c-2.4 0-4.3-2-4.3-4.3V4.3A4.2 4.2 0 0 1 4.3 0Z"
        fill="currentColor"></path>
      <path class="fill-current-bg"
        d="m23.5 17.7 7-8.8-10.2 4.8-2.5-10.9-2.5 10.9L5.1 8.9l7 8.8L2 22.5h11.3l-2.5 10.9 7-8.7 7.1 8.7-2.5-10.9h11.3z">
      </path>
    </g>
  </g>
</svg>