<svg xmlns="http://www.w3.org/2000/svg" fill="currentColor" aria-label="Zoom" viewBox="0 1.1 74.19 16.87"><path d="M15.56 17.72H2.29c-.93 0-1.76-.55-2.11-1.41a2.29 2.29 0 0 1 .5-2.5l9.18-9.19H3.28A3.27 3.27 0 0 1 0 1.34h12.23a2.29 2.29 0 0 1 1.62 3.92l-9.18 9.19h7.61a3.28 3.28 0 0 1 3.28 3.27M74.19 7.5a6.4 6.4 0 0 0-6.39-6.4c-1.88 0-3.58.83-4.75 2.13A6.37 6.37 0 0 0 58.3 1.1a6.4 6.4 0 0 0-6.38 6.39v10.23a3.27 3.27 0 0 0 3.27-3.27V7.49a3.12 3.12 0 0 1 3.11-3.11 3.12 3.12 0 0 1 3.12 3.1v6.97a3.28 3.28 0 0 0 3.27 3.27V7.5a3.12 3.12 0 0 1 3.11-3.12 3.12 3.12 0 0 1 3.12 3.12v6.96a3.28 3.28 0 0 0 3.27 3.27zM50.28 9.53a8.43 8.43 0 1 1-16.87 0 8.43 8.43 0 0 1 16.87 0m-3.28 0a5.16 5.16 0 1 0-10.31 0 5.16 5.16 0 0 0 10.31 0m-14.9 0a8.43 8.43 0 1 1-16.87 0 8.43 8.43 0 0 1 16.87 0m-3.27 0a5.16 5.16 0 1 0-10.32 0 5.16 5.16 0 0 0 10.32 0"/></svg>