<svg viewBox="0 0 24 24" xmlns="http://www.w3.org/2000/svg">
    <path
        d="M21.75 9V6a1.5 1.5 0 00-1.5-1.5h-12V3a1.5 1.5 0 00-1.5-1.5h-4.5A1.5 1.5 0 00.75 3v17.8a1.7 1.7 0 003.336.438l2.352-11.154A1.5 1.5 0 017.879 9H21.75a1.5 1.5 0 011.45 1.886l-2.2 10.5a1.5 1.5 0 01-1.45 1.114H2.447"
        fill="none" stroke="currentColor" stroke-linecap="round" stroke-linejoin="round" />
    <path d="M12 13.5l-2.25 2.25L12 18M16.5 13.5l2.25 2.25L16.5 18" fill="none" stroke="currentColor"
        stroke-linecap="round" stroke-linejoin="round" />
</svg>