<svg viewBox="0 0 24 24" fill="none" xmlns="http://www.w3.org/2000/svg" stroke-linecap="round" stroke-linejoin="round"
    stroke="currentColor">
    <path
        d="M10.145 5.108a.584.584 0 01-.657-.37l-.24-.705a.508.508 0 00-.496-.35c-1.835.065-3.434.577-4.13.834-.247.091-.456.255-.6.474-.75 1.142-3.085 5.242-3.02 11.944.003.4.169.78.485 1.025.716.556 2.259 1.576 4.702 2.314.358.108.75.004.962-.304.316-.462.597-1.04.796-1.494a.562.562 0 01.669-.31c.87.248 1.993.439 3.39.439 1.393 0 2.512-.19 3.379-.437a.562.562 0 01.669.31c.199.454.48 1.03.795 1.492.211.308.604.412.962.304 2.443-.738 3.986-1.758 4.703-2.314.315-.245.48-.626.485-1.025.063-6.652-2.236-10.74-3.003-11.917a1.253 1.253 0 00-.654-.5c-.75-.256-2.428-.763-4.094-.833a.505.505 0 00-.496.348l-.239.703a.586.586 0 01-.66.37 10.535 10.535 0 00-1.846-.15c-.827 0-1.461.08-1.862.152z" />
    <path
        d="M10 12.553c0 1.38-1.008 2.5-2.25 2.5-1.243 0-2.25-1.12-2.25-2.5 0-1.381 1.007-2.5 2.25-2.5 1.242 0 2.25 1.119 2.25 2.5zM14 12.553c0 1.38 1.007 2.5 2.25 2.5 1.242 0 2.25-1.12 2.25-2.5 0-1.381-1.008-2.5-2.25-2.5-1.243 0-2.25 1.119-2.25 2.5z" />
</svg>