<svg xmlns="http://www.w3.org/2000/svg" fill="currentColor" viewBox="0 0 1024 1024">
    <path
        d="M512 0a512 512 0 0 0-162 998c26 4 35-11 35-25l-1-95c-128 23-161-32-172-60-6-15-31-61-52-73-18-10-44-33-1-33 40-1 69 37 78 52 46 78 120 56 149 43 5-33 18-56 33-69-114-13-234-56-234-253 0-56 20-101 53-137-5-13-23-65 5-136 0 0 43-13 141 53a487 487 0 0 1 256 0c98-66 141-53 141-53 28 71 10 123 5 136 33 36 53 81 53 137 0 197-120 240-234 253 18 16 35 47 35 95l-1 140c0 14 9 30 35 25A512 512 0 0 0 512 0z" />
</svg>