<svg viewBox="0 0 24 24" fill="none" xmlns="http://www.w3.org/2000/svg" stroke="currentColor" stroke-linecap="round"
    stroke-linejoin="round">
    <path
        d="M16.643 22.94v-3.135a3.682 3.682 0 00-1.026-2.852c3.43-.382 7.036-1.682 7.036-7.648a5.944 5.944 0 00-1.64-4.097 5.54 5.54 0 00-.097-4.12s-1.29-.382-4.272 1.618a14.619 14.619 0 00-7.649 0c-2.982-2-4.272-1.617-4.272-1.617a5.54 5.54 0 00-.098 4.119 5.943 5.943 0 00-1.639 4.13c0 5.922 3.606 7.222 7.036 7.648a3.682 3.682 0 00-1.027 2.819v3.136M8.995 20.755c-3.277 1.064-6.009 0-7.648-3.278" />
</svg>