<svg xmlns="http://www.w3.org/2000/svg" viewBox="0 0 24 24" fill="none" stroke="currentColor" stroke-linecap="round"
    stroke-linejoin="round">
    <path
        d="M17.333 5.34c1.39-.22 2.796-.334 4.205-.34.121 0 .238.043.329.122a.44.44 0 01.133.314v13.73a.44.44 0 01-.133.306.458.458 0 01-.311.13C14.186 19.708 12 22 12 22m0 0V7.38S9.822 5.096 2.462 5a.494.494 0 00-.329.122.44.44 0 00-.133.314v13.73a.44.44 0 00.133.306.458.458 0 00.311.13C9.814 19.708 12 22 12 22z" />
    <path
        d="M12 22a5.67 5.67 0 011.367-3.135c.967-1.141 2.237-1.923 3.633-2.236V2.443a.449.449 0 00-.051-.21.403.403 0 00-.14-.154.473.473 0 00-.409-.054 6.44 6.44 0 00-3.033 2.063A5.858 5.858 0 0012 7.205" />
</svg>