<svg xmlns="http://www.w3.org/2000/svg" viewBox="0 0 121 121" fill="currentColor">
	<path fill-rule="evenodd" clip-rule="evenodd"
		d="M73.7 58.9c-1.5-1.8-3.2-3.9-5-5.9C58.5 41.7 48.4 30.3 38 19.2c-4.7-5.1-6.2-10-.6-15.1C43-.9 48.5-.4 53.7 5.3 68.1 21.2 82.4 37.2 97 52.9c5.5 5.9 4.2 9.9-1.8 14.2-23 16.7-46 33.5-68.9 50.4-5.1 3.8-10.1 4.8-14.2-.9-4.6-6.2-.3-9.9 4.4-13.3 17-12.4 34-24.8 50.9-37.4 2.5-1.7 5.9-2.8 6.3-7zm7.3 59.8c-6.2 0-12.4.2-18.6-.1-4.9-.2-7.9-3-7.8-8.2.1-4.9 2.5-8.6 7.5-8.7 13.5-.4 27.1-.3 40.7 0 4.3.1 7.5 2.9 7.5 7.4 0 5.1-2.7 9.1-8.2 9.5-7.2.4-14.2.1-21.1.1z" />
</svg>