<svg
  height="24"
  viewBox="0 0 24 24"
  width="24"
  xmlns="http://www.w3.org/2000/svg">
  <path
    d="M24 12a1 1 0 0 0 -1 -1h-3.91a0.51 0.51 0 0 1 -0.49 -0.4 6.83 6.83 0 0 0 -0.94 -2.28 0.5 0.5 0 0 1 0.06 -0.63l2.77 -2.76a1 1 0 1 0 -1.42 -1.42l-2.76 2.77a0.5 0.5 0 0 1 -0.63 0.06 6.83 6.83 0 0 0 -2.28 -0.94 0.5 0.5 0 0 1 -0.4 -0.49V1a1 1 0 0 0 -2 0v3.91a0.51 0.51 0 0 1 -0.4 0.49 6.83 6.83 0 0 0 -2.28 0.94 0.5 0.5 0 0 1 -0.63 -0.06L4.93 3.51a1 1 0 0 0 -1.42 1.42l2.77 2.76a0.5 0.5 0 0 1 0.06 0.63 6.83 6.83 0 0 0 -0.94 2.28 0.5 0.5 0 0 1 -0.49 0.4H1a1 1 0 0 0 0 2h3.91a0.51 0.51 0 0 1 0.49 0.4 6.83 6.83 0 0 0 0.94 2.28 0.5 0.5 0 0 1 -0.06 0.63l-2.77 2.76a1 1 0 1 0 1.42 1.42l2.76 -2.77a0.5 0.5 0 0 1 0.63 -0.06 6.83 6.83 0 0 0 2.28 0.94 0.5 0.5 0 0 1 0.4 0.49V23a1 1 0 0 0 2 0v-3.91a0.51 0.51 0 0 1 0.4 -0.49 6.83 6.83 0 0 0 2.28 -0.94 0.5 0.5 0 0 1 0.63 0.06l2.76 2.77a1 1 0 1 0 1.42 -1.42l-2.77 -2.76a0.5 0.5 0 0 1 -0.06 -0.63 6.83 6.83 0 0 0 0.94 -2.28 0.5 0.5 0 0 1 0.49 -0.4H23a1 1 0 0 0 1 -1Zm-8.74 2.5A5.76 5.76 0 0 1 9.5 8.74a5.66 5.66 0 0 1 0.16 -1.31 0.49 0.49 0 0 1 0.34 -0.36 5.36 5.36 0 0 1 1.8 -0.31 5.47 5.47 0 0 1 5.46 5.46 5.36 5.36 0 0 1 -0.31 1.8 0.49 0.49 0 0 1 -0.35 0.32 5.53 5.53 0 0 1 -1.34 0.16Z"
    fill="currentColor"
    stroke-width="1"></path>
</svg>