<svg xmlns="http://www.w3.org/2000/svg" viewBox="0 0 620 620">
    <path fill="currentColor"
        d="M-.653 309.29c-.078 82.272 31.848 159.735 89.739 218.178l.283.283c122.379 121.247 319.824 121.184 440.16-.283 119.967-121.1 119.409-316.933-.998-437.339l-.99-.99C468.681 30.845 390.716-1.017 307.893-.67c-82.83.354-160.443 32.994-218.814 91.79C31.209 149.555-.724 227.025-.653 309.29Zm469.271-160.789.778.778c87.9 87.9 88.325 231.005.707 319.33-77.753 78.46-199.786 87.412-288.959 26.862l198.513-198.513-.007 166.361 83.68-.07v-306.22H157.11l-.008 83.6h160.584L121.994 436.323c-59.347-87.689-50.536-208.59 26.51-286.343C236.34 61.294 379.94 60.67 468.61 148.494Z" />
</svg>