<svg xmlns="http://www.w3.org/2000/svg" fill="currentColor" viewBox="0 0 256 256"><path d="M210.35,129.36c-.81-.47-1.7-.92-2.62-1.36.92-.44,1.81-.89,2.62-1.36a40,40,0,1,0-40-69.28c-.81.47-1.65,1-2.48,1.59.08-1,.13-2,.13-3a40,40,0,0,0-80,0c0,.94,0,1.94.13,3-.83-.57-1.67-1.12-2.48-1.59a40,40,0,1,0-40,69.28c.81.47,1.7.92,2.62,1.36-.92.44-1.81.89-2.62,1.36a40,40,0,1,0,40,69.28c.81-.47,1.65-1,2.48-1.59-.08,1-.13,2-.13,2.95a40,40,0,0,0,80,0c0-.94-.05-1.94-.13-2.95.83.57,1.67,1.12,2.48,1.59A39.79,39.79,0,0,0,190.29,204a40.43,40.43,0,0,0,10.42-1.38,40,40,0,0,0,9.64-73.28ZM104,128a24,24,0,1,1,24,24A24,24,0,0,1,104,128Zm74.35-56.79a24,24,0,1,1,24,41.57c-6.27,3.63-18.61,6.13-35.16,7.19A40,40,0,0,0,154.53,98.1C163.73,84.28,172.08,74.84,178.35,71.21ZM128,32a24,24,0,0,1,24,24c0,7.24-4,19.19-11.36,34.06a39.81,39.81,0,0,0-25.28,0C108,75.19,104,63.24,104,56A24,24,0,0,1,128,32ZM44.86,80a24,24,0,0,1,32.79-8.79c6.27,3.63,14.62,13.07,23.82,26.89A40,40,0,0,0,88.81,120c-16.55-1.06-28.89-3.56-35.16-7.18A24,24,0,0,1,44.86,80ZM77.65,184.79a24,24,0,1,1-24-41.57c6.27-3.63,18.61-6.13,35.16-7.19a40,40,0,0,0,12.66,21.87C92.27,171.72,83.92,181.16,77.65,184.79ZM128,224a24,24,0,0,1-24-24c0-7.24,4-19.19,11.36-34.06a39.81,39.81,0,0,0,25.28,0C148,180.81,152,192.76,152,200A24,24,0,0,1,128,224Zm83.14-48a24,24,0,0,1-32.79,8.79c-6.27-3.63-14.62-13.07-23.82-26.89A40,40,0,0,0,167.19,136c16.55,1.06,28.89,3.56,35.16,7.18A24,24,0,0,1,211.14,176Z"></path></svg>