<svg xmlns="http://www.w3.org/2000/svg" fill="currentColor" viewBox="0 0 256 256"><path d="M223.85,47.12a16,16,0,0,0-15-15c-12.58-.75-44.73.4-71.41,27.07L132.69,64H74.36A15.91,15.91,0,0,0,63,68.68L28.7,103a16,16,0,0,0,9.07,27.16l38.47,5.37,44.21,44.21,5.37,38.49a15.94,15.94,0,0,0,10.78,12.92,16.11,16.11,0,0,0,5.1.83A15.91,15.91,0,0,0,153,227.3L187.32,193A15.91,15.91,0,0,0,192,181.64V123.31l4.77-4.77C223.45,91.86,224.6,59.71,223.85,47.12ZM74.36,80h42.33L77.16,119.52,40,114.34Zm74.41-9.45a76.65,76.65,0,0,1,59.11-22.47,76.46,76.46,0,0,1-22.42,59.16L128,164.68,91.32,128ZM176,181.64,141.67,216l-5.19-37.17L176,139.31Zm-74.16,9.5C97.34,201,82.29,224,40,224a8,8,0,0,1-8-8c0-42.29,23-57.34,32.86-61.85a8,8,0,0,1,6.64,14.56c-6.43,2.93-20.62,12.36-23.12,38.91,26.55-2.5,36-16.69,38.91-23.12a8,8,0,1,1,14.56,6.64Z"></path></svg>