<svg xmlns="http://www.w3.org/2000/svg" width="32" height="32" fill="currentColor" viewBox="0 0 256 256"><path d="M216,96A88,88,0,1,0,72,163.83V240a8,8,0,0,0,11.58,7.16L128,225l44.43,22.21A8.07,8.07,0,0,0,176,248a8,8,0,0,0,8-8V163.83A87.85,87.85,0,0,0,216,96ZM56,96a72,72,0,1,1,72,72A72.08,72.08,0,0,1,56,96ZM168,227.06l-36.43-18.21a8,8,0,0,0-7.16,0L88,227.06V174.37a87.89,87.89,0,0,0,80,0ZM128,152A56,56,0,1,0,72,96,56.06,56.06,0,0,0,128,152Zm0-96A40,40,0,1,1,88,96,40,40,0,0,1,128,56Z"></path></svg>