<svg viewBox="0 0 24 24" fill="none" xmlns="http://www.w3.org/2000/svg"><path d="M17.333 5.01c1.39-.224 2.796-.34 4.205-.346.121 0 .238.044.329.125.085.084.133.2.133.32v14a.453.453 0 0 1-.444.444C14.186 19.66 12 21.997 12 21.997m0 0V7.091m0 14.906s-2.187-2.337-9.556-2.444A.453.453 0 0 1 2 19.109v-14c0-.12.048-.236.133-.32a.489.489 0 0 1 .33-.125C9.822 4.762 12 7.091 12 7.091m0 0a5.511 5.511 0 0 1 1.458-3.05 6.924 6.924 0 0 1 3.235-2.017.534.534 0 0 1 .436.053.409.409 0 0 1 .204.356V16.31a7.271 7.271 0 0 0-3.875 2.186A5.333 5.333 0 0 0 12 21.562" stroke="currentColor" stroke-linecap="round" stroke-linejoin="round"/></svg>
