<svg viewBox="0 0 24 24" fill="none" xmlns="http://www.w3.org/2000/svg"><path d="M21.038 16.44v2.71a1.808 1.808 0 0 1-1.97 1.807 17.876 17.876 0 0 1-7.794-2.773 17.614 17.614 0 0 1-5.42-5.42 17.875 17.875 0 0 1-2.773-7.83 1.806 1.806 0 0 1 1.798-1.97h2.71a1.806 1.806 0 0 1 1.806 1.554 11.6 11.6 0 0 0 .632 2.538 1.805 1.805 0 0 1-.406 1.906l-1.147 1.147a14.452 14.452 0 0 0 5.42 5.42l1.146-1.148a1.806 1.806 0 0 1 1.906-.406c.82.305 1.671.518 2.538.632a1.807 1.807 0 0 1 1.554 1.833Z" stroke="currentColor" stroke-linecap="round" stroke-linejoin="round"/></svg>
