<svg xmlns="http://www.w3.org/2000/svg" fill="none" viewBox="0 0 24 24"><path fill="currentColor" fill-rule="evenodd" d="M16.457 22.06c-.623-3.072-1.435-5.923-2.496-8.63-3.412.865-5.972 3.14-8.886 7.117A10.954 10.954 0 0 0 12 23c1.587 0 3.095-.336 4.457-.94Zm1.38-.735a11.004 11.004 0 0 0 5.044-7.7c-2.978-.588-5.379-.742-7.421-.478.994 2.583 1.77 5.29 2.377 8.178ZM23 12.12V12c0-2.651-.938-5.083-2.5-6.983-1.833 2.115-3.915 3.574-6.585 4.575.34.7.662 1.406.966 2.122 2.31-.359 4.95-.207 8.118.406Zm-3.534-8.2A10.96 10.96 0 0 0 12 1a11 11 0 0 0-3.175.465 46.817 46.817 0 0 1 4.405 6.781c2.56-.932 4.505-2.295 6.235-4.326ZM7.358 2.025a11.016 11.016 0 0 0-6.193 8.064c4.467-.214 7.875-.61 10.613-1.378a45.71 45.71 0 0 0-4.42-6.686Zm-6.35 9.573c4.758-.22 8.46-.641 11.47-1.528.32.646.62 1.3.906 1.96-3.754 1.017-6.51 3.552-9.414 7.488a10.962 10.962 0 0 1-2.963-7.92Z" clip-rule="evenodd"></path></svg>