<svg xmlns="http://www.w3.org/2000/svg" viewBox="0 0 128 128" fill="currentColor">
	<path
		d="M117.3 87.3c.2-.6.4-1.3.5-1.9 7-28-10.1-61.2-39.2-78.6C91.4 24 97 44.9 92 63.2c-.4 1.6-1 3.2-1.6 4.7-.6-.4-1.5-.9-2.5-1.5 0 0-28.9-17.9-60.2-49.4-.9-.8 16.7 25 36.6 46.1-9.4-5.3-35.5-24.3-52-39.4 2 3.4 4.4 6.7 7.1 9.8C33.1 51 51.2 72.6 72.7 89.2c-15.2 9.3-36.6 10-57.9 0C9.5 86.7 4.6 83.7 0 80.3c9 14.4 22.9 26.9 39.9 34.2 20.2 8.7 40.3 8.1 55.2.1.1 0 .1-.1.2-.1.7-.4 1.3-.7 2-1.1 7.2-3.7 21.3-7.4 28.9 7.4 1.7 3.6 5.7-15.6-8.9-33.5z" />
</svg>