<svg xmlns="http://www.w3.org/2000/svg" viewBox="0 0 24 24"><g><path fill="currentColor" d="M7.28 12.75h1.44L8 10.73l-.72 2.02z"></path><path d="M19.83 0H4.17A4.19 4.19 0 0 0 0 4.17v15.66A4.19 4.19 0 0 0 4.17 24h15.66A4.19 4.19 0 0 0 24 19.83V4.17A4.19 4.19 0 0 0 19.83 0Zm-9.08 16.21a.73.73 0 0 1-.25 0 .75.75 0 0 1-.71-.5l-.47-1.33a.26.26 0 0 0-.24-.17H6.92a.26.26 0 0 0-.24.17l-.47 1.33a.75.75 0 0 1-1.42-.5l2.5-7a.75.75 0 0 1 1.42 0l2.5 7a.75.75 0 0 1-.46 1Zm3.5-.71a.75.75 0 0 1-1.5 0v-7a.75.75 0 0 1 1.5 0ZM19 11.25h-.5a.25.25 0 0 0-.25.25v3a.25.25 0 0 0 .25.25.75.75 0 0 1 0 1.5 1.76 1.76 0 0 1-1.75-1.75v-3a.25.25 0 0 0-.25-.25H16a.75.75 0 0 1 0-1.5h.5a.25.25 0 0 0 .25-.25v-1a.75.75 0 0 1 1.5 0v1a.25.25 0 0 0 .25.25h.5a.75.75 0 0 1 0 1.5Z" fill="currentColor"></path></g></svg>