<svg xmlns="http://www.w3.org/2000/svg" fill="none" viewBox="0 0 14 14">
    <path fill="currentColor" fill-rule="evenodd"
        d="M12.6386 0.0985955C12.7874 0.0483473 12.9459 0.0341004 13.1012 0.0570248C13.2566 0.0799495 13.4042 0.139392 13.5321 0.230469C13.66 0.321547 13.7645 0.441663 13.837 0.580955C13.9094 0.720246 13.9478 0.874739 13.949 1.03175L13.949 1.03542L13.949 11.0953C13.9478 11.2523 13.9094 11.4068 13.837 11.5461C13.7645 11.6854 13.66 11.8055 13.5321 11.8966C13.4042 11.9877 13.2566 12.0471 13.1012 12.07C12.9459 12.0929 12.7874 12.0787 12.6386 12.0285L12.634 12.0269L1.04902 7.98652C0.765478 7.8876 0.518418 7.70524 0.340369 7.46341C0.162321 7.22159 0.0615508 6.93158 0.051285 6.63145L0.0509949 6.61448V5.53045C0.0522212 5.22263 0.148816 4.92276 0.32748 4.67209C0.506144 4.42143 0.7581 4.2323 1.04868 4.13072L12.6386 0.0985955ZM2.02914 10.7685V9.6398L8.2278 11.8021C7.79859 13.0539 6.61147 13.9536 5.2142 13.9536C3.45514 13.9536 2.02914 12.5276 2.02914 10.7685Z"
        clip-rule="evenodd"></path>
</svg>