<svg xmlns="http://www.w3.org/2000/svg" fill="none" viewBox="0 0 14 14">
    <path fill="currentColor" fill-rule="evenodd"
        d="M3.5 0C1.567 0 0 1.567 0 3.5V10.5C0 12.433 1.567 14 3.5 14H10.5C12.433 14 14 12.433 14 10.5V3.5C14 1.567 12.433 0 10.5 0H3.5ZM6.60298 4.34532C6.53705 4.10358 6.33311 3.92458 6.08486 3.89055C5.83661 3.85653 5.59204 3.97406 5.4635 4.18915L4.1454 6.39477H2.5C2.15482 6.39477 1.875 6.67459 1.875 7.01977C1.875 7.36494 2.15482 7.64477 2.5 7.64477H4.5C4.71993 7.64477 4.92368 7.52917 5.0365 7.34038L5.78333 6.09068L6.89702 10.1742C6.96143 10.4104 7.1578 10.5872 7.39941 10.6266C7.64102 10.666 7.88339 10.5607 8.0195 10.3573L9.83387 7.64477H11.5C11.8452 7.64477 12.125 7.36494 12.125 7.01977C12.125 6.67459 11.8452 6.39477 11.5 6.39477H9.5C9.29137 6.39477 9.0965 6.49887 8.9805 6.67228L7.74241 8.52323L6.60298 4.34532Z"
        clip-rule="evenodd"></path>
</svg>