<svg xmlns="http://www.w3.org/2000/svg" fill="none" viewBox="0 0 14 14">
    <path fill="currentColor" fill-rule="evenodd"
        d="M9.25 2.25C9.25 3.22966 8.62389 4.06309 7.75 4.37197V4.75C7.75 5.14782 7.90804 5.52936 8.18934 5.81066C8.47064 6.09196 8.85218 6.25 9.25 6.25C10.0456 6.25 10.8087 6.56607 11.3713 7.12868C11.9339 7.69129 12.25 8.45435 12.25 9.25V9.62803C13.1239 9.93691 13.75 10.7703 13.75 11.75C13.75 12.9926 12.7426 14 11.5 14C10.2574 14 9.25 12.9926 9.25 11.75C9.25 10.7703 9.87611 9.93691 10.75 9.62803V9.25C10.75 8.85217 10.592 8.47064 10.3107 8.18934C10.0294 7.90803 9.64782 7.75 9.25 7.75C8.45435 7.75 7.69129 7.43393 7.12868 6.87132C7.08424 6.82688 7.04133 6.78118 7 6.73432C6.95867 6.78118 6.91576 6.82688 6.87132 6.87132C6.30871 7.43393 5.54565 7.75 4.75 7.75C4.35218 7.75 3.97064 7.90803 3.68934 8.18934C3.40804 8.47064 3.25 8.85217 3.25 9.25V9.62803C4.12389 9.93691 4.75 10.7703 4.75 11.75C4.75 12.9926 3.74264 14 2.5 14C1.25736 14 0.25 12.9926 0.25 11.75C0.25 10.7703 0.876106 9.93691 1.75 9.62803V9.25C1.75 8.45435 2.06607 7.69129 2.62868 7.12868C3.19129 6.56607 3.95435 6.25 4.75 6.25C5.14782 6.25 5.52936 6.09196 5.81066 5.81066C6.09196 5.52936 6.25 5.14782 6.25 4.75V4.37197C5.37611 4.06309 4.75 3.22966 4.75 2.25C4.75 1.00736 5.75736 0 7 0C8.24264 0 9.25 1.00736 9.25 2.25Z"
        clip-rule="evenodd"></path>
</svg>