<svg xmlns="http://www.w3.org/2000/svg" fill="none" viewBox="0 0 14 14">
    <path fill="currentColor" fill-rule="evenodd"
        d="M8.63507 0.153814C8.87878 0.0522763 9.1402 0 9.40422 0C9.66824 0 9.92965 0.0522763 10.1734 0.153814C10.4171 0.255351 10.6383 0.40414 10.8242 0.591597L10.8254 0.592774L13.4125 3.20984C13.598 3.39493 13.7454 3.61469 13.8462 3.85664C13.9477 4.10036 14 4.36177 14 4.6258C14 4.88982 13.9477 5.15123 13.8462 5.39495C13.745 5.63793 13.5968 5.85853 13.4101 6.0441L11.1113 8.34291C10.7208 8.73343 10.0876 8.73343 9.69711 8.34291C9.30658 7.95238 9.30658 7.31921 9.69711 6.92869L11.9971 4.62869L12 4.62579L11.993 4.61886L11.9931 4.61882L9.40422 2L9.40133 2.00291L9.40133 2.00291L7.07132 4.33291C6.68079 4.72343 6.04763 4.72343 5.6571 4.3329C5.26658 3.94238 5.26658 3.30921 5.65711 2.91869L7.9859 0.589901C8.17148 0.403243 8.39208 0.255045 8.63507 0.153814ZM4.3329 5.62699C4.72343 6.01752 4.72343 6.65068 4.33291 7.04121L2.00291 9.37125L2.00001 9.37415L2.00291 9.37703L2.00291 9.37704L4.6229 11.997L4.6258 11.9999L4.62869 11.997L4.62869 11.997L6.95869 9.66706C7.34922 9.27654 7.98239 9.27654 8.37291 9.66706C8.76343 10.0576 8.76343 10.6908 8.3729 11.0813L6.0441 13.4101C5.85852 13.5967 5.63793 13.7449 5.39495 13.8461C5.15123 13.9477 4.88982 13.9999 4.6258 13.9999C4.36177 13.9999 4.10036 13.9477 3.85664 13.8461C3.61365 13.7449 3.39304 13.5967 3.20746 13.41L0.589943 10.7925C0.403265 10.6069 0.255053 10.3863 0.153814 10.1433C0.0522763 9.89958 0 9.63817 0 9.37414C0 9.11012 0.0522763 8.84871 0.153814 8.60499C0.255046 8.36201 0.403244 8.1414 0.589904 7.95583L2.91869 5.62701C3.30921 5.23648 3.94237 5.23647 4.3329 5.62699ZM9.20711 6.20717C9.59763 5.81664 9.59763 5.18348 9.20711 4.79295C8.81658 4.40243 8.18342 4.40243 7.79289 4.79295L4.79289 7.79295C4.40237 8.18348 4.40237 8.81664 4.79289 9.20717C5.18342 9.59769 5.81658 9.59769 6.20711 9.20717L9.20711 6.20717Z"
        clip-rule="evenodd"></path>
</svg>