<svg xmlns="http://www.w3.org/2000/svg" fill="none" viewBox="0 0 14 14">
    <path fill="currentColor" fill-rule="evenodd"
        d="M7 0.276855C6.80157 0.276855 6.60728 0.333623 6.44007 0.440458C6.27499 0.545928 6.1431 0.695846 6.05952 0.872901L4.47196 4.07799C4.46884 4.08429 4.46585 4.09065 4.463 4.09708C4.46229 4.09867 4.46117 4.10006 4.45976 4.10109C4.45835 4.10212 4.4567 4.10277 4.45496 4.10296C4.44887 4.10363 4.44279 4.10442 4.43673 4.10532L0.941149 4.62318C0.747945 4.64197 0.563705 4.71447 0.40939 4.83267C0.249718 4.95498 0.128936 5.12096 0.0616758 5.31051C-0.00558436 5.50006 -0.0164375 5.70505 0.0304316 5.90065C0.0771192 6.09548 0.179088 6.27267 0.324054 6.41092L2.88283 8.87974L2.88279 8.87979L2.88866 8.88527C2.89231 8.88869 2.89506 8.89296 2.89664 8.89771C2.89822 8.90245 2.89859 8.90752 2.89771 8.91244L2.89715 8.91571L2.28741 12.4841L2.28726 12.485C2.25376 12.6784 2.27512 12.8773 2.34893 13.0591C2.42284 13.2413 2.5464 13.399 2.70553 13.5144C2.86467 13.6297 3.05299 13.6981 3.24907 13.7117C3.44476 13.7253 3.64034 13.6838 3.81364 13.592L3.8137 13.5919L3.81469 13.5914L6.96417 11.9269C6.97546 11.922 6.98767 11.9194 7.00002 11.9194C7.01237 11.9194 7.02457 11.922 7.03587 11.9269L10.1853 13.5914L10.1859 13.5917C10.3593 13.6838 10.5551 13.7254 10.7509 13.7117C10.947 13.6981 11.1353 13.6297 11.2945 13.5144C11.4536 13.399 11.5772 13.2413 11.6511 13.0591C11.7249 12.8773 11.7462 12.6785 11.7128 12.4852L11.7126 12.4841L11.1029 8.9157L11.1023 8.91244C11.1014 8.90752 11.1018 8.90245 11.1034 8.89771C11.1049 8.89297 11.1077 8.88869 11.1113 8.88527L11.1114 8.88532L11.1172 8.87974L13.676 6.41089C13.8209 6.27264 13.9229 6.09547 13.9696 5.90065C14.0164 5.70505 14.0056 5.50006 13.9383 5.31051C13.8711 5.12096 13.7503 4.95498 13.5906 4.83267C13.4363 4.71447 13.2521 4.64197 13.0589 4.62318L9.56328 4.10532C9.55722 4.10442 9.55114 4.10363 9.54505 4.10296C9.54331 4.10277 9.54165 4.10212 9.54024 4.10109C9.53883 4.10006 9.53772 4.09867 9.53701 4.09708C9.53416 4.09065 9.53117 4.08429 9.52805 4.07799L7.94048 0.872887C7.8569 0.695838 7.72501 0.545925 7.55994 0.440458C7.39272 0.333623 7.19843 0.276855 7 0.276855Z"
        clip-rule="evenodd"></path>
</svg>