<svg xmlns="http://www.w3.org/2000/svg" fill="none" viewBox="0 0 14 14">
    <path fill="currentColor" fill-rule="evenodd"
        d="M4.5 1C4.5 0.447715 4.05228 0 3.5 0C2.94772 0 2.5 0.447715 2.5 1V2H1.5C0.671573 2 0 2.67157 0 3.5V12.5C0 13.3284 0.671573 14 1.5 14H12.5C13.3284 14 14 13.3284 14 12.5V3.5C14 2.67157 13.3284 2 12.5 2H11.5001V1C11.5001 0.447715 11.0524 0 10.5001 0C9.94784 0 9.50012 0.447715 9.50012 1V2H4.5V1ZM7.62492 6.00037C7.62492 5.65519 7.3451 5.37537 6.99992 5.37537C6.65474 5.37537 6.37492 5.65519 6.37492 6.00037C6.37492 6.27647 6.15109 6.50031 5.87498 6.50031H5.5C5.15482 6.50031 4.875 6.78013 4.875 7.12531C4.875 7.47048 5.15482 7.75031 5.5 7.75031H5.87498C6.0487 7.75031 6.21651 7.72499 6.37492 7.67785V9.87512H5.50008C5.1549 9.87512 4.87508 10.1549 4.87508 10.5001C4.87508 10.8453 5.1549 11.1251 5.50008 11.1251H8.49992C8.8451 11.1251 9.12492 10.8453 9.12492 10.5001C9.12492 10.1549 8.8451 9.87512 8.49992 9.87512H7.62492V6.00037Z"
        clip-rule="evenodd"></path>
</svg>