<svg xmlns="http://www.w3.org/2000/svg" fill="none" viewBox="0 0 14 14">
    <path fill="currentColor" fill-rule="evenodd"
        d="M11.8214 0.0977942C12.1097 -0.00745677 12.4219 -0.0286524 12.7219 0.0367783C13.0248 0.102864 13.3024 0.254542 13.5216 0.47378C13.7408 0.693018 13.8925 0.970598 13.9586 1.27352C14.024 1.57344 14.0028 1.88572 13.8976 2.17395L10.3236 12.8859L10.3234 12.8866C10.2363 13.1501 10.083 13.3868 9.8781 13.574C9.6738 13.7606 9.42509 13.8918 9.15572 13.9549C8.8863 14.0206 8.60441 14.0151 8.33774 13.9389C8.07131 13.8628 7.82926 13.7187 7.63529 13.5209L5.71795 11.6124L3.70389 12.6538C3.54684 12.7351 3.35857 12.7273 3.20874 12.6334C3.05892 12.5395 2.96981 12.3735 2.9744 12.1967L3.05697 9.013L10.1019 3.8956C10.3812 3.69273 10.4432 3.30188 10.2403 3.02261C10.0374 2.74333 9.64659 2.68139 9.36731 2.88425L2.20283 8.08846L0.473125 6.35875L0.473067 6.3587L0.472941 6.35857C0.285618 6.17138 0.147716 5.9406 0.0716193 5.68694C-0.00393616 5.43509 -0.0162115 5.16853 0.0358379 4.91085C0.0879545 4.62934 0.213796 4.36664 0.400577 4.14957C0.588637 3.93101 0.83165 3.76664 1.1045 3.67345L1.10787 3.6723L1.10787 3.67231L11.8214 0.0977942Z"
        clip-rule="evenodd"></path>
</svg>