<svg xmlns="http://www.w3.org/2000/svg" viewBox="0 0 24 24"><g><path d="M1.25 17h3.5a.25.25 0 0 0 .25-.25v-2a1 1 0 0 0-1-1H2a1 1 0 0 0-1 1v2a.25.25 0 0 0 .25.25Z" fill="currentColor"></path><path d="M8 8.75a1 1 0 0 0-1 1v7a.25.25 0 0 0 .25.25h3.5a.25.25 0 0 0 .25-.25v-7a1 1 0 0 0-1-1Z" fill="currentColor"></path><path d="M14 10.75a1 1 0 0 0-1 1v5a.25.25 0 0 0 .25.25h3.5a.25.25 0 0 0 .25-.25v-5a1 1 0 0 0-1-1Z" fill="currentColor"></path><path d="M19.25 17h3.5a.25.25 0 0 0 .25-.25v-12a1 1 0 0 0-1-1h-2a1 1 0 0 0-1 1v12a.25.25 0 0 0 .25.25Z" fill="currentColor"></path><path d="M1 20.25h22a1 1 0 0 0 1-1 1 1 0 0 0-.56-.9 1.05 1.05 0 0 0-.44-.1H1a1.05 1.05 0 0 0-.44.1 1 1 0 0 0-.56.9 1 1 0 0 0 1 1Z" fill="currentColor"></path></g></svg>