<svg xmlns="http://www.w3.org/2000/svg" fill="none" viewBox="0 0 14 14">
    <path fill="currentColor" fill-rule="evenodd"
        d="M1.8976 10.7776C1.50707 11.1682 0.873908 11.1682 0.483384 10.7776C0.0928596 10.3871 0.0928596 9.75394 0.483384 9.36342L3.81584 6.03097L3.8158 6.03093L3.82294 6.02393C4.09521 5.75706 4.46125 5.60758 4.84249 5.60758C5.22374 5.60758 5.58978 5.75706 5.86204 6.02393L5.86208 6.02389L5.86915 6.03097L7.57032 7.73214L9.91702 5.24969L8.87717 4.20984C8.66267 3.99534 8.59851 3.67275 8.71459 3.3925C8.83068 3.11224 9.10415 2.92951 9.4075 2.92951H13.0595C13.4737 2.92951 13.8095 3.2653 13.8095 3.67951V7.33151C13.8095 7.63486 13.6268 7.90834 13.3465 8.02442C13.0663 8.14051 12.7437 8.07634 12.5292 7.86184L11.3318 6.66446L8.62774 9.52493C8.61902 9.53416 8.61012 9.54323 8.60105 9.55212C8.32879 9.81899 7.96274 9.96847 7.5815 9.96847C7.20025 9.96847 6.83421 9.81899 6.56195 9.55212L6.56191 9.55215L6.55484 9.54508L4.84249 7.83274L1.8976 10.7776Z"
        clip-rule="evenodd"></path>
</svg>