<svg xmlns="http://www.w3.org/2000/svg" fill="none" viewBox="0 0 14 14">
    <path fill="currentColor" fill-rule="evenodd"
        d="M10.4758 2.89318C10.0985 2.48989 9.46568 2.46884 9.06239 2.84617C8.6591 3.2235 8.63806 3.85631 9.01539 4.2596L11.5794 6.99999L9.01539 9.74037C8.63806 10.1437 8.6591 10.7765 9.06239 11.1538C9.46568 11.5311 10.0985 11.5101 10.4758 11.1068L13.679 7.6832C14.0387 7.29874 14.0387 6.70123 13.679 6.31678L10.4758 2.89318ZM4.98463 4.25963C5.36196 3.85634 5.34091 3.22353 4.93762 2.8462C4.53433 2.46887 3.90152 2.48992 3.52419 2.89321L0.320988 6.31681C-0.0387181 6.70126 -0.0387181 7.29877 0.320988 7.68323L3.52419 11.1068C3.90152 11.5101 4.53433 11.5312 4.93762 11.1538C5.34091 10.7765 5.36196 10.1437 4.98463 9.7404L2.42066 7.00002L4.98463 4.25963Z"
        clip-rule="evenodd"></path>
</svg>