<svg xmlns="http://www.w3.org/2000/svg" viewBox="0 0 24 24"><g><path d="M8.25 11.25h7.5A1.76 1.76 0 0 0 17.5 9.5V2A1.76 1.76 0 0 0 15.75.25h-7.5A1.76 1.76 0 0 0 6.5 2v7.5a1.76 1.76 0 0 0 1.75 1.75ZM8.75 5V4a1.5 1.5 0 0 1 1.5-1.5h1a.5.5 0 0 1 0 1h-1a.5.5 0 0 0-.5.5v1a.5.5 0 0 1-1 0Z" fill="currentColor"></path><path d="M9.25 12.75h-7.5A1.76 1.76 0 0 0 0 14.5V22a1.76 1.76 0 0 0 1.75 1.75h7.5A1.76 1.76 0 0 0 11 22v-7.5a1.76 1.76 0 0 0-1.75-1.75Zm-4 2.75a.5.5 0 0 1-.5.5h-1a.5.5 0 0 0-.5.5v1a.5.5 0 0 1-1 0v-1a1.5 1.5 0 0 1 1.5-1.5h1a.5.5 0 0 1 .5.5Z" fill="currentColor"></path><path d="M22.25 12.75h-7.5A1.76 1.76 0 0 0 13 14.5V22a1.76 1.76 0 0 0 1.75 1.75h7.5A1.76 1.76 0 0 0 24 22v-7.5a1.76 1.76 0 0 0-1.75-1.75Zm-4 2.75a.5.5 0 0 1-.5.5h-1a.5.5 0 0 0-.5.5v1a.5.5 0 0 1-1 0v-1a1.5 1.5 0 0 1 1.5-1.5h1a.5.5 0 0 1 .5.5Z" fill="currentColor"></path></g></svg>