<svg xmlns="http://www.w3.org/2000/svg" fill="none" viewBox="0 0 14 14">
    <path fill="currentColor" fill-rule="evenodd"
        d="M10.1346 1.71063C10.1347 1.29642 9.79903 0.960522 9.38481 0.960388C8.9706 0.960255 8.63471 1.29593 8.63457 1.71015C8.63448 1.99825 8.55824 2.28122 8.41357 2.53037C8.30374 2.71951 8.15745 2.88406 7.9839 3.01488C7.66564 2.95216 7.33666 2.91928 7.00001 2.91928C6.66337 2.91928 6.33441 2.95216 6.01617 3.01487C5.84263 2.88405 5.69634 2.71951 5.58652 2.53037C5.44185 2.28122 5.36561 1.99825 5.36551 1.71015C5.36538 1.29593 5.02948 0.960255 4.61527 0.960388C4.20106 0.960522 3.86538 1.29642 3.86551 1.71063C3.86569 2.26313 4.0119 2.80577 4.28933 3.28357C4.35012 3.38826 4.41673 3.48901 4.48874 3.58542C4.01125 3.8589 3.58261 4.20797 3.21912 4.61631C2.99273 4.44878 2.74883 4.30483 2.49112 4.18724C1.95972 3.94478 1.38218 3.82013 0.798084 3.82183C0.383873 3.82303 0.0490642 4.15979 0.0502689 4.574C0.0514737 4.98821 0.388235 5.32302 0.802447 5.32182C1.17022 5.32075 1.53387 5.39924 1.86846 5.5519C2.05754 5.63818 2.23482 5.74699 2.3966 5.87557C2.2123 6.27818 2.07926 6.70916 2.00584 7.16016H0.800266C0.386052 7.16016 0.0502658 7.49594 0.0502658 7.91016C0.0502658 8.32437 0.386052 8.66016 0.800266 8.66016H1.98525C2.04747 9.12294 2.17226 9.56591 2.35082 9.98025C2.20156 10.0934 2.03986 10.1902 1.86846 10.2684C1.53387 10.421 1.17022 10.4995 0.802447 10.4985C0.388235 10.4973 0.0514737 10.8321 0.0502689 11.2463C0.0490642 11.6605 0.383873 11.9972 0.798084 11.9984C1.38218 12.0001 1.95972 11.8755 2.49112 11.633C2.72096 11.5282 2.93982 11.4023 3.14507 11.2575C4.07322 12.3479 5.45584 13.0396 7.00001 13.0396C8.54419 13.0396 9.92681 12.3479 10.855 11.2575C11.0602 11.4023 11.2791 11.5282 11.5089 11.633C12.0403 11.8755 12.6179 12.0001 13.202 11.9984C13.6162 11.9972 13.951 11.6605 13.9498 11.2463C13.9486 10.8321 13.6118 10.4973 13.1976 10.4985C12.8298 10.4995 12.4662 10.421 12.1316 10.2684C11.9602 10.1902 11.7985 10.0934 11.6492 9.98024C11.8278 9.5659 11.9525 9.12294 12.0148 8.66016H13.1998C13.614 8.66016 13.9498 8.32437 13.9498 7.91016C13.9498 7.49594 13.614 7.16016 13.1998 7.16016H11.9942C11.9208 6.70917 11.7877 6.27819 11.6034 5.87558C11.7652 5.74699 11.9425 5.63818 12.1316 5.5519C12.4662 5.39924 12.8298 5.32075 13.1976 5.32182C13.6118 5.32302 13.9486 4.98821 13.9498 4.574C13.951 4.15979 13.6162 3.82303 13.202 3.82183C12.6179 3.82013 12.0403 3.94478 11.5089 4.18724C11.2512 4.30483 11.0073 4.44879 10.7809 4.61632C10.4174 4.20799 9.9888 3.85893 9.51133 3.58545C9.58334 3.48903 9.64996 3.38827 9.71075 3.28357C9.98818 2.80577 10.1344 2.26313 10.1346 1.71063ZM7.00001 4.41928C8.42373 4.41928 9.65226 5.25499 10.2218 6.46262H3.77822C4.34776 5.25499 5.57629 4.41928 7.00001 4.41928Z"
        clip-rule="evenodd"></path>
</svg>