<svg xmlns="http://www.w3.org/2000/svg" viewBox="0 0 48 48" fill="#fff">
  <path
    d="M28.09 0c.49 0 .97.4.97.97v10.85l7.61-7.69c.4-.4 1.05-.4 1.38 0l5.83 5.83c.32.32.4.97 0 1.3v.08l-7.69 7.61h10.85c.57 0 .97.4.97.97v8.18c0 .57-.4.97-.97.97H36.19l7.69 7.61c.32.4.4 1.05 0 1.38l-5.83 5.83c-.32.32-.97.4-1.3 0h-.08l-7.61-7.69v10.85c0 .57-.4.97-.97.97h-8.18c-.57 0-.97-.4-.97-.97v-5.67c0-1.78.73-3.48 1.94-4.78L31.4 26.08c1.13-1.13 1.13-2.99 0-4.13L20.96 11.51a6.763 6.763 0 01-2.02-4.78V.97c0-.57.4-.97.97-.97h8.18zM11.17 4.21h.08l17.73 17.73c1.13 1.13 1.13 2.99 0 4.13L11.25 43.88c-.32.4-.97.4-1.38 0l-5.75-5.67c-.32-.4-.4-.97 0-1.38l7.69-7.77H.97c-.57 0-.97-.4-.97-.97v-8.18c0-.57.4-.97.97-.97h10.85l-7.69-7.61c-.32-.4-.32-.97 0-1.38L9.88 4.2c.32-.4.97-.4 1.3 0z" />
</svg>