<svg xmlns="http://www.w3.org/2000/svg" viewBox="0 0 175.5 48" fill="#fff">
  <path
    d="M28.09 0c.49 0 .97.4.97.97v10.85l7.61-7.69c.4-.4 1.05-.4 1.38 0l5.83 5.83c.32.32.4.97 0 1.3v.08l-7.69 7.61h10.85c.57 0 .97.4.97.97v8.18c0 .57-.4.97-.97.97H36.19l7.69 7.61c.32.4.4 1.05 0 1.38l-5.83 5.83c-.32.32-.97.4-1.3 0h-.08l-7.61-7.69v10.85c0 .57-.4.97-.97.97h-8.18c-.57 0-.97-.4-.97-.97v-5.67c0-1.78.73-3.48 1.94-4.78L31.4 26.08c1.13-1.13 1.13-2.99 0-4.13L20.96 11.51a6.763 6.763 0 01-2.02-4.78V.97c0-.57.4-.97.97-.97h8.18zM11.17 4.21h.08l17.73 17.73c1.13 1.13 1.13 2.99 0 4.13L11.25 43.88c-.32.4-.97.4-1.38 0l-5.75-5.67c-.32-.4-.4-.97 0-1.38l7.69-7.77H.97c-.57 0-.97-.4-.97-.97v-8.18c0-.57.4-.97.97-.97h10.85l-7.69-7.61c-.32-.4-.32-.97 0-1.38L9.88 4.2c.32-.4.97-.4 1.3 0z" />
  <path
    d="M79.43 16.38c-.13-1.22-.68-2.17-1.65-2.85-.96-.68-2.2-1.02-3.74-1.02-1.08 0-2 .16-2.78.49-.77.33-1.36.77-1.77 1.32s-.62 1.19-.63 1.91c0 .6.13 1.11.4 1.55.28.44.66.81 1.13 1.12.47.3 1 .55 1.58.75.58.2 1.16.38 1.74.52l2.68.67c1.08.25 2.12.59 3.11 1.02 1 .43 1.9.97 2.69 1.62.8.65 1.43 1.44 1.9 2.36.46.92.7 2 .7 3.24 0 1.67-.43 3.15-1.28 4.42-.86 1.26-2.09 2.25-3.71 2.97-1.61.71-3.56 1.06-5.84 1.06s-4.15-.34-5.79-1.03c-1.63-.69-2.9-1.69-3.82-3.01-.91-1.32-1.4-2.93-1.48-4.83h5.09c.07.99.38 1.82.92 2.48.54.66 1.24 1.15 2.11 1.48.87.33 1.85.49 2.93.49s2.11-.17 2.96-.5c.86-.34 1.52-.82 2.01-1.42.48-.61.73-1.33.74-2.15 0-.74-.23-1.36-.66-1.84-.43-.49-1.03-.9-1.8-1.23-.76-.33-1.65-.63-2.68-.89l-3.25-.84c-2.35-.6-4.21-1.52-5.58-2.75-1.36-1.24-2.04-2.88-2.04-4.92 0-1.68.46-3.16 1.37-4.42.92-1.26 2.17-2.25 3.75-2.94 1.58-.71 3.37-1.06 5.37-1.06s3.8.35 5.33 1.06c1.53.7 2.74 1.67 3.61 2.91.87 1.24 1.32 2.66 1.35 4.27h-4.98zm18.32 21.13c-2.14 0-3.97-.47-5.51-1.41-1.52-.94-2.7-2.24-3.53-3.89-.82-1.66-1.23-3.58-1.23-5.75s.42-4.1 1.26-5.76c.84-1.67 2.02-2.98 3.54-3.9 1.53-.94 3.35-1.41 5.44-1.41 1.74 0 3.28.32 4.62.96 1.35.63 2.42 1.53 3.22 2.69.8 1.15 1.26 2.5 1.37 4.04h-4.83c-.2-1.03-.66-1.89-1.39-2.58-.73-.7-1.7-1.05-2.91-1.05-1.03 0-1.94.28-2.72.84-.78.55-1.39 1.34-1.83 2.37-.43 1.03-.64 2.27-.64 3.71s.21 2.71.64 3.77c.43 1.04 1.03 1.85 1.8 2.41.78.56 1.7.84 2.75.84.74 0 1.41-.14 1.99-.42.59-.29 1.09-.7 1.49-1.24.4-.54.67-1.19.82-1.97h4.83c-.12 1.52-.57 2.86-1.34 4.03-.77 1.16-1.82 2.07-3.15 2.73-1.33.65-2.89.98-4.69.98zm18.7.01c-1.36 0-2.58-.24-3.67-.73a6.008 6.008 0 01-2.57-2.18c-.62-.96-.93-2.14-.93-3.54 0-1.21.22-2.21.67-3a5.29 5.29 0 011.83-1.9c.77-.47 1.64-.83 2.61-1.07.98-.25 1.99-.43 3.03-.54 1.26-.13 2.27-.25 3.05-.35.78-.11 1.35-.28 1.7-.5.36-.23.54-.59.54-1.07v-.08c0-1.05-.31-1.86-.93-2.44-.62-.58-1.52-.86-2.69-.86-1.24 0-2.22.27-2.94.81-.72.54-1.2 1.18-1.45 1.91l-4.71-.67c.37-1.3.99-2.39 1.84-3.26.86-.88 1.9-1.54 3.14-1.98 1.24-.45 2.6-.67 4.1-.67 1.03 0 2.06.12 3.08.36s1.96.64 2.8 1.2c.85.55 1.52 1.3 2.04 2.25s.78 2.13.78 3.56v14.34h-4.85v-2.94h-.17c-.31.59-.74 1.15-1.3 1.67-.55.51-1.24.93-2.08 1.24-.83.31-1.8.46-2.91.46zm1.31-3.71c1.01 0 1.89-.2 2.64-.6.74-.41 1.32-.95 1.72-1.62.41-.67.61-1.4.61-2.19v-2.52c-.16.13-.43.25-.81.36-.37.11-.79.21-1.26.29-.46.08-.93.16-1.38.22-.46.07-.85.12-1.19.17-.75.1-1.43.27-2.02.5-.59.23-1.06.56-1.41.98-.34.41-.52.94-.52 1.59 0 .93.34 1.63 1.02 2.11.68.47 1.54.71 2.59.71zM137.1 8.53v28.56h-5.05V8.53h5.05zm10.57 28.99c-1.36 0-2.58-.24-3.67-.73a6.008 6.008 0 01-2.57-2.18c-.62-.96-.93-2.14-.93-3.54 0-1.21.22-2.21.67-3a5.29 5.29 0 011.83-1.9c.77-.47 1.64-.83 2.61-1.07.98-.25 1.99-.43 3.03-.54 1.26-.13 2.27-.25 3.05-.35.78-.11 1.35-.28 1.7-.5.36-.23.54-.59.54-1.07v-.08c0-1.05-.31-1.86-.93-2.44-.62-.58-1.52-.86-2.69-.86-1.24 0-2.22.27-2.94.81-.72.54-1.2 1.18-1.45 1.91l-4.71-.67c.37-1.3.99-2.39 1.84-3.26.86-.88 1.9-1.54 3.14-1.98 1.24-.45 2.6-.67 4.1-.67 1.03 0 2.06.12 3.08.36s1.96.64 2.8 1.2c.85.55 1.52 1.3 2.04 2.25s.78 2.13.78 3.56v14.34h-4.85v-2.94h-.17c-.31.59-.74 1.15-1.3 1.67-.55.51-1.24.93-2.08 1.24-.83.31-1.8.46-2.91.46zm1.31-3.71c1.01 0 1.89-.2 2.64-.6.74-.41 1.32-.95 1.72-1.62.41-.67.61-1.4.61-2.19v-2.52c-.16.13-.43.25-.81.36-.37.11-.79.21-1.26.29-.46.08-.93.16-1.38.22-.46.07-.85.12-1.19.17-.75.1-1.43.27-2.02.5-.59.23-1.06.56-1.41.98-.34.41-.52.94-.52 1.59 0 .93.34 1.63 1.02 2.11.68.47 1.54.71 2.59.71zm14.29 3.28V15.67h4.9v3.57h.22c.39-1.24 1.06-2.19 2.01-2.86.96-.68 2.05-1.02 3.28-1.02.28 0 .59.01.93.04.35.02.65.05.88.1v4.64c-.21-.07-.55-.14-1.02-.2-.46-.07-.9-.1-1.33-.1-.92 0-1.75.2-2.48.6-.73.39-1.3.93-1.72 1.63-.42.7-.63 1.5-.63 2.41v12.59h-5.05z" />
</svg>