<svg xmlns="http://www.w3.org/2000/svg" viewBox="0 0 24 24" fill="#ffffff">
  <path d="M14.044.061c.243 0 .486.202.486.486V5.97l3.804-3.845c.202-.202.526-.202.688 0l2.914 2.914c.162.162.202.486 0 .648v.04l-3.845 3.804h5.423c.283 0 .486.202.486.486v4.088a.468.468 0 01-.486.486h-5.423l3.845 3.804c.162.202.202.526 0 .688l-2.914 2.914c-.162.162-.486.202-.648 0h-.04l-3.804-3.845v5.423a.468.468 0 01-.486.486H9.956a.468.468 0 01-.486-.486v-2.833c0-.89.364-1.74.971-2.388l5.261-5.261a1.465 1.465 0 000-2.064l-5.221-5.221A3.4 3.4 0 019.469 3.42V.546c0-.283.202-.486.486-.486h4.088zM5.585 2.165h.04l8.863 8.863a1.465 1.465 0 010 2.064l-8.863 8.904c-.162.202-.486.202-.688 0l-2.874-2.833c-.162-.202-.202-.486 0-.688l3.845-3.885H.486A.468.468 0 010 14.104v-4.088c0-.283.202-.486.486-.486h5.423L2.064 5.726a.548.548 0 010-.688l2.874-2.874a.422.422 0 01.648 0z"/>
</svg>
