<svg xmlns="http://www.w3.org/2000/svg" viewBox="0 0 83 24" fill="#ffffff">
  <path d="M14.044.061c.243 0 .486.202.486.486V5.97l3.804-3.845c.202-.202.526-.202.688 0l2.914 2.914c.162.162.202.486 0 .648v.04l-3.845 3.804h5.423c.283 0 .486.202.486.486v4.088a.468.468 0 01-.486.486h-5.423l3.845 3.804c.162.202.202.526 0 .688l-2.914 2.914c-.162.162-.486.202-.648 0h-.04l-3.804-3.845v5.423a.468.468 0 01-.486.486H9.956a.468.468 0 01-.486-.486v-2.833c0-.89.364-1.74.971-2.388l5.261-5.261a1.465 1.465 0 000-2.064l-5.221-5.221A3.4 3.4 0 019.469 3.42V.546c0-.283.202-.486.486-.486h4.088zM5.585 2.165h.04l8.863 8.863a1.465 1.465 0 010 2.064l-8.863 8.904c-.162.202-.486.202-.688 0l-2.874-2.833c-.162-.202-.202-.486 0-.688l3.845-3.885H.486A.468.468 0 010 14.104v-4.088c0-.283.202-.486.486-.486h5.423L2.064 5.726a.548.548 0 010-.688l2.874-2.874a.422.422 0 01.648 0z" />
  <path d="M35.232 18.728c-1.576 0-2.834-.361-3.775-1.086-.94-.723-1.428-1.779-1.463-3.168h2.61c.047.662.312 1.159.795 1.49s1.085.496 1.806.496c.715 0 1.291-.154 1.728-.461.437-.309.654-.711.654-1.209 0-.451-.197-.797-.593-1.037s-.951-.448-1.666-.624l-1.441-.36c-1.107-.27-1.975-.693-2.602-1.27s-.94-1.34-.94-2.29c0-.791.212-1.482.637-2.074s1.008-1.052 1.749-1.38 1.586-.492 2.536-.492c.967 0 1.811.166 2.531.497s1.283.791 1.688 1.38.612 1.267.624 2.035h-2.593c-.047-.527-.271-.935-.672-1.222s-.937-.431-1.604-.431c-.686 0-1.214.142-1.586.426s-.558.646-.558 1.085c0 .486.209.85.628 1.09s.907.428 1.463.562l1.187.29c.732.17 1.395.415 1.986.734s1.061.732 1.406 1.239c.346.506.519 1.126.519 1.858 0 1.189-.443 2.141-1.331 2.852-.888.713-2.129 1.068-3.723 1.068zM46.193 18.728c-.99 0-1.845-.212-2.562-.637s-1.271-1.017-1.661-1.775c-.39-.759-.584-1.643-.584-2.65 0-1.013.194-1.901.584-2.663.391-.762.943-1.355 1.661-1.78s1.572-.637 2.562-.637c1.166 0 2.139.292 2.918.875s1.263 1.381 1.45 2.395l-2.452.457c-.111-.51-.327-.913-.646-1.208s-.733-.444-1.243-.444c-.703 0-1.236.277-1.6.831s-.545 1.276-.545 2.166c0 .879.182 1.599.545 2.157.363.561.896.84 1.6.84.51 0 .929-.154 1.257-.461.328-.309.545-.726.65-1.253l2.452.448c-.188 1.037-.671 1.854-1.45 2.447-.779.596-1.758.893-2.936.893zM54.947 18.728c-.938 0-1.717-.247-2.338-.742s-.932-1.229-.932-2.202c0-.732.176-1.307.527-1.723s.809-.721 1.371-.914 1.166-.319 1.811-.377c.844-.082 1.451-.168 1.824-.259.371-.091.558-.297.558-.62v-.044c0-.416-.134-.738-.399-.967-.268-.229-.646-.343-1.139-.343-.51 0-.92.11-1.23.33s-.519.488-.624.804l-2.417-.404a3.39 3.39 0 011.508-1.978c.752-.469 1.677-.703 2.772-.703.703 0 1.372.111 2.009.334.635.223 1.153.579 1.555 1.068s.603 1.132.603 1.929v6.618H57.91v-1.362h-.088c-.24.457-.598.831-1.072 1.12-.475.291-1.075.436-1.802.436zm.747-1.855c.615 0 1.117-.179 1.507-.536s.585-.797.585-1.318v-1.063c-.105.076-.276.143-.515.198a15.212 15.212 0 01-1.437.25c-.486.07-.879.208-1.178.413s-.448.504-.448.896c0 .381.139.67.418.866.277.196.634.294 1.067.294zM64.933 5.439v13.095h-2.637V5.439h2.637zM69.556 18.728c-.938 0-1.717-.247-2.338-.742s-.932-1.229-.932-2.202c0-.732.176-1.307.527-1.723s.809-.721 1.371-.914 1.166-.319 1.811-.377c.844-.082 1.451-.168 1.824-.259.371-.091.558-.297.558-.62v-.044c0-.416-.134-.738-.399-.967-.268-.229-.646-.343-1.139-.343-.51 0-.92.11-1.23.33s-.519.488-.624.804l-2.417-.404a3.39 3.39 0 011.508-1.978c.752-.469 1.677-.703 2.772-.703.703 0 1.372.111 2.009.334.635.223 1.153.579 1.555 1.068s.603 1.132.603 1.929v6.618h-2.496v-1.362h-.088c-.24.457-.598.831-1.072 1.12-.475.291-1.075.436-1.802.436zm.747-1.855c.615 0 1.117-.179 1.507-.536s.585-.797.585-1.318v-1.063c-.105.076-.276.143-.515.198a15.212 15.212 0 01-1.437.25c-.486.07-.879.208-1.178.413s-.448.504-.448.896c0 .381.139.67.418.866.277.196.634.294 1.067.294zM76.903 18.534V8.708h2.549v1.714h.105c.182-.604.484-1.062.91-1.375a2.4 2.4 0 011.463-.47c.299 0 .583.029.853.088v2.355c-.117-.035-.289-.066-.515-.092s-.435-.04-.628-.04c-.609 0-1.112.19-1.507.571-.396.381-.594.876-.594 1.485v5.59h-2.637z" />
</svg>
