<svg xmlns="http://www.w3.org/2000/svg" width="529" height="288" fill="none" viewBox="0 0 529 288"><path fill="#000" d="M0 0h529v288H0z"/><g clip-path="url(#a)"><mask id="b" width="499" height="102" x="16" y="186" maskUnits="userSpaceOnUse" style="mask-type:luminance"><path fill="#fff" d="M514.385 186H16.3848v102H514.385z"/></mask><g mask="url(#b)"><path fill="#f7f2ea" d="M277.389 208.005h12.407l7.596 8.94c.519-.381 11.631-10.106 40.005-10.106 38.266 0 49.003 20.224 49.203 20.448v-19.282h39.161l2.801 3.292c5.719-2.961 12.566-4.458 20.498-4.458 8.978 0 15.398 1.241 20.485 2.463l3.837.916v-.006l43.8 49.878v33.527l-6.173-1.477c-6.319-1.515-11.395-2.189-16.444-2.189-8.933 0-18.092.898-24.993 7.114v40.589H430.41l-8.821-9.463c-9.137 6.951-22.032 9.463-41.596 9.463-19.565 0-24.733-1.645-39.75-6.975-.197-.071-6.55-3.03-6.638-3.111v8.734c-5.205.742-20.084 1.147-30.151 1.352-8.753.188-23.613-1.303-30.708-3.865-6.394-2.306-15.704-6.127-15.804-6.221v10.086h-70.72c-13.752 0-24.132-3.185-30.183-9.213-.15-.138-.932-.917-.957-.942v10.155H60.1177l-43.8032-49.878v-91.41H57.909l50.179 56.599.382-.754c2.24-4.327 6.281-8.553 13.295-11.72l-11.862-24.762 5.512-1.714c15.172-4.726 31.277-7.325 45.342-7.325 36.261 0 45.36 16.642 45.424 16.719v-15.41h14.697V197.42l39.161-9.376zm-116.388 3.965c-13.483-.05-29.275 2.562-43.847 7.094l9.473 19.775c15.879-4.844 26.979-5.137 33.767-5.287 7.189-.155 17.794 1.627 18.583 6.272-8.841-.879-15.561-2.076-24.483-1.385-21.191 1.64-43.296 6.684-43.296 24.831 0 15.124 14.578 20.822 31.214 20.822 12.633 0 25.265-1.746 36.565-9.657v8.491h29.15v-34.549c-.244-26.638-18.771-36.307-47.132-36.413zm64.876-10.623v11.633H211.18v23.265h14.697v25.947c0 15.123 11.175 21.756 33.767 21.756 9.598 0 18.22-.579 25.146-1.745v-22.686c-8.377 1.166-12.025 1.166-18.582 1.166-8.503 0-11.174-3.373-11.174-10.006v-14.426l-.007-.006h29.757V212.98h-29.757v-18.615zm111.52 10.473c-29.763 0-49.56 10.237-49.56 36.064 0 25.828 18.345 36.064 48.346 36.064s45.674-8.84 49.316-27.336h-28.544v-.006c-5.95 4.538-10.204 5.236-20.772 5.236-8.015 0-16.155-1.864-18.582-9.307h69.111c0-30.478-19.552-40.715-49.315-40.715M21.3198 201.353v81.435h84.9542v-25.59H52.9037v-55.845zM449.06 211.82c-11.9 0-21.86 3.61-28.299 12.799v-11.633h-29.15v69.797h29.15v-37.691c8.379-8.84 19.678-10.006 30.003-10.006 5.342 0 10.811.698 17.611 2.325v-23.265c-4.86-1.16-10.81-2.326-19.315-2.326m-287.121 42.342c6.889 0 12.514.355 17.044 1.072v5.636c-7.64 2.537-17.356 4.326-26.422 4.326-8.172 0-11.925-.642-11.925-4.875 0-4.875 6.432-6.159 21.303-6.159m175.339-22.567c7.771 0 15.06.698 18.338 6.982H318.94c3.278-6.284 10.567-6.982 18.338-6.982"/></g></g><defs><clipPath id="a"><path fill="#fff" d="M16 186h498v102H16z"/></clipPath></defs></svg>
