<svg viewBox="0 0 24 24" fill="none" xmlns="http://www.w3.org/2000/svg"><path fill-rule="evenodd" clip-rule="evenodd" d="M18.578 20.398A9.976 9.976 0 0 0 22 12.866c0-5.523-4.477-10-10-10s-10 4.477-10 10a9.973 9.973 0 0 0 3.24 7.369l.01-.064 13.123-4.297.205 4.524Z" fill="#333"/><path d="m9.419 4.067-1.774-.264.265-.081c.16-.05.31-.127.444-.228l.042-.032a1.22 1.22 0 0 0 .466-.778l.02-.124c.021-.134.02-.27-.003-.403a.073.073 0 0 1 .1-.08l.072.03c.09.037.179.081.263.132l.302.182c.4.242.752.558 1.036.931l.2.264a1.333 1.333 0 0 0 .618.45l.14.05-.732.03a7.811 7.811 0 0 1-1.46-.08Z" fill="#CCC"/><path d="m8.966 5.64.526-.962a.034.034 0 0 0 0-.03l-.179-.378a.68.68 0 0 0-.614-.388l-.05-.002a4.685 4.685 0 0 1-1.017-.148l-.065-.017a4.036 4.036 0 0 1-.79-.297l-.111-.055a2.8 2.8 0 0 1-.474-.3l-.147-.115a.099.099 0 0 0-.14.02.985.985 0 0 0-.185.47l-.027.235a1.874 1.874 0 0 0-.004.379l.065.734c.049.547.237 1.071.548 1.524l.066.097c.096.139.207.266.331.38a.11.11 0 0 0 .064.027c.902.081 1.768-.38 2.203-1.174Z" fill="#CCC"/><path d="m6.976 6.832.625-.27a.45.45 0 1 0-.458-.769l-.148.117a.645.645 0 0 0-.097.094l-.356.428a.151.151 0 0 0 .009.203l.11.126a.275.275 0 0 0 .315.071Z" fill="#EDEDED"/><path d="m7.78 3.758-.018.006.057.018c.247.08.504.125.763.138a.12.12 0 0 0 .038-.005l.118-.034.059-.02-.374-.08a.313.313 0 0 1-.134-.066.063.063 0 0 1 0-.096l.056-.046a.587.587 0 0 0 .157-.2c-.216.171-.46.301-.721.385Z" fill="#B2B2B2"/><path d="M9.92 10.578 4.825 19.69a.078.078 0 0 1-.124.017l-.102-.103-.43-.488-.274-.354a7.818 7.818 0 0 1-.693-1.067l-.04-.072a7.808 7.808 0 0 1-.536-1.24l-.137-.412a5.547 5.547 0 0 1-.139-2.295l.005-.032a5.7 5.7 0 0 1 .24-.988l.226-.669.17-.356a4.98 4.98 0 0 1 1.067-1.473l.215-.204a3.78 3.78 0 0 1 1.576-.897 2.728 2.728 0 0 1-.422.084l-.281.033-.215.02-.235.04-.234.021-.156.017-.113.007c-.036.002-.053-.044-.024-.065l.157-.076c.507-.243.924-.64 1.19-1.135l.174-.271c.208-.324.483-.597.808-.802l.067-.043c.121-.076.25-.139.385-.187l.615-.217a.43.43 0 0 0 .253-.236l.009-.022a.336.336 0 0 0-.083-.38l-.108-.099a.143.143 0 0 1-.018-.02L6.922 4.8l-.555-.764a.973.973 0 0 1-.184-.517.039.039 0 0 1 .056-.038l.6.288a2.38 2.38 0 0 0 1.666.148c.13-.036.261-.06.394-.075l.276-.028a5.653 5.653 0 0 1 2.064.17l.058.016.656.236a2.993 2.993 0 0 1 1.785 1.756l.138.536a2.168 2.168 0 0 0 .863 1.246l.35.244c.154.107.316.204.483.287l.775.388a.062.062 0 0 1 .022.093 2.065 2.065 0 0 1-.82.644l-.449.195a3.941 3.941 0 0 1-.55.193l-.33.088a5.46 5.46 0 0 1-1.417.188h-.79c-.163 0-.325-.031-.477-.091a1.303 1.303 0 0 0-1.615.576Z" fill="#fff"/><path d="m12.593 7.292.344.004c.047 0 .057-.065.013-.079a1.353 1.353 0 0 1-.212-.087l-.269-.139a2.795 2.795 0 0 1-.51-.338l-.053-.044c-.12-.1-.228-.211-.323-.334l-.06-.078a.034.034 0 0 0-.062.023c.04.598.533 1.065 1.132 1.072Z" fill="#666"/><path d="m5.212 19.834 5.824-5.195a7.813 7.813 0 0 0 1.417-1.677l.035-.057a2.32 2.32 0 0 0 .237-1.239l-.052-.587a1.656 1.656 0 0 0-.424-.97.066.066 0 0 0-.036-.02l-.936-.192a4.197 4.197 0 0 0-2.092-.086l-.037.008-.544.127a6.74 6.74 0 0 0-3.94 2.63l-.023.034a6.35 6.35 0 0 0-.665 1.168l-.032.074a6.073 6.073 0 0 0-.441 3.31l.054.367a3.695 3.695 0 0 0 .932 1.96l.297.324a.304.304 0 0 0 .426.021Z" fill="#CCC"/><path d="m10.31 12.9-.018.01c-.492.281-.756.811-.73 1.377.007.16.168.308.323.264l.285-.081c.37-.105.711-.288 1.001-.539l.829-.713.246-.182a6.593 6.593 0 0 1 4.979-1.209c.054.009.056.086.002.097l-.207.043-.095.033a1 1 0 0 0-.48.359.04.04 0 0 0 .044.062l.068-.021a3.195 3.195 0 0 1 1.184-.132l.157.012a2.856 2.856 0 0 1 2.159 1.137l.192.256c.57.758.812 1.714.67 2.652l-.074.49a4.714 4.714 0 0 1-.713 1.87l-.027.04-.41.547-.449.508-.411.395c-.376.36-.787.683-1.227.962l-.14.088-.266.127c-.069.033-.126-.061-.065-.107l.37-.352.077-.08c.206-.216.355-.482.431-.77l.035-.134a.715.715 0 0 0-.549-.886.709.709 0 0 0-.583.146l-.367.299-.649.53a7.82 7.82 0 0 1-1.376.902l-.67.345-1.133.43-.238.064a7.799 7.799 0 0 1-1.263.235l-.316.032H9.891l-1.348-.146-.73-.158a4.554 4.554 0 0 1-1.91-.917l-.563-.458a3.016 3.016 0 0 1-1.177-2.168l-.034-.45.04-.631a4.608 4.608 0 0 1 1.956-3.483l.12-.084c.5-.349 1.057-.607 1.646-.763l.396-.105a3.436 3.436 0 0 1 1.577-.042l.413.086c.104.022.126.16.034.212Z" fill="#5E5E5E"/></svg>
