<svg viewBox="0 0 24 24" fill="none" xmlns="http://www.w3.org/2000/svg"><path opacity=".993" d="M12.371 1.736c.054-.007.1.006.141.04a76.141 76.141 0 0 1 4.217 5.662 27.749 27.749 0 0 1 2.49 4.659c1.093 2.916.524 5.452-1.707 7.61-1.952 1.65-4.201 2.293-6.747 1.928-3.043-.62-5.111-2.38-6.205-5.281a7.394 7.394 0 0 1-.28-2.891 17.288 17.288 0 0 1 1.204-4.9 7.3 7.3 0 0 1 1.044-1.767c.35.416.685.845 1.004 1.285.148.155.302.302.462.442a37.93 37.93 0 0 1 4.377-6.787Z" fill="#FF5B11"/><path d="M12.09 5.962a42.46 42.46 0 0 1 3.996 5.462c.373.638.682 1.31.924 2.008.505 1.988-.037 3.628-1.627 4.92-1.537 1.081-3.224 1.403-5.06.963-1.98-.614-3.124-1.946-3.433-3.996a4.253 4.253 0 0 1 .2-1.887c.297-.754.66-1.48 1.085-2.168L9.38 9.495c.911-1.172 1.815-2.35 2.71-3.534Z" fill="#FF9758"/></svg>
