<svg viewBox="0 0 24 24" fill="none" xmlns="http://www.w3.org/2000/svg"><g clip-path="url(#a)" fill="#EDB641"><path d="m5.33 10.983.419 1.29H7.11l-1.1.796.42 1.29-1.101-.797-1.09.791.419-1.29-1.1-.796H4.92l.42-1.289-.011.005Zm1.954-4.245.362 1.111h1.169l-.944.687.362 1.111-.949-.681-.943.681.351-1.111-.943-.687h1.169l.361-1.11h.005ZM1.31 13.504l.21.65H2.2l-.55.409.21.65-.55-.404-.556.404.21-.65-.551-.404h.681l.21-.65.005-.005Z"/><path d="M9.197 15.684a18.95 18.95 0 0 0 2.505-1.378 22.637 22.637 0 0 0 3.092-2.6l-.613-.408-.534-.362 1.692-.063.545-.02.147-.525.461-1.635.587 1.588.189.514.545-.027 1.693-.062-1.332 1.048-.43.335.19.514.586 1.588-1.41-.944-.45-.298-.43.335-1.331 1.048.23-.812.231-.818.026-.105a20.982 20.982 0 0 1-5.24 2.815c-.315.104-.63.188-.944.267l-.005.005Zm-3.186 1.242a16.089 16.089 0 0 0 8.081-2.494l-.535 1.923 3.145-2.479 3.328 2.222-1.384-3.752 3.144-2.474-4.003.158-1.384-3.758-1.09 3.852-3.999.157 2.317 1.546c-1.52 1.384-5.346 4.34-10.413 4.538A14.037 14.037 0 0 1 0 16.11s2.52.953 6.016.817h-.005Z"/><path d="M16.408 4.412a7.588 7.588 0 0 0-7.242 9.862c.33-.167.644-.335.943-.508a6.53 6.53 0 0 1 6.3-8.306 6.54 6.54 0 1 1-4.916 10.848c-.351.136-.703.262-1.059.367a7.588 7.588 0 1 0 5.974-12.263Z"/></g><defs><clipPath id="a"><path fill="#fff" d="M0 0h24v24H0z"/></clipPath></defs></svg>
