<svg viewBox="0 0 22 22" fill="none" xmlns="http://www.w3.org/2000/svg">
    <path
        d="M9.076 2H8.54c-.764 0-1.384.62-1.384 1.385V7.6a2.77 2.77 0 0 1-1.724 2.564L3.385 11l2.048.835A2.77 2.77 0 0 1 7.157 14.4v4.217c0 .764.62 1.384 1.384 1.384h.535m3.848-18h.535c.764 0 1.384.62 1.384 1.385V7.6a2.77 2.77 0 0 0 1.724 2.564l2.048.835-2.048.835a2.77 2.77 0 0 0-1.724 2.564v4.217c0 .764-.62 1.384-1.384 1.384h-.535"
        stroke="currentColor" stroke-width="1.5" stroke-linecap="round" stroke-linejoin="round" />
</svg>