<svg viewBox="0 0 13 13" fill="none" xmlns="http://www.w3.org/2000/svg">
    <g clip-path="url(#clip0_2176_2356)">
        <path
            d="M11.3411 5.01058V3.521C11.3411 3.32346 11.2627 3.13402 11.123 2.99435C10.9833 2.85467 10.7939 2.7762 10.5964 2.7762H4.63802V2.03141C4.63802 1.83388 4.55955 1.64444 4.41988 1.50477C4.2802 1.36509 4.09076 1.28662 3.89323 1.28662H1.65885C1.46132 1.28662 1.27188 1.36509 1.13221 1.50477C0.992531 1.64444 0.914063 1.83388 0.914062 2.03141V10.8696C0.916865 11.0724 0.992601 11.2674 1.12741 11.419C1.26222 11.5705 1.44709 11.6685 1.6482 11.6949C1.8493 11.7213 2.05318 11.6744 2.22255 11.5628C2.39191 11.4512 2.51542 11.2823 2.57048 11.0871L3.73831 5.54882C3.7831 5.39366 3.8771 5.25726 4.00616 5.16018C4.13521 5.0631 4.29232 5.0106 4.45381 5.01058H11.3411ZM11.3411 5.01058C11.4553 5.01054 11.568 5.03675 11.6704 5.08718C11.7728 5.13761 11.8623 5.21091 11.9319 5.30141C12.0014 5.39192 12.0493 5.49722 12.0717 5.60916C12.0941 5.72111 12.0905 5.83671 12.0611 5.94703L10.9688 11.1606C10.9265 11.3192 10.833 11.4595 10.7028 11.5595C10.5726 11.6596 10.413 11.7138 10.2488 11.7137H1.75667"
            stroke="currentColor" stroke-linecap="round" stroke-linejoin="round" />
        <path d="M6.5 7.24463L5.38281 8.36182L6.5 9.479" stroke="currentColor" stroke-linecap="round"
            stroke-linejoin="round" />
        <path d="M8.73438 7.24463L9.85156 8.36182L8.73438 9.479" stroke="currentColor" stroke-linecap="round"
            stroke-linejoin="round" />
    </g>
    <defs>
        <clipPath id="clip0_2176_2356">
            <rect width="13" height="13" fill="white" />
        </clipPath>
    </defs>
</svg>