<svg xmlns="http://www.w3.org/2000/svg" viewBox="0 0 12 12" fill="none">
    <path stroke="currentColor" stroke-linecap="round" stroke-linejoin="round"
        d="M10.5 4.6V3.3c0-.2-.1-.4-.2-.5-.2-.2-.3-.2-.5-.2H4.3v-.7c0-.2-.1-.4-.2-.5-.1-.1-.3-.2-.5-.2H1.5c-.2 0-.3.1-.5.2-.1.1-.2.3-.2.5V10c0 .2.1.4.2.5s.3.2.5.3c.2 0 .4 0 .5-.1.2-.1.3-.3.3-.4l1.1-5.1c0-.1.1-.3.2-.4.2-.1.4-.2.5-.2h6.4zm0 0c.1 0 .2 0 .3.1.1 0 .2.1.2.2.1.1.1.2.1.3v.3l-1 4.8c0 .1-.1.3-.2.4-.1.1-.3.1-.4.1H1.6" />
    <path stroke="currentColor" stroke-linecap="round" stroke-linejoin="round" d="M6 6.7l-1 1 1 1M8.1 6.7l1 1-1 1" />
</svg>