<svg viewBox="0 0 24 24" fill="none" xmlns="http://www.w3.org/2000/svg"><path d="M15.739 8.061c-2.02.404-4.041-1.01-4.445-3.03-.202-1.01 0-2.223.606-3.031C6.445 2 2 6.445 2 11.9s4.445 9.9 9.9 9.9 9.9-4.445 9.9-9.9v-.808c-1.616 1.212-4.04.808-5.253-.808-.606-.606-.808-1.415-.808-2.223Z" stroke="currentColor" stroke-linecap="round" stroke-linejoin="round"/><path d="M8.667 15.133a1.212 1.212 0 1 0 0-2.425 1.212 1.212 0 0 0 0 2.425ZM12.91 16.345a1.212 1.212 0 1 0 0-2.424 1.212 1.212 0 0 0 0 2.424ZM9.88 9.88a1.212 1.212 0 1 0 0-2.425 1.212 1.212 0 0 0 0 2.425Z" fill="currentColor"/></svg>
