<svg viewBox="0 0 24 24" fill="none" xmlns="http://www.w3.org/2000/svg"><path d="M22 2H2v20h20V2Z" fill="#512BD4"/><path d="M5.565 14.778a.504.504 0 0 1-.361-.142.465.465 0 0 1-.148-.344c0-.135.049-.251.148-.348a.497.497 0 0 1 .36-.145c.144 0 .266.048.365.145a.464.464 0 0 1 .152.348.46.46 0 0 1-.152.344.508.508 0 0 1-.364.142ZM11.218 14.698h-.92l-2.421-3.82a1.71 1.71 0 0 1-.152-.301h-.021c.019.11.028.349.028.714v3.407h-.813V9.5h.98l2.34 3.73c.099.155.162.261.19.319h.015a4.745 4.745 0 0 1-.036-.7V9.5h.81v5.198ZM15.178 14.698h-2.846V9.5h2.732v.732h-1.89v1.472h1.742v.728h-1.743v1.537h2.005v.729ZM19.222 10.232h-1.456v4.466h-.842v-4.466h-1.453V9.5h3.751v.732Z" fill="#fff"/></svg>
