<svg xmlns="http://www.w3.org/2000/svg" viewBox="0 0 24 24" fill="none" stroke="currentColor" stroke-linecap="round"
    stroke-linejoin="round">
    <path
        d="M9.2 9.2c0-.5.1-1 .4-1.5s.6-.8 1.1-1c.5-.2 1-.3 1.5-.3s1 .2 1.4.5.7.7 1 1.2c.2.5.3 1 .2 1.5s-.3 1-.6 1.4-.8.7-1.2.9c-.3 0-.5.3-.7.5-.2.2-.3.5-.3.8v.9M12 17.6c-.2 0-.4-.2-.4-.4s.2-.4.4-.4M12 17.6c.2 0 .4-.2.4-.4s-.2-.4-.4-.4" />
    <path d="M12 22.5c5.8 0 10.5-4.7 10.5-10.5S17.8 1.5 12 1.5 1.5 6.2 1.5 12 6.2 22.5 12 22.5z" />
</svg>