<svg xmlns="http://www.w3.org/2000/svg" viewBox="0 0 24 24"><desc>View Off Streamline Icon: https://streamlinehq.com</desc><g><path d="M2.78 21 21.53 3" fill="none" stroke="currentColor" stroke-linecap="round" stroke-linejoin="round" stroke-width="1.5"></path><path d="M9 19.05a9.91 9.91 0 0 0 3 0.45c4.1 0.07 8.26 -2.81 10.82 -5.64a1.65 1.65 0 0 0 0 -2.22 20.06 20.06 0 0 0 -3.07 -2.76" fill="none" stroke="currentColor" stroke-linecap="round" stroke-linejoin="round" stroke-width="1.5"></path><path d="M17.09 7.27A11.31 11.31 0 0 0 12 6c-4 -0.07 -8.2 2.75 -10.82 5.64a1.65 1.65 0 0 0 0 2.22 20 20 0 0 0 4.93 4" fill="none" stroke="currentColor" stroke-linecap="round" stroke-linejoin="round" stroke-width="1.5"></path><path d="M9 15.07a3.85 3.85 0 0 1 5.5 -5.28" fill="none" stroke="currentColor" stroke-linecap="round" stroke-linejoin="round" stroke-width="1.5"></path><path d="M15.75 12.75h0A3.75 3.75 0 0 1 12 16.5" fill="none" stroke="currentColor" stroke-linecap="round" stroke-linejoin="round" stroke-width="1.5"></path></g></svg>