<svg xmlns="http://www.w3.org/2000/svg" width="24" height="24" viewBox="0 0 24 24" fill="none"><g stroke="currentColor" stroke-linecap="round" stroke-linejoin="round" clip-path="url(#a)"><path d="M12 10.67v7.98M14.66 16 12 18.64 9.34 16"/><path d="M3.35 7.34h17.3s1.33 0 1.33 1.33v11.98s0 1.33-1.33 1.33H3.35s-1.33 0-1.33-1.33V8.67s0-1.33 1.33-1.33Z"/><path d="m2.2 8 2.13-5.19a1.33 1.33 0 0 1 1.22-.79h12.9a1.33 1.33 0 0 1 1.22.8l2.08 5.1M12 7.34V2.02"/></g><defs><clipPath id="a"><path fill="currentColor" d="M0 0h24v24H0z"/></clipPath></defs></svg>