<svg viewBox="0 0 13 13" fill="none" xmlns="http://www.w3.org/2000/svg">
    <path
        d="M4.03197 1.1582H3.79177C3.24341 1.1582 2.79884 1.60267 2.79872 2.15104L2.79798 5.51271C2.79786 6.06108 2.35329 6.50552 1.80492 6.50552H1.50977"
        stroke="currentColor" stroke-linecap="round" stroke-linejoin="round" />
    <path
        d="M8.9707 1.1582H9.21092C9.75929 1.1582 10.2038 1.60267 10.204 2.15104L10.2047 5.51271C10.2048 6.06108 10.6494 6.50552 11.1978 6.50552H11.4929"
        stroke="currentColor" stroke-linecap="round" stroke-linejoin="round" />
    <path
        d="M4.03197 11.8419H3.79177C3.24341 11.8419 2.79884 11.3975 2.79872 10.8491L2.79798 7.48744C2.79786 6.93907 2.35329 6.49463 1.80492 6.49463H1.50977"
        stroke="currentColor" stroke-linecap="round" stroke-linejoin="round" />
    <path
        d="M8.9707 11.8419H9.21092C9.75929 11.8419 10.2038 11.3975 10.204 10.8491L10.2047 7.48744C10.2048 6.93907 10.6494 6.49463 11.1978 6.49463H11.4929"
        stroke="currentColor" stroke-linecap="round" stroke-linejoin="round" />
</svg>