<svg xmlns="http://www.w3.org/2000/svg" fill="none" viewBox="0 0 14 14">
    <path fill="currentColor" fill-rule="evenodd"
        d="M1.625.258A.747.747 0 0 0 1.44.75v9.62a1.712 1.712 0 0 0 .942 1.523l.002.001 3.845 1.923.337-.67-.335.67H6.23a1.711 1.711 0 0 0 2.48-1.524v-.214h2.136a1.712 1.712 0 0 0 1.712-1.711V1.712A1.712 1.712 0 0 0 10.847 0H2.191a.747.747 0 0 0-.566.258ZM8.712 10.58h2.135a.212.212 0 0 0 .212-.211V1.712a.212.212 0 0 0-.212-.212H5.373l2.395 1.195.002.001a1.712 1.712 0 0 1 .942 1.538v.003l-.75-.005h.75v6.347Z"
        clip-rule="evenodd" />
</svg>