<svg viewBox="0 0 10 10" xmlns="http://www.w3.org/2000/svg" fill="currentColor">
    <path
        d="M3.5 5a1.5 1.5 0 103 0 1.5 1.5 0 10-3 0zM5 2.25a.625.625 0 01-.625-.625v-1a.625.625 0 011.25 0v1A.625.625 0 015 2.25zM6.945 3.055a.623.623 0 010-.883l.707-.708a.625.625 0 01.884.884l-.708.707a.623.623 0 01-.883 0zM7.75 5a.625.625 0 01.625-.625h1a.625.625 0 010 1.25h-1A.625.625 0 017.75 5zM6.945 6.945a.623.623 0 01.883 0l.708.707a.625.625 0 01-.884.884l-.707-.708a.623.623 0 010-.883zM5 7.75a.625.625 0 01.625.625v1a.625.625 0 01-1.25 0v-1A.625.625 0 015 7.75zM3.055 6.945a.623.623 0 010 .883l-.707.708a.625.625 0 01-.884-.884l.708-.707a.623.623 0 01.883 0zM2.25 5a.625.625 0 01-.625.625h-1a.625.625 0 010-1.25h1A.625.625 0 012.25 5zM3.055 3.055a.623.623 0 01-.883 0l-.708-.707a.625.625 0 01.884-.884l.707.708a.623.623 0 010 .883z" />
</svg>