<svg viewBox="0 0 24 24" fill="none" xmlns="http://www.w3.org/2000/svg"><path d="M23 12a.917.917 0 0 0-.917-.917H18.5a.467.467 0 0 1-.449-.366 6.26 6.26 0 0 0-.862-2.09.459.459 0 0 1 .055-.578l2.54-2.53a.92.92 0 0 0-1.302-1.301l-2.53 2.539a.458.458 0 0 1-.578.055 6.26 6.26 0 0 0-2.09-.862.459.459 0 0 1-.366-.45V1.918a.917.917 0 0 0-1.834 0V5.5a.467.467 0 0 1-.366.449 6.26 6.26 0 0 0-2.09.862.458.458 0 0 1-.578-.055l-2.53-2.54A.92.92 0 0 0 4.218 5.52l2.539 2.53a.458.458 0 0 1 .055.578 6.26 6.26 0 0 0-.862 2.09.459.459 0 0 1-.45.366H1.918a.917.917 0 0 0 0 1.834H5.5a.467.467 0 0 1 .449.366 6.26 6.26 0 0 0 .862 2.09.459.459 0 0 1-.055.578l-2.54 2.53a.921.921 0 0 0 1.302 1.301l2.53-2.539a.46.46 0 0 1 .578-.055 6.26 6.26 0 0 0 2.09.862.459.459 0 0 1 .366.45v3.583a.917.917 0 0 0 1.834 0V18.5a.467.467 0 0 1 .366-.449 6.26 6.26 0 0 0 2.09-.862.459.459 0 0 1 .578.055l2.53 2.54a.92.92 0 0 0 1.301-1.302l-2.539-2.53a.459.459 0 0 1-.055-.578 6.26 6.26 0 0 0 .862-2.09.459.459 0 0 1 .45-.366h3.583A.917.917 0 0 0 23 12Zm-8.012 2.292a5.28 5.28 0 0 1-5.28-5.28c.002-.405.051-.808.147-1.201a.45.45 0 0 1 .312-.33 4.913 4.913 0 0 1 1.65-.284 5.014 5.014 0 0 1 5.005 5.005c0 .562-.096 1.12-.284 1.65a.45.45 0 0 1-.321.293 5.07 5.07 0 0 1-1.229.147Z" fill="currentColor"/></svg>
