<svg viewBox="0 0 24 24" xmlns="http://www.w3.org/2000/svg" fill="currentColor">
  <path
    d="M24 12a1 1 0 00-1-1h-3.91a.51.51 0 01-.49-.4 6.83 6.83 0 00-.94-2.28.5.5 0 01.06-.63l2.77-2.76a1 1 0 10-1.42-1.42l-2.76 2.77a.5.5 0 01-.63.06 6.83 6.83 0 00-2.28-.94.5.5 0 01-.4-.49V1a1 1 0 00-2 0v3.91a.51.51 0 01-.4.49 6.83 6.83 0 00-2.28.94.5.5 0 01-.63-.06L4.93 3.51a1 1 0 00-1.42 1.42l2.77 2.76a.5.5 0 01.06.63 6.83 6.83 0 00-.94 2.28.5.5 0 01-.49.4H1a1 1 0 000 2h3.91a.51.51 0 01.49.4 6.83 6.83 0 00.94 2.28.5.5 0 01-.06.63l-2.77 2.76a1 1 0 101.42 1.42l2.76-2.77a.5.5 0 01.63-.06 6.83 6.83 0 002.28.94.5.5 0 01.4.49V23a1 1 0 002 0v-3.91a.51.51 0 01.4-.49 6.83 6.83 0 002.28-.94.5.5 0 01.63.06l2.76 2.77a1 1 0 101.42-1.42l-2.77-2.76a.5.5 0 01-.06-.63 6.83 6.83 0 00.94-2.28.5.5 0 01.49-.4H23a1 1 0 001-1zm-8.74 2.5A5.76 5.76 0 019.5 8.74a5.66 5.66 0 01.16-1.31.49.49 0 01.34-.36 5.36 5.36 0 011.8-.31 5.47 5.47 0 015.46 5.46 5.36 5.36 0 01-.31 1.8.49.49 0 01-.35.32 5.53 5.53 0 01-1.34.16z" />
</svg>