<svg viewBox="0 0 24 24" fill="none" xmlns="http://www.w3.org/2000/svg"><path fill-rule="evenodd" clip-rule="evenodd" d="M19.608 5.51C16.023 1.308 9.712.808 5.51 4.392 1.308 7.977.808 14.288 4.392 18.49c3.585 4.202 9.896 4.702 14.098 1.118 4.202-3.585 4.702-9.896 1.118-14.098Zm-4.982 5.249c.385 0 .631.417.438.75l-.056.096-3.774 6.21a.387.387 0 0 1-.33.185h-.36a.378.378 0 0 1-.366-.472l1.024-3.959a.5.5 0 0 0-.484-.625H9.145a.5.5 0 0 1-.484-.625l1.545-5.978a.462.462 0 0 1 .448-.34l.067.001h1.584a.5.5 0 0 1 .496.568l-.01.071-.604 3.533a.5.5 0 0 0 .493.585h1.946Z" fill="url(#a)"/><defs><radialGradient id="a" cx="0" cy="0" r="1" gradientUnits="userSpaceOnUse" gradientTransform="matrix(19.5 0 0 198.851 4 12)"><stop stop-color="#31B2F3"/><stop offset=".474" stop-color="#F27CEC"/><stop offset="1" stop-color="#FD6641"/></radialGradient></defs></svg>
