<svg xmlns="http://www.w3.org/2000/svg" viewBox="0 0 24 24" fill="none" stroke="currentColor" stroke-linecap="round"
    stroke-linejoin="round">
    <path
        d="M18 4.14a30.54 30.54 0 014.73-.39.55.55 0 01.37.14.51.51 0 01.15.36V20a.51.51 0 01-.5.5C14.46 20.62 12 23.25 12 23.25V6.48S9.55 3.86 1.27 3.75a.55.55 0 00-.37.14.51.51 0 00-.15.36V20a.51.51 0 00.5.5C9.54 20.62 12 23.25 12 23.25" />
    <path
        d="M12 22.76a6 6 0 011.64-3.45A8.18 8.18 0 0118 16.85V1.24a.46.46 0 00-.23-.4.6.6 0 00-.49-.06 7.79 7.79 0 00-3.64 2.27A6.2 6.2 0 0012 6.48" />
</svg>