<svg viewBox="0 0 8 10" fill="none" xmlns="http://www.w3.org/2000/svg">
<path d="M7.26604 3.56348L2.70004 0.317479C2.44346 0.132845 2.14013 0.0240645 1.82468 0.00355349C1.50924 -0.0169576 1.19438 0.0516267 0.916043 0.201479C0.637085 0.35318 0.404542 0.577764 0.24322 0.851271C0.0818985 1.12478 -0.00214917 1.43695 4.31807e-05 1.75448V8.24648C-0.00218499 8.56388 0.0818576 8.87593 0.243192 9.14929C0.404527 9.42264 0.637093 9.64703 0.916043 9.79848C1.19435 9.94824 1.50912 10.0169 1.82452 9.99654C2.13991 9.9762 2.44326 9.86774 2.70004 9.68348L7.26604 6.43748C7.49305 6.27288 7.67783 6.05684 7.80525 5.80707C7.93266 5.55729 7.9991 5.28088 7.9991 5.00048C7.9991 4.72008 7.93266 4.44367 7.80525 4.19389C7.67783 3.94411 7.49305 3.72808 7.26604 3.56348Z" fill="currentColor"/>
</svg>
