<svg xmlns="http://www.w3.org/2000/svg" viewBox="0 0 128 128" fill="currentColor">
	<path
		d="M111.7 29.7L128 64l-16.3 34.3H16.3L0 64l16.3-34.3h95.4zm-5.5 5.7H20L6.3 64l13.6 28.6h86.3L119.8 64l-13.6-28.6zm-76.3 19v8h9.2v-8.1h4.8v20.4h-4.7v-8.4H30v8.4h-4.8V54.4h4.7zm34.3 0v3.8h-6.5v16.5H53V58.2h-6.5v-3.8h17.7zm18.3 0v3.8H76v16.5h-4.7V58.2h-6.5v-3.8h17.7zm16.1.9c1.2.5 2.3 1.4 3.1 2.6.7 1.2 1.1 2.5 1 3.9.1 1.4-.3 2.7-1 3.9-.7 1.1-1.8 2-3.1 2.6-1.5.6-3.1.9-4.7.9h-4.1v5.6H85V54.4h8.9c1.6 0 3.2.3 4.7.9zm-5.1 2.9h-3.8v7.1h3.8c1.4 0 2.5-.3 3.3-.9.8-.6 1.2-1.6 1.1-2.6 0-1.1-.3-2.1-1.1-2.6-.8-.7-1.9-1-3.3-1z" />
</svg>