<svg xmlns="http://www.w3.org/2000/svg" viewBox="0 0 24 24">
    <path
        d="M11.26 15.27c3.37-.15 7.15-1.09 7-2.21a25.93 25.93 0 0 1-4.76.59c-3.62.16-6.58-.24-6.61-.9 0-.2.24-.4.69-.58-2.39-.64-3.67.53-3.69 1.22-.1 1.45 3.22 2.06 7.37 1.88Z"
        fill="currentColor"></path>
    <path
        d="M17.17 16.91a23 23 0 0 1-4.07.5c-3.09.14-5.61-.21-5.64-.77 0-.17.21-.34.59-.49-2-.55-3.13.45-3.15 1-.05 1.24 2.78 1.77 6.33 1.61 2.87-.1 6.25-1 5.94-1.85Z"
        fill="currentColor"></path>
    <path
        d="M3.61 20.8a.93.93 0 0 1 .29-.65c-2.09.1-2.54 1.13-2.51 1.76.07 1.39 4.67 2.31 10 2.05 4.44-.22 9.16-1 9.16-2.34a26.34 26.34 0 0 1-7.2 1.23c-5.35.26-9.67-.66-9.74-2.05Z"
        fill="currentColor"></path>
    <path
        d="M22.4 12.65c-.55-1.48-2.67-2.34-4.74-1.57a2.47 2.47 0 0 0-1 .81c1.94-.56 3.83 0 4.34 1.41.45 1.21-.3 2.64-1.72 3.54a1.37 1.37 0 0 0 .92-.13c2.25-1.05 2.8-2.58 2.2-4.06Z"
        fill="currentColor"></path>
    <path d="M12.52 11.27s-3.1-2.19-1.92-4.35S14.37 2.43 13.38 0c0 0 .12 1-3.12 3.91s-2.14 6.33 2.26 7.36Z"
        fill="currentColor"></path>
    <path d="M15.17 4.83s-4.24 1.51-2.83 3.53c1 1.43 2.13 2 1.42 4 0 0 2.83-1.51.71-3.53s.7-4 .7-4Z"
        fill="currentColor"></path>
    <path
        d="M8.69 19.26c-1.6-.43-2.46.35-2.47.81 0 1 2.18 1.39 5 1.27 2.26-.11 4.73-.95 4.67-1.49a16.59 16.59 0 0 1-3.2.4c-2.43.11-4.41-.16-4.43-.61-.04-.13.13-.26.43-.38Z"
        fill="currentColor"></path>
</svg>