<svg xmlns="http://www.w3.org/2000/svg" viewBox="0 0 24 24">
    <path
        d="M4.56 18.71c-1.41-4-.65-8.94 1.77-11.48A5.47 5.47 0 0 1 12 5.71h.15a.78.78 0 0 1 .22.12c4 1.65 4.28 8.57 1.28 11.41a4.15 4.15 0 0 0 3.08-1.35c2.12-2.23 2.76-6.62 1.49-10.22A7.75 7.75 0 0 0 12.81.54H12a11.5 11.5 0 0 0-5.42 21.6 10 10 0 0 1-2.02-3.43Z"
        fill="currentColor"></path>
    <path
        d="M23.5 12a11.49 11.49 0 0 0-6.09-10.14 9.86 9.86 0 0 1 2 3.43c1.41 4 .65 9-1.77 11.5a5.42 5.42 0 0 1-4 1.75A6.53 6.53 0 0 1 12 18.3h-.15a.78.78 0 0 1-.22-.12c-4-1.65-4.29-8.57-1.29-11.41a4.14 4.14 0 0 0-3.11 1.32c-2.12 2.22-2.76 6.61-1.49 10.2a7.77 7.77 0 0 0 5.45 5.17H12A11.5 11.5 0 0 0 23.5 12Z"
        fill="currentColor"></path>
</svg>