<svg viewBox="0 0 24 24" fill="none" xmlns="http://www.w3.org/2000/svg"><path d="m21.863 11.755-.839-.52c-.007-.081-.015-.163-.024-.244l.722-.673a.288.288 0 0 0-.096-.482l-.923-.345a9.353 9.353 0 0 0-.072-.239l.575-.799a.288.288 0 0 0-.187-.455l-.973-.158a7.653 7.653 0 0 0-.117-.218l.409-.897a.286.286 0 0 0-.273-.409l-.987.034a7.994 7.994 0 0 0-.157-.188l.228-.962a.287.287 0 0 0-.348-.348l-.96.227-.19-.157.034-.986a.287.287 0 0 0-.409-.273l-.897.409a8.3 8.3 0 0 0-.218-.118l-.158-.972a.288.288 0 0 0-.454-.189l-.8.575a7.673 7.673 0 0 0-.238-.071l-.345-.923a.288.288 0 0 0-.482-.096L13.01 3a7.895 7.895 0 0 0-.245-.023l-.52-.84a.29.29 0 0 0-.49 0l-.52.84c-.082.006-.164.015-.245.023l-.673-.722a.29.29 0 0 0-.482.096l-.345.923c-.08.023-.16.047-.237.072l-.8-.576a.288.288 0 0 0-.455.188l-.158.973c-.073.038-.146.078-.22.118l-.895-.41a.287.287 0 0 0-.409.273l.034.988a8.971 8.971 0 0 0-.19.156l-.96-.227a.29.29 0 0 0-.348.348l.227.962a9.163 9.163 0 0 0-.157.188l-.987-.034a.288.288 0 0 0-.273.409l.409.897c-.04.072-.079.145-.117.22l-.972.156a.288.288 0 0 0-.189.455l.575.8a9.308 9.308 0 0 0-.071.237l-.923.346a.289.289 0 0 0-.096.482L3 10.99a7.84 7.84 0 0 0-.024.244l-.84.52a.289.289 0 0 0 0 .492l.84.519c.007.082.015.164.025.245l-.723.673a.289.289 0 0 0 .096.482l.922.345c.023.08.048.16.073.237l-.576.8a.29.29 0 0 0 .188.454l.973.158c.038.074.076.147.117.22l-.41.896a.288.288 0 0 0 .274.409l.987-.035c.05.065.103.127.156.19l-.227.961a.287.287 0 0 0 .348.347l.961-.226.19.156-.035.987a.288.288 0 0 0 .41.273l.896-.41c.072.04.145.08.219.119l.158.971a.288.288 0 0 0 .455.19l.799-.577c.078.025.158.05.237.072l.345.923a.287.287 0 0 0 .482.096L10.99 21c.081.01.162.017.244.025l.52.839a.29.29 0 0 0 .492 0l.519-.84c.082-.007.164-.015.245-.024l.674.722a.287.287 0 0 0 .48-.096l.346-.923c.08-.022.159-.047.238-.072l.8.576a.29.29 0 0 0 .454-.189l.158-.972c.074-.038.146-.078.219-.117l.896.409a.288.288 0 0 0 .41-.273l-.035-.988a6.76 6.76 0 0 0 .19-.155l.96.226a.287.287 0 0 0 .348-.347l-.226-.961.155-.19.988.035a.289.289 0 0 0 .272-.41l-.409-.896c.04-.072.08-.145.117-.219l.973-.158a.287.287 0 0 0 .188-.454l-.575-.8.072-.237.922-.345a.286.286 0 0 0 .096-.482L21 13.011l.025-.245.839-.52a.29.29 0 0 0 0-.49Zm-5.619 6.965a.595.595 0 0 1 .25-1.163.595.595 0 0 1-.25 1.163Zm-.286-1.93a.542.542 0 0 0-.642.417l-.299 1.391a7.28 7.28 0 0 1-3.017.65c-1.1 0-2.144-.243-3.08-.679l-.299-1.39a.542.542 0 0 0-.643-.417l-1.228.263a7.437 7.437 0 0 1-.635-.748h5.976c.068 0 .113-.012.113-.074V14.09c0-.062-.046-.074-.113-.074h-1.747v-1.34h1.89c.172 0 .922.049 1.162 1.007.075.295.24 1.254.352 1.561.113.344.57 1.032 1.059 1.032h2.977a.607.607 0 0 0 .108-.01c-.206.28-.433.546-.677.794l-1.256-.27Zm-8.265 1.9a.594.594 0 1 1-.014-1.17.594.594 0 0 1 .014 1.171ZM5.427 9.5a.594.594 0 1 1-1.086.481.594.594 0 0 1 1.086-.481ZM4.73 11.15l1.28-.569a.543.543 0 0 0 .274-.715l-.263-.597h1.036v4.672h-2.09a7.321 7.321 0 0 1-.237-2.792Zm5.614-.454V9.32h2.468c.128 0 .9.148.9.725 0 .48-.592.652-1.08.652h-2.288Zm8.969 1.24c0 .182-.007.363-.02.542h-.75c-.076 0-.106.05-.106.123v.345c0 .81-.457.987-.858 1.032-.381.043-.805-.16-.857-.394-.225-1.265-.6-1.536-1.192-2.003.735-.467 1.5-1.155 1.5-2.077 0-.996-.683-1.623-1.148-1.93-.652-.43-1.375-.517-1.57-.517h-7.76a7.303 7.303 0 0 1 4.091-2.308l.915.959a.54.54 0 0 0 .765.018l1.024-.98a7.319 7.319 0 0 1 5.006 3.566l-.7 1.583a.543.543 0 0 0 .275.715l1.35.6c.022.238.035.48.035.726Zm-7.754-8.004a.595.595 0 1 1 .82.86.595.595 0 0 1-.82-.86Zm6.951 5.595a.594.594 0 1 1 1.086.481.594.594 0 0 1-1.086-.481Z" fill="currentColor"/></svg>
