<svg xmlns="http://www.w3.org/2000/svg" fill="none" viewBox="0 0 24 24"><path fill="currentColor" fill-rule="evenodd" d="M6.335.83a.75.75 0 0 0-.67 0L1.667 2.827a.754.754 0 0 0-.417.672V18c0 .271.146.52.382.654l7.989 4.493a.753.753 0 0 0 .747.007l8-4.5A.75.75 0 0 0 18.75 18v-4.537l3.585-1.792A.75.75 0 0 0 22.75 11V6a.75.75 0 0 0-.417-.672l-3.998-1.999a.75.75 0 0 0-.67 0l-3.997 1.999a.722.722 0 0 0-.246.194.748.748 0 0 0-.172.478v4.561l-2.5 1.407V3.5a.747.747 0 0 0-.43-.678L6.336.829Zm7.686 11.019 2.38 1.19-6.422 3.612-2.38-1.19 6.422-3.612Zm3.229-.063-2.5-1.25V7.215l2.5 1.25v3.322Zm1.5 0 2.5-1.25V7.215l-2.5 1.25v3.322Zm-9.5 1.025V4.714l-2.5 1.25v8.254l2.5-1.407Zm-1.005 4.65.743.372c.17.091.262.153.262.183v3.202l-6.5-3.657V4.714l2.5 1.25V15.5a.75.75 0 0 0 .415.67s1.122.591 2.108 1.064l.472.227Zm2.505.478 6.5-3.657v3.28l-6.5 3.656v-3.28ZM6 4.66 3.677 3.5 6 2.339 8.323 3.5 6 4.661ZM20.323 6 18 4.839 15.677 6 18 7.161 20.323 6Z" clip-rule="evenodd"></path></svg>