<svg xmlns="http://www.w3.org/2000/svg" fill="none" viewBox="0 0 14 14">
    <path fill="currentColor" fill-rule="evenodd"
        d="M2.933 3.491C4.056 2.681 5.456 2 7 2s2.944.682 4.067 1.491c1.128.812 2.02 1.784 2.56 2.437l.005.005c.241.3.368.681.368 1.067 0 .386-.127.766-.368 1.067l-.005.005c-.54.653-1.432 1.625-2.56 2.437C9.944 11.32 8.544 12 7 12s-2.944-.682-4.067-1.49C1.805 9.696.913 8.724.373 8.071l-.005-.005A1.7 1.7 0 0 1 0 7c0-.386.127-.766.368-1.067l.005-.005c.54-.653 1.432-1.625 2.56-2.437ZM7 9.25a2.25 2.25 0 1 0 0-4.5 2.25 2.25 0 0 0 0 4.5Z"
        clip-rule="evenodd" />
</svg>