<svg xmlns="http://www.w3.org/2000/svg" width="14" height="14" viewBox="0 0 14 14" fill="none"><g fill="currentColor" clip-path="url(#a)"><path d="m7.75 6.6 1.76-1.76a.53.53 0 0 1 .4-.17.53.53 0 0 1 .41.17.56.56 0 0 1 0 .82L8.98 7l1.34 1.34a.56.56 0 0 1 0 .82.57.57 0 0 1-.81 0L7.75 7.4a.56.56 0 0 1 0-.82Z"/><path fill-rule="evenodd" d="M11.67 14A2.34 2.34 0 0 0 14 11.67V2.33A2.34 2.34 0 0 0 11.67 0H2.33A2.34 2.34 0 0 0 0 2.33v9.34A2.33 2.33 0 0 0 2.33 14h9.34Zm-6.42-1.17h6.42a1.17 1.17 0 0 0 1.16-1.16V2.33a1.17 1.17 0 0 0-1.16-1.16H5.25v11.66Z" clip-rule="evenodd"/></g><defs><clipPath id="a"><path fill="#fff" d="M0 0h14v14H0z"/></clipPath></defs></svg>