<svg xmlns="http://www.w3.org/2000/svg" viewBox="0 0 14 14" fill="currentColor">
	<path
		d="M11.7 14H2.3C1 14 0 13 0 11.7V2.3C0 1 1 0 2.3 0h9.3C13 0 14 1 14 2.3v9.3c0 1.4-1 2.4-2.3 2.4zM2.3 1.2c-.6 0-1.2.5-1.2 1.2v9.3c0 .6.5 1.2 1.2 1.2h9.3c.6 0 1.2-.5 1.2-1.2V2.3c0-.6-.5-1.2-1.2-1.2H2.3z" />
	<path
		d="M4.7 14c-.3 0-.6-.2-.6-.6V.6c0-.4.2-.6.6-.6s.6.2.6.6v12.8c-.1.4-.3.6-.6.6zM10.8 6.6L9.1 4.8c-.2-.2-.6-.2-.8 0-.3.3-.3.6-.1.8L9.6 7 8.3 8.3c-.3.3-.3.6-.1.8.1.1.2.2.4.2s.3 0 .4-.2l1.8-1.8c.2-.1.3-.5 0-.7z" />
</svg>