<svg xmlns="http://www.w3.org/2000/svg" width="14" height="14" viewBox="0 0 14 14" fill="none"><g fill="currentColor" clip-path="url(#a)"><path d="M11.67 14H2.33A2.34 2.34 0 0 1 0 11.67V2.33A2.34 2.34 0 0 1 2.33 0h9.34A2.34 2.34 0 0 1 14 2.33v9.34A2.34 2.34 0 0 1 11.67 14ZM2.33 1.17c-.64 0-1.16.52-1.16 1.16v9.34c0 .64.52 1.16 1.16 1.16h9.34c.64 0 1.16-.52 1.16-1.16V2.33c0-.64-.52-1.16-1.16-1.16H2.33Z"/><path d="M4.67 14c-.35 0-.59-.23-.59-.58V.58c0-.35.24-.58.59-.58s.58.23.58.58v12.84c0 .35-.23.58-.58.58ZM10.42 7.58c.17 0 .29-.05.4-.17a.56.56 0 0 0 0-.82L9.07 4.84a.56.56 0 0 0-.81 0 .56.56 0 0 0 0 .82L10 7.4c.11.12.23.17.4.17Z"/><path d="M8.66 9.33c.18 0 .3-.05.41-.17l1.75-1.75a.56.56 0 0 0 0-.82.56.56 0 0 0-.81 0L8.26 8.34a.56.56 0 0 0 0 .82c.11.12.23.17.4.17Z"/></g><defs><clipPath id="a"><path fill="#fff" d="M0 0h14v14H0z"/></clipPath></defs></svg>