<svg xmlns="http://www.w3.org/2000/svg" width="24" height="24" viewBox="0 0 24 24" fill="none"><g stroke="currentColor" stroke-linecap="round" stroke-linejoin="round" clip-path="url(#a)"><path d="m19.5 5.75-1.51 14.34a1.67 1.67 0 0 1-1.66 1.5H7.67A1.67 1.67 0 0 1 6 20.08L4.5 5.75M2.42 5.75h19.16M8.25 5.75v-2.5a.83.83 0 0 1 .83-.83h5.84a.83.83 0 0 1 .83.83v2.5M12 9.5v8.75M15.75 9.5l-.42 8.75M8.25 9.5l.42 8.75"/></g><defs><clipPath id="a"><path fill="transparent" d="M2 2h20v20H2z"/></clipPath></defs></svg>