<svg xmlns="http://www.w3.org/2000/svg" fill="none" stroke="currentColor" viewBox="0 0 24 24" stroke-linecap="round"
    stroke-linejoin="round">
    <path d="M11.101 1.488H4.83a1 1 0 00-1 1v6.614M12.899 22.512h6.272a1 1 0 001-1v-6.614" />
    <path d="M1.23 6.5l2.6 2.6 2.601-2.6M22.77 17.5l-2.6-2.6-2.601 2.6" />
    <path
        d="M5.505 18.546a2.551 2.551 0 100-5.103 2.551 2.551 0 000 5.103zM9.782 22.511c-.559-1.83-2.29-3.202-4.276-3.202-1.988 0-3.718 1.372-4.277 3.202M18.493 6.591a2.551 2.551 0 100-5.103 2.551 2.551 0 000 5.103zM22.77 10.556c-.559-1.83-2.289-3.202-4.276-3.202-1.987 0-3.718 1.372-4.276 3.202" />
</svg>