<svg xmlns="http://www.w3.org/2000/svg" fill="none" viewBox="0 0 24 24" stroke="currentColor" stroke-linecap="round"
    stroke-linejoin="round">
    <path
        d="M2.97 2.771L13.908 5.88a3.77 3.77 0 012.592 3.5v10.51a2.052 2.052 0 01-2.6 2.167l-9.048-2.46a3.7 3.7 0 01-2.6-3.457V4.688a2.752 2.752 0 012.67-2.813H18.75a3 3 0 013 3v8.953a3.073 3.073 0 01-3.11 3.047H16.5" />
    <path d="M12.375 13.875a.375.375 0 010-.75M12.375 13.875a.375.375 0 000-.75" />
    <path d="M21.75 9.375H16.5" />
</svg>