<svg xmlns="http://www.w3.org/2000/svg" fill="none" viewBox="0 0 24 24"><path fill="currentColor" fill-rule="evenodd" d="M4.971 5.613a4.978 4.978 0 0 1 8.203-2.86 5.6 5.6 0 0 0-.251.137L7.232 6.176a.5.5 0 0 0-.25.435l.033 7.357-2.118-1.21V6.476a5 5 0 0 1 .074-.863Zm15.25-.036a4.956 4.956 0 0 1 .565 3.486 6.627 6.627 0 0 0-.244-.15L14.85 5.629a.5.5 0 0 0-.502.001L7.994 9.336l-.01-2.44 5.439-3.14a4.978 4.978 0 0 1 6.798 1.821ZM8.017 14.541 8 10.49l3.499-2.041 3.516 2.01.018 4.05-3.498 2.04-3.517-2.01Zm10.866-3.023-6.388-3.65 2.107-1.229 5.44 3.14a4.978 4.978 0 0 1-.914 9.03c.004-.094.007-.19.007-.285v-6.572a.5.5 0 0 0-.252-.434Zm-2.834 6.871-.032-7.357 2.118 1.21v6.282a4.978 4.978 0 0 1-8.277 3.724c.084-.044.167-.09.25-.138l5.691-3.285a.5.5 0 0 0 .25-.436Zm-7.367.982 6.355-3.707.011 2.44-5.44 3.14a4.978 4.978 0 0 1-7.364-5.306c.08.051.162.1.245.149l5.691 3.285a.5.5 0 0 0 .502 0Zm-4.533-5.89 6.387 3.65-2.107 1.23-5.44-3.14a4.978 4.978 0 0 1 .914-9.03c-.004.094-.006.19-.006.285v6.572a.5.5 0 0 0 .252.434Z" clip-rule="evenodd"></path></svg>