<svg xmlns="http://www.w3.org/2000/svg" fill="none" viewBox="0 0 24 24"><path fill="currentColor" fill-rule="evenodd" d="M23 12c0 6.075-4.925 11-11 11S1 18.075 1 12 5.925 1 12 1s11 4.925 11 11Zm-11.957-1.793a2.182 2.182 0 0 0-3.086 3.086l2.25 2.25a1 1 0 0 1-1.414 1.414l-2.25-2.25a4.182 4.182 0 1 1 5.914-5.914l2.25 2.25a1 1 0 0 1-1.414 1.414l-2.25-2.25Zm4.164-3.164a1 1 0 1 0-1.414 1.414l2.25 2.25a2.182 2.182 0 0 1-3.086 3.086l-2.25-2.25a1 1 0 0 0-1.414 1.414l2.25 2.25a4.182 4.182 0 1 0 5.914-5.914l-2.25-2.25Z" clip-rule="evenodd"></path></svg>