<svg width="373.7" height="200" viewBox="0 0 373.7 200" xmlns="http://www.w3.org/2000/svg">
    <path
        d="m326 0 47.7 100L326 200H47.7L0 100 47.7 0H326Zm-16 16.6H58.3L18.4 100l39.8 83.4h251.9l39.7-83.4L310 16.6ZM87.3 72v23.5h27V71.9h13.9v59.5h-13.8V107h-27v24.4H73.5V72h13.7Zm100.1 0V83h-19v48.3h-13.8V83.1h-19V72h51.8Zm53.4 0V83h-19v48.3h-13.8V83.1h-19V72h51.8Zm47 2.6c3.6 1.6 6.7 4.2 9 7.5 2 3.4 3.2 7.4 3 11.5.2 4-1 8-3 11.4a20 20 0 0 1-9 7.5c-4.4 1.8-9.1 2.7-13.8 2.6h-12v16.4H248V72H274a33 33 0 0 1 13.7 2.6ZM273 83.1H262v20.7H273c4.2 0 7.3-1 9.5-2.7a9.3 9.3 0 0 0 3.2-7.6c0-3.3-1-6-3.2-7.7-2.2-1.8-5.3-2.7-9.5-2.7Z"
        fill="currentColor" fill-rule="nonzero" />
</svg>