<svg xmlns="http://www.w3.org/2000/svg" fill="none" viewBox="0 0 14 14">
    <path fill="currentColor" fill-rule="evenodd"
        d="M3.91609 3.38108C4.89376 2.97597 5.94168 2.76746 6.99996 2.76746C8.05824 2.76746 9.10616 2.97597 10.0838 3.38108C11.0615 3.7862 11.9498 4.37998 12.6979 5.12849C12.9907 5.42146 13.4656 5.42158 13.7586 5.12877C14.0515 4.83595 14.0517 4.36108 13.7588 4.06811C12.8714 3.18022 11.8178 2.47589 10.658 1.99534C9.49833 1.51479 8.25529 1.26746 6.99996 1.26746C5.74463 1.26746 4.5016 1.51479 3.34188 1.99534C2.18217 2.47589 1.1285 3.18022 0.241077 4.06811C-0.0517396 4.36108 -0.0516161 4.83595 0.241353 5.12877C0.534323 5.42158 1.0092 5.42146 1.30201 5.12849C2.05014 4.37998 2.93841 3.7862 3.91609 3.38108ZM6.99999 5.60968C6.27156 5.60968 5.55032 5.75369 4.87774 6.03343C4.20516 6.31316 3.59452 6.72311 3.08094 7.23969C2.7889 7.53343 2.31403 7.53481 2.02029 7.24277C1.72654 6.95073 1.72516 6.47586 2.0172 6.18211C2.67018 5.52533 3.44656 5.00411 4.3017 4.64844C5.15683 4.29278 6.07384 4.10968 6.99999 4.10968C7.92614 4.10968 8.84315 4.29278 9.69829 4.64844C10.5534 5.00411 11.3298 5.52533 11.9828 6.18211C12.2748 6.47586 12.2734 6.95073 11.9797 7.24277C11.686 7.53481 11.2111 7.53343 10.919 7.23969C10.4055 6.72311 9.79483 6.31316 9.12225 6.03343C8.44967 5.75369 7.72843 5.60968 6.99999 5.60968ZM6.02026 8.54883C6.33942 8.41417 6.68232 8.34479 7.02872 8.34479C7.37513 8.34479 7.71803 8.41417 8.03719 8.54883C8.35635 8.68349 8.64531 8.88071 8.88702 9.12885C9.17604 9.42557 9.65087 9.43181 9.94759 9.14278C10.2443 8.85376 10.2505 8.37893 9.96152 8.08222C9.58005 7.69059 9.12401 7.37934 8.6203 7.16681C8.1166 6.95428 7.57543 6.84479 7.02872 6.84479C6.48202 6.84479 5.94085 6.95428 5.43714 7.16681C4.93344 7.37934 4.4774 7.69059 4.09593 8.08222C3.80691 8.37893 3.81314 8.85376 4.10986 9.14278C4.40657 9.43181 4.88141 9.42557 5.17043 9.12885C5.41214 8.88071 5.7011 8.68349 6.02026 8.54883ZM5.40771 11.7133C5.40771 10.8339 6.12061 10.121 7.00002 10.121C7.87942 10.121 8.59232 10.8339 8.59232 11.7133C8.59232 12.5927 7.87942 13.3056 7.00002 13.3056C6.12061 13.3056 5.40771 12.5927 5.40771 11.7133Z"
        clip-rule="evenodd"></path>
</svg>