<svg xmlns="http://www.w3.org/2000/svg" viewBox="0 0 24 24"><g><path d="M16.6 12.64a.24.24 0 0 0-.08-.24 2.23 2.23 0 0 1-.77-1.68 2.2 2.2 0 0 1 .08-.58.24.24 0 0 0-.09-.27A8.74 8.74 0 0 0 11 8.22h-.08a.26.26 0 0 0-.27.18 2.5 2.5 0 0 1-2.4 1.83.05.05 0 0 0-.05 0 12.53 12.53 0 0 0-.09 3.86.27.27 0 0 0 .21.22 21.21 21.21 0 0 1 6.36 2.12.26.26 0 0 0 .32-.08 10.14 10.14 0 0 0 1.6-3.71Z" fill="currentColor"></path><path d="M13.62 18a.26.26 0 0 0 .07-.22.25.25 0 0 0-.14-.19A19.76 19.76 0 0 0 8.91 16a.24.24 0 0 0-.24.08.24.24 0 0 0-.05.24 10.68 10.68 0 0 0 .55 1.33 10.37 10.37 0 0 0 1.62 2.28.26.26 0 0 0 .32.05A31.53 31.53 0 0 0 13.62 18Z" fill="currentColor"></path><path d="M6.3 14.1a.24.24 0 0 0 .2-.1.29.29 0 0 0 .07-.2 13 13 0 0 1 .2-4 .07.07 0 0 0 0-.07 2.59 2.59 0 0 1-.78-1 .24.24 0 0 0-.27-.15A11.14 11.14 0 0 0 .09 11.4a.24.24 0 0 0-.07.16v.41a11.72 11.72 0 0 0 .25 2.38.23.23 0 0 0 .11.16.21.21 0 0 0 .19 0 20.24 20.24 0 0 1 5.73-.41Z" fill="currentColor"></path><path d="M9.23 20.91a.23.23 0 0 0 .15-.17.25.25 0 0 0-.05-.22 11.26 11.26 0 0 1-1.5-2.22 11.73 11.73 0 0 1-.91-2.46.25.25 0 0 0-.22-.19A19 19 0 0 0 1 16a.27.27 0 0 0-.17.13.23.23 0 0 0 0 .2A12 12 0 0 0 5 21.67a.3.3 0 0 0 .15 0 11.46 11.46 0 0 0 4.08-.76Z" fill="currentColor"></path><path d="M18.93 13a.23.23 0 0 0-.26-.08 2.7 2.7 0 0 1-.41.08.25.25 0 0 0-.22.19c-.58 2.66-2.13 5.35-5.75 7.84a.31.31 0 0 0-.11.19.32.32 0 0 0 .08.21 28.59 28.59 0 0 0 2.67 2.12.22.22 0 0 0 .21 0 12 12 0 0 0 6.45-4.38.25.25 0 0 0 .05-.19A13.35 13.35 0 0 0 18.93 13Z" fill="currentColor"></path><path d="M5.7 7.06a.25.25 0 0 0 .2-.17A2.49 2.49 0 0 1 8 5.24a.09.09 0 0 0 .08-.06 19.55 19.55 0 0 1 3-4.74.23.23 0 0 0 0-.27.25.25 0 0 0-.18-.17A12 12 0 0 0 .5 8.59a.24.24 0 0 0 .09.27.24.24 0 0 0 .28 0 12.89 12.89 0 0 1 4.83-1.8Z" fill="currentColor"></path><path d="M10.77 22.05a.24.24 0 0 0-.28 0 13.26 13.26 0 0 1-2.36.83.25.25 0 0 0 0 .48A11.94 11.94 0 0 0 12 24h.3a.26.26 0 0 0 .23-.17.24.24 0 0 0-.09-.27c-.52-.47-1.09-.96-1.67-1.51Z" fill="currentColor"></path><path d="M18.75 8.44a.25.25 0 0 0 .15.22 2.26 2.26 0 0 1 1.35 2.06 2.23 2.23 0 0 1-.23 1 .24.24 0 0 0 0 .28 15.21 15.21 0 0 1 2.52 4.6.24.24 0 0 0 .23.17.22.22 0 0 0 .23-.15A11.76 11.76 0 0 0 24 12a12 12 0 0 0-5.78-10.29.26.26 0 0 0-.28 0 .24.24 0 0 0-.09.26 28.9 28.9 0 0 1 .9 6.47Z" fill="currentColor"></path><path d="M9.61 5.38a.26.26 0 0 0 .08.31 2.43 2.43 0 0 1 .8.94.24.24 0 0 0 .3.12H11a10.25 10.25 0 0 1 5.69 2 .24.24 0 0 0 .27 0l.14-.06a.25.25 0 0 0 .15-.23A30.38 30.38 0 0 0 16 .76a.23.23 0 0 0-.2-.16 11.66 11.66 0 0 0-2.21-.52.24.24 0 0 0-.21.08 22.27 22.27 0 0 0-3.77 5.22Z" fill="currentColor"></path></g></svg>