<svg xmlns="http://www.w3.org/2000/svg" viewBox="0 0 24 24"><path d="M20.5 19.34 16.14 12a1 1 0 0 1-.14-.51V2.5a.5.5 0 0 1 .5-.5H18a1 1 0 0 0 0-2H6a1 1 0 0 0 0 2h1.5a.5.5 0 0 1 .5.5v9a1 1 0 0 1-.14.51l-4.32 7.27A3 3 0 0 0 6 24h12a3 3 0 0 0 2.49-4.66ZM8.67 16a.5.5 0 0 1-.43-.25.5.5 0 0 1 0-.5l1.62-2.74A1 1 0 0 0 10 12V2.5a.5.5 0 0 1 .5-.5h3a.5.5 0 0 1 .5.5v2.75a.5.5 0 0 1-.5.5h-1.32a.75.75 0 0 0 0 1.5h1.32a.5.5 0 0 1 .5.5v1a.5.5 0 0 1-.5.5h-1.32a.75.75 0 0 0 0 1.5h1.32a.5.5 0 0 1 .5.5V12a1 1 0 0 0 .14.51l1.61 2.74a.47.47 0 0 1 0 .5.52.52 0 0 1-.44.25Zm.82 5.82a1.5 1.5 0 1 1 1.5-1.5 1.5 1.5 0 0 1-1.5 1.5Zm4.22-3a1 1 0 0 1 0-2 1 1 0 0 1 0 2Zm2.49 3.09a1 1 0 1 1 1-1 1 1 0 0 1-1 .98Z" fill="currentColor"></path></svg>