<svg xmlns="http://www.w3.org/2000/svg" fill="none" viewBox="0 0 14 14">
    <path fill="currentColor" fill-rule="evenodd"
        d="M1.62482 0.258331C1.51043 0.389983 1.44119 0.561906 1.44119 0.750001V10.3676L1.4412 10.3699C1.44215 10.686 1.53063 10.9957 1.6968 11.2646C1.86298 11.5335 2.10037 11.7511 2.38267 11.8934L2.38475 11.8944L6.22971 13.8169L6.56721 13.1471L6.2318 13.8179L6.23097 13.8175C6.49123 13.9484 6.78058 14.0107 7.07165 13.9985C7.36319 13.9863 7.64677 13.8997 7.89545 13.7471C8.14414 13.5945 8.34968 13.3808 8.49255 13.1264C8.63542 12.8719 8.71088 12.5852 8.71176 12.2934L8.71177 12.2911V12.0794H10.8471C11.301 12.0794 11.7364 11.899 12.0575 11.578C12.3785 11.257 12.5588 10.8216 12.5588 10.3676V1.71176C12.5588 1.25778 12.3785 0.822382 12.0575 0.501364C11.7364 0.180347 11.301 0 10.8471 0H2.19143H2.19119C2.00431 0 1.83339 0.0683517 1.70208 0.181419C1.67435 0.205263 1.64855 0.230985 1.62482 0.258331ZM8.71177 10.5794H10.8471C10.9032 10.5794 10.9571 10.5571 10.9968 10.5174C11.0365 10.4776 11.0588 10.4238 11.0588 10.3676V1.71176C11.0588 1.6556 11.0365 1.60174 10.9968 1.56202C10.9571 1.52231 10.9032 1.5 10.8471 1.5H5.37347L7.76771 2.69493L7.77028 2.69621L7.77028 2.69621C8.05518 2.83976 8.29429 3.06007 8.46064 3.33229C8.62648 3.60366 8.71343 3.91584 8.71177 4.23382L8.71175 4.2368L7.96177 4.23158H8.71177V4.23382V10.5794Z"
        clip-rule="evenodd"></path>
</svg>