<svg xmlns="http://www.w3.org/2000/svg" viewBox="0 0 24 24"><g><path d="M18.56 3.93a4.94 4.94 0 1 0 0 9.88 4.5 4.5 0 0 0 1.11-.14.26.26 0 0 1 .26.1.24.24 0 0 1 .07.23 6.83 6.83 0 0 1-5.88 3.52 1.25 1.25 0 1 0 0 2.5 9.71 9.71 0 0 0 9.43-9.94V8.87a5 5 0 0 0-4.99-4.94Z" fill="currentColor"></path><path d="M6.24 3.93a4.94 4.94 0 1 0 0 9.88 4.56 4.56 0 0 0 1.11-.14.26.26 0 0 1 .26.1.24.24 0 0 1 0 .27 6.84 6.84 0 0 1-5.88 3.52 1.25 1.25 0 0 0 0 2.5 9.71 9.71 0 0 0 9.43-9.94V8.87a5 5 0 0 0-4.92-4.94Z" fill="currentColor"></path></g></svg>