<svg xmlns="http://www.w3.org/2000/svg" fill="none" viewBox="0 0 14 14">
    <path fill="currentColor" fill-rule="evenodd"
        d="M0.21833 9.57647L1.69597 1.63418C1.8722 0.686948 2.69874 0 3.66223 0H4.09086C5.1593 0 6.03906 0.839791 6.0887 1.90708L6.16277 3.49951H7.83723L7.9113 1.90708C7.96094 0.839791 8.8407 0 9.90914 0H10.3378C11.3013 0 12.1278 0.686948 12.304 1.63418L13.7817 9.57647C13.9227 9.94048 14 10.3362 14 10.75C14 12.5449 12.5449 14 10.75 14C8.95507 14 7.5 12.5449 7.5 10.75C7.5 10.6467 7.50482 10.5445 7.51425 10.4437L7.65119 7.49951H6.34881L6.48575 10.4437C6.49518 10.5445 6.5 10.6467 6.5 10.75C6.5 12.5449 5.04493 14 3.25 14C1.45507 14 0 12.5449 0 10.75C0 10.3362 0.0773314 9.94048 0.21833 9.57647ZM3.25 9C2.2835 9 1.5 9.7835 1.5 10.75C1.5 11.7165 2.2835 12.5 3.25 12.5C4.2165 12.5 5 11.7165 5 10.75C5 9.7835 4.2165 9 3.25 9ZM10.75 9C9.7835 9 9 9.7835 9 10.75C9 11.7165 9.7835 12.5 10.75 12.5C11.7165 12.5 12.5 11.7165 12.5 10.75C12.5 9.7835 11.7165 9 10.75 9Z"
        clip-rule="evenodd"></path>
</svg>