<svg xmlns="http://www.w3.org/2000/svg" viewBox="0 0 24 24"><g><path d="M11 21.66H1a1 1 0 0 0 0 2h10a1 1 0 0 0 0-2Z" fill="currentColor"></path><path d="M20.51 6.43 14.86.78a1.49 1.49 0 0 0-2.12 0L5 8.54A1 1 0 0 0 5 10l6.36 6.37a1 1 0 0 0 1.41 0l7.76-7.76a1.5 1.5 0 0 0-.02-2.18Z" fill="currentColor"></path><path d="M1.8 19.11a1.75 1.75 0 0 0 1.2.55h4.66a1.84 1.84 0 0 0 1.22-.53l1-1.13a.5.5 0 0 0 0-.69L4.1 11.59a.52.52 0 0 0-.71 0l-2.65 2.7a2.59 2.59 0 0 0 0 3.6Z" fill="currentColor"></path><path d="M16.5 21.66h-2a1 1 0 1 0 0 2h2a1 1 0 0 0 0-2Z" fill="currentColor"></path><path d="M23 21.66h-2a1 1 0 0 0 0 2h2a1 1 0 0 0 0-2Z" fill="currentColor"></path></g></svg>