<svg xmlns="http://www.w3.org/2000/svg" fill="none" viewBox="0 0 14 14">
    <path fill="currentColor" fill-rule="evenodd"
        d="M9.38287 1.5C9.22907 1.5 9.0768 1.53045 8.93482 1.5896C8.79285 1.64875 8.664 1.73542 8.55569 1.84462L8.55435 1.84596L2.48546 7.934C2.17833 8.24673 2.00623 8.66755 2.00623 9.10593C2.00623 9.545 2.17888 9.96647 2.48693 10.2793L4.19162 12.0128C4.34286 12.1669 4.52384 12.2898 4.72293 12.3734C4.92203 12.457 5.13578 12.5 5.3517 12.5C5.56762 12.5 5.78137 12.457 5.98046 12.3734C6.17956 12.2898 6.35999 12.1674 6.51123 12.0133L6.51396 12.0105L12.2112 6.2654C12.5029 5.97128 12.9778 5.9693 13.2719 6.26096C13.566 6.55263 13.568 7.0275 13.2763 7.32161L7.5818 13.064C7.58132 13.0645 7.58084 13.065 7.58036 13.0654C7.28978 13.3611 6.94326 13.5961 6.56098 13.7565C6.17807 13.9172 5.76697 14 5.3517 14C4.93643 14 4.52532 13.9172 4.14241 13.7565C3.75955 13.5958 3.41255 13.3604 3.1217 13.0641C3.12167 13.0641 3.12174 13.0641 3.1217 13.0641L1.41805 11.3317C0.83373 10.7382 0.506226 9.93878 0.506226 9.10593C0.506226 8.27307 0.83373 7.47362 1.41805 6.88014L1.42131 6.87682L7.49069 0.788317C7.49095 0.788054 7.49121 0.787792 7.49147 0.787529C7.73906 0.538109 8.03354 0.340119 8.35796 0.204961C8.68272 0.0696598 9.03106 0 9.38287 0C9.73469 0 10.083 0.0696596 10.4078 0.204961C10.732 0.340052 11.0264 0.537911 11.2739 0.787154C11.2743 0.787542 11.2747 0.787929 11.2751 0.788317L11.9506 1.46381C11.9509 1.4642 11.9513 1.46458 11.9517 1.46497C12.201 1.71248 12.3988 2.00682 12.5339 2.33108C12.6692 2.65584 12.7389 3.00418 12.7389 3.35599C12.7389 3.70781 12.6692 4.05615 12.5339 4.38091C12.3989 4.70496 12.2012 4.99914 11.9522 5.24655C11.9516 5.2471 11.9511 5.24764 11.9506 5.24818L6.57362 10.6443C6.57334 10.6445 6.57307 10.6448 6.5728 10.6451C6.41423 10.8047 6.22567 10.9315 6.01795 11.018C5.80987 11.1047 5.58669 11.1493 5.36127 11.1493C5.13586 11.1493 4.91268 11.1047 4.7046 11.018C4.49652 10.9313 4.30767 10.8043 4.14893 10.6443L4.14366 10.6389L3.81262 10.2984C3.65518 10.1408 3.53007 9.95392 3.44438 9.74824C3.3577 9.54016 3.31306 9.31698 3.31306 9.09156C3.31306 8.86615 3.35769 8.64297 3.44438 8.43489C3.53106 8.22684 3.65807 8.038 3.81809 7.87928C3.81811 7.87926 3.81807 7.8793 3.81809 7.87928L7.42794 4.29812C7.722 4.0064 8.19687 4.0083 8.48859 4.30236C8.78031 4.59642 8.77842 5.07129 8.48436 5.36301L4.87451 8.94416C4.85506 8.96346 4.83956 8.98647 4.82902 9.01175C4.81849 9.03704 4.81306 9.06417 4.81306 9.09156C4.81306 9.11896 4.81849 9.14608 4.82902 9.17137C4.83956 9.19666 4.855 9.21961 4.87445 9.23891L4.88413 9.24851L5.21562 9.58964C5.23455 9.6083 5.25691 9.62316 5.28146 9.63339C5.30675 9.64392 5.33388 9.64935 5.36127 9.64935C5.38867 9.64935 5.41579 9.64392 5.44108 9.63339C5.46637 9.62285 5.48932 9.60741 5.50862 9.58796L5.50984 9.58673L10.8911 4.18629L10.8942 4.18318C11.0034 4.07487 11.0901 3.94601 11.1493 3.80404C11.2084 3.66207 11.2389 3.5098 11.2389 3.35599C11.2389 3.20219 11.2084 3.04991 11.1493 2.90794C11.0901 2.76597 11.0034 2.63712 10.8942 2.52881L10.8921 2.52664L10.2122 1.8468L10.2101 1.84462C10.1018 1.73542 9.9729 1.64875 9.83093 1.5896C9.68895 1.53045 9.53667 1.5 9.38287 1.5Z"
        clip-rule="evenodd"></path>
</svg>