<svg xmlns="http://www.w3.org/2000/svg" viewBox="0 0 24 24"><g><path d="M19.5 7.5h-15A.5.5 0 0 0 4 8v14a2 2 0 0 0 2 2h12a2 2 0 0 0 2-2V8a.5.5 0 0 0-.5-.5Zm-9.25 13a.75.75 0 0 1-1.5 0v-9a.75.75 0 0 1 1.5 0Zm5 0a.75.75 0 0 1-1.5 0v-9a.75.75 0 0 1 1.5 0Z" fill="currentColor"></path><path d="M22 4h-4.75a.25.25 0 0 1-.25-.25V2.5A2.5 2.5 0 0 0 14.5 0h-5A2.5 2.5 0 0 0 7 2.5v1.25a.25.25 0 0 1-.25.25H2a1 1 0 0 0 0 2h20a1 1 0 0 0 0-2ZM9 3.75V2.5a.5.5 0 0 1 .5-.5h5a.5.5 0 0 1 .5.5v1.25a.25.25 0 0 1-.25.25h-5.5A.25.25 0 0 1 9 3.75Z" fill="currentColor"></path></g></svg>