<svg xmlns="http://www.w3.org/2000/svg" viewBox="0 0 24 24"><g><path d="M9.93 3.93a9.71 9.71 0 0 0-9.43 10v1.24a4.94 4.94 0 1 0 4.94-4.94 4.5 4.5 0 0 0-1.11.14.24.24 0 0 1-.26-.09.26.26 0 0 1 0-.28 6.83 6.83 0 0 1 5.86-3.57 1.25 1.25 0 1 0 0-2.5Z" fill="currentColor"></path><path d="M22.25 6.43a1.25 1.25 0 1 0 0-2.5 9.71 9.71 0 0 0-9.43 10v1.24a4.95 4.95 0 1 0 4.94-4.94 4.56 4.56 0 0 0-1.11.14.24.24 0 0 1-.26-.09.26.26 0 0 1 0-.28 6.83 6.83 0 0 1 5.86-3.57Z" fill="currentColor"></path></g></svg>