<svg xmlns="http://www.w3.org/2000/svg" fill="none" viewBox="0 0 14 14">
    <path fill="currentColor" fill-rule="evenodd"
        d="M11.1775 0.0909653C11.5843 0.169188 11.8506 0.562345 11.7724 0.969106L11.2591 3.63851H13.1725C13.5868 3.63851 13.9225 3.97429 13.9225 4.38851C13.9225 4.80272 13.5868 5.13851 13.1725 5.13851H10.9706L10.2546 8.86147H13.1725C13.5868 8.86147 13.9225 9.19725 13.9225 9.61147C13.9225 10.0257 13.5868 10.3615 13.1725 10.3615H9.96618L9.39834 13.3142C9.32012 13.721 8.92696 13.9873 8.5202 13.9091C8.11344 13.8309 7.84711 13.4377 7.92533 13.031L8.43869 10.3615H4.74325L4.17541 13.3142C4.09719 13.721 3.70403 13.9873 3.29727 13.9091C2.89051 13.8309 2.62418 13.4377 2.7024 13.031L3.21576 10.3615H0.827423C0.41321 10.3615 0.0774231 10.0257 0.0774231 9.61147C0.0774231 9.19725 0.41321 8.86147 0.827423 8.86147H3.50422L4.22018 5.13851H0.827423C0.41321 5.13851 0.0774231 4.80272 0.0774231 4.38851C0.0774231 3.97429 0.41321 3.63851 0.827423 3.63851H4.50864L5.07646 0.685835C5.15468 0.279074 5.54784 0.0127422 5.9546 0.0909653C6.36136 0.169188 6.62769 0.562345 6.54947 0.969106L6.03612 3.63851H9.73157L10.2994 0.685835C10.3776 0.279074 10.7708 0.0127422 11.1775 0.0909653ZM5.74766 5.13851L5.03171 8.86147H8.72715L9.44311 5.13851H5.74766Z"
        clip-rule="evenodd"></path>
</svg>