<svg xmlns="http://www.w3.org/2000/svg" fill="none" viewBox="0 0 14 14">
    <path fill="currentColor" fill-rule="evenodd"
        d="M7.99997 1.06262C7.99997 0.510337 7.55225 0.0626221 6.99997 0.0626221C6.44768 0.0626221 5.99997 0.510337 5.99997 1.06262V2.373H5.52801C3.80505 2.36737 2.83921 3.78152 2.79581 5.06086C2.77651 5.63008 2.9283 6.23291 3.30814 6.73961C3.69651 7.25767 4.27763 7.61349 4.99639 7.74538C5.01327 7.74847 5.03022 7.75113 5.04723 7.75336L5.99997 7.87792V9.6273H4.27081C3.71852 9.6273 3.27081 10.075 3.27081 10.6273C3.27081 11.1796 3.71852 11.6273 4.27081 11.6273H5.99997V12.9377C5.99997 13.49 6.44769 13.9377 6.99997 13.9377C7.55225 13.9377 7.99997 13.49 7.99997 12.9377V11.6273H8.47182C10.1403 11.6328 11.0943 10.3518 11.1962 9.11291C11.2958 7.90195 10.6001 6.5479 9.00347 6.25493C8.9866 6.25183 8.96965 6.24917 8.95263 6.24695L7.99997 6.12239V4.373H9.72906C10.2813 4.373 10.7291 3.92529 10.7291 3.373C10.7291 2.82072 10.2813 2.373 9.72906 2.373H7.99997V1.06262ZM5.99997 4.373H5.52225C5.0985 4.37133 4.80859 4.71796 4.79466 5.12865C4.78272 5.48094 4.99836 5.70614 5.33567 5.77405L5.99997 5.8609V4.373ZM7.99997 8.13941V9.6273H8.47761C8.73757 9.62833 8.8922 9.53982 8.9923 9.43766C9.10552 9.32211 9.1866 9.14744 9.20291 8.94901C9.21854 8.75897 9.17123 8.59321 9.09164 8.47827C9.02411 8.38076 8.90417 8.275 8.6639 8.22622L8.69335 8.23007C8.6884 8.22929 8.68069 8.22799 8.67302 8.2267C8.65284 8.22329 8.6329 8.21993 8.6639 8.22622L7.99997 8.13941Z"
        clip-rule="evenodd"></path>
</svg>