<svg xmlns="http://www.w3.org/2000/svg" fill="none" viewBox="0 0 14 14">
    <path fill="currentColor" fill-rule="evenodd"
        d="M0.551514 2.27783C0.551514 2.12295 0.628534 1.90984 0.908718 1.64846C1.18986 1.38619 1.63069 1.12123 2.22768 0.885674C3.41794 0.416028 5.10495 0.111832 6.99996 0.111832C8.89497 0.111832 10.582 0.416028 11.7722 0.885674C12.3692 1.12123 12.8101 1.38619 13.0912 1.64846C13.3714 1.90984 13.4484 2.12295 13.4484 2.27783C13.4484 2.4327 13.3714 2.64582 13.0912 2.90719C12.8101 3.16946 12.3692 3.43442 11.7722 3.66998C10.582 4.13963 8.89497 4.44382 6.99996 4.44382C5.10495 4.44382 3.41794 4.13963 2.22768 3.66998C1.63069 3.43442 1.18986 3.16946 0.908718 2.90719C0.628534 2.64582 0.551514 2.4327 0.551514 2.27783ZM13.5121 4.16708C13.1448 4.4223 12.7095 4.64394 12.231 4.83274C10.8612 5.37323 9.01151 5.69382 6.99996 5.69382C4.98841 5.69382 3.1387 5.37323 1.76888 4.83274C1.29043 4.64395 0.855157 4.42233 0.487915 4.16712V7.34493C0.543884 7.42983 0.623381 7.52294 0.734108 7.62362C1.0241 7.8873 1.47858 8.15348 2.09315 8.38991C3.31814 8.86116 5.05276 9.16599 7 9.16599C8.94723 9.16599 10.6819 8.86116 11.9068 8.38991C12.5214 8.15348 12.9759 7.8873 13.2659 7.62362C13.3766 7.52295 13.4561 7.42984 13.5121 7.34494V4.16708ZM0.487915 11.209V8.99273C0.829079 9.20555 1.22004 9.39333 1.64435 9.55656C3.04569 10.0957 4.93936 10.416 7 10.416C9.06063 10.416 10.9543 10.0957 12.3556 9.55656C12.7799 9.39333 13.1709 9.20556 13.5121 8.99273V11.209C13.5121 12.7496 10.5967 14 6.99999 14C3.40332 14 0.487915 12.7496 0.487915 11.209Z"
        clip-rule="evenodd"></path>
</svg>