<svg xmlns="http://www.w3.org/2000/svg" fill="none" viewBox="0 0 14 14">
    <path fill="currentColor" fill-rule="evenodd"
        d="M1.5 0.0192719C0.671573 0.0192719 0 0.690845 0 1.51927V3.17811C0 4.00653 0.671573 4.67811 1.5 4.67811H12.5C13.3284 4.67811 14 4.00653 14 3.17811V1.51927C14 0.690845 13.3284 0.0192719 12.5 0.0192719H1.5ZM0 7.41718C0 6.58875 0.671573 5.91718 1.5 5.91718H12.5C13.3284 5.91718 14 6.58875 14 7.41718V9.07601C14 9.90444 13.3284 10.576 12.5 10.576H7.75V12.4868H12C12.4142 12.4868 12.75 12.8226 12.75 13.2368C12.75 13.651 12.4142 13.9868 12 13.9868H7H2C1.58579 13.9868 1.25 13.651 1.25 13.2368C1.25 12.8226 1.58579 12.4868 2 12.4868H6.25V10.576H1.5C0.671573 10.576 0 9.90444 0 9.07601V7.41718ZM4.70557 2.34868C4.70557 2.0035 4.98539 1.72368 5.33057 1.72368H7.33057C7.67574 1.72368 7.95557 2.0035 7.95557 2.34868C7.95557 2.69386 7.67574 2.97368 7.33057 2.97368H5.33057C4.98539 2.97368 4.70557 2.69386 4.70557 2.34868ZM5.33057 7.62158C4.98539 7.62158 4.70557 7.9014 4.70557 8.24658C4.70557 8.59176 4.98539 8.87158 5.33057 8.87158H7.33057C7.67574 8.87158 7.95557 8.59176 7.95557 8.24658C7.95557 7.9014 7.67574 7.62158 7.33057 7.62158H5.33057ZM1.62933 2.34868C1.62933 2.83193 2.02108 3.22368 2.50433 3.22368C2.98758 3.22368 3.37933 2.83193 3.37933 2.34868C3.37933 1.86543 2.98758 1.47368 2.50433 1.47368C2.02108 1.47368 1.62933 1.86543 1.62933 2.34868ZM1.62933 8.24658C1.62933 8.72983 2.02108 9.12158 2.50433 9.12158C2.98758 9.12158 3.37933 8.72983 3.37933 8.24658C3.37933 7.76333 2.98758 7.37158 2.50433 7.37158C2.02108 7.37158 1.62933 7.76333 1.62933 8.24658Z"
        clip-rule="evenodd"></path>
</svg>