<svg xmlns="http://www.w3.org/2000/svg" fill="none" viewBox="0 0 14 14">
    <g>
        <path fill="currentColor" fill-rule="evenodd"
            d="M7 14C10.866 14 14 10.866 14 7C14 3.13401 10.866 0 7 0C3.13401 0 0 3.13401 0 7C0 10.866 3.13401 14 7 14ZM5.46623 5.1152C5.55999 5.02143 5.68717 4.96875 5.81978 4.96875H7.65939C7.93553 4.96875 8.15939 5.19261 8.15939 5.46875C8.15939 5.74489 7.93553 5.96875 7.65939 5.96875H6.31978V6.37244H7.42944C7.70558 6.37244 7.92944 6.59629 7.92944 6.87244C7.92944 7.14858 7.70558 7.37244 7.42944 7.37244H6.31978V8.03125H7.65939C7.93553 8.03125 8.15939 8.25511 8.15939 8.53125C8.15939 8.80739 7.93553 9.03125 7.65939 9.03125H5.81978C5.54364 9.03125 5.31978 8.80739 5.31978 8.53125V6.87244V5.46875C5.31978 5.33614 5.37246 5.20896 5.46623 5.1152ZM1.88323 4.9902C2.09411 4.92635 2.32193 5.00807 2.44415 5.1914L3.56979 6.87986V5.46875C3.56979 5.19261 3.79365 4.96875 4.06979 4.96875C4.34593 4.96875 4.56979 5.19261 4.56979 5.46875V8.53125C4.56979 8.75158 4.42556 8.94595 4.21468 9.0098C4.0038 9.07365 3.77598 8.99193 3.65376 8.8086L2.52812 7.12014V8.53125C2.52812 8.80739 2.30426 9.03125 2.02812 9.03125C1.75198 9.03125 1.52812 8.80739 1.52812 8.53125V5.46875C1.52812 5.24842 1.67235 5.05405 1.88323 4.9902ZM11.3229 9.03125C11.6473 9.03125 11.9241 8.79676 11.9774 8.47682L12.4651 5.55095C12.5105 5.27856 12.3265 5.02095 12.0541 4.97555C11.7817 4.93016 11.5241 5.11417 11.4787 5.38655L11.2094 7.00229L10.998 6.38738C10.9162 6.14938 10.6923 5.98958 10.4406 5.98958C10.189 5.98958 9.96505 6.14938 9.88324 6.38738L9.67186 7.00229L9.40257 5.38655C9.35718 5.11417 9.09956 4.93016 8.82718 4.97556C8.55479 5.02095 8.37078 5.27857 8.41618 5.55095L8.90383 8.47682C8.95715 8.79676 9.23396 9.03125 9.55831 9.03125C9.84162 9.03125 10.0937 8.85136 10.1858 8.58343L10.4406 7.84206L10.6955 8.58343C10.7876 8.85136 11.0396 9.03125 11.3229 9.03125Z"
            clip-rule="evenodd"></path>
    </g>
</svg>