<svg xmlns="http://www.w3.org/2000/svg" fill="none" viewBox="0 0 14 14">
    <path fill="currentColor" fill-rule="evenodd"
        d="M1.50226 6.99999C1.50226 3.96368 3.96368 1.50226 6.99999 1.50226C7.78361 1.50226 8.52894 1.66621 9.20354 1.96167V2.23813C9.20354 2.68368 9.02655 3.11098 8.7115 3.42603C8.39645 3.74108 7.96915 3.91808 7.5236 3.91808C7.29823 3.91795 7.07515 3.96318 6.86762 4.05105C6.6601 4.13893 6.47237 4.26767 6.31563 4.42959C6.15888 4.59152 6.03632 4.78333 5.95523 4.9936C5.87415 5.20388 5.83621 5.42832 5.84366 5.65356V7.04194C5.84366 7.26256 5.8002 7.48101 5.71578 7.68483C5.63135 7.88865 5.50761 8.07385 5.35161 8.22984C5.19561 8.38584 5.01042 8.50959 4.8066 8.59401C4.60278 8.67844 4.38432 8.72189 4.16371 8.72189H2.46988H1.7773C1.59883 8.18025 1.50226 7.6014 1.50226 6.99999ZM9.71406 11.7822C10.8973 11.1092 11.8063 10.0098 12.2321 8.69311L12.0961 8.5934C11.6577 8.36683 11.1726 8.24555 10.6791 8.23917H8.80677C8.42317 8.274 8.06645 8.45101 7.8067 8.73543C7.54694 9.01984 7.40292 9.39111 7.40292 9.77629C7.40292 10.1615 7.54694 10.5327 7.8067 10.8171C8.06645 11.1016 8.42317 11.2786 8.80677 11.3134C8.95071 11.3117 9.09355 11.3386 9.22702 11.3926C9.36049 11.4465 9.48192 11.5264 9.5843 11.6276C9.63237 11.6751 9.67579 11.7269 9.71406 11.7822ZM6.99999 0.0022583C3.13525 0.0022583 0.0022583 3.13525 0.0022583 6.99999C0.0022583 10.8647 3.13525 13.9977 6.99999 13.9977C10.8647 13.9977 13.9977 10.8647 13.9977 6.99999C13.9977 3.13525 10.8647 0.0022583 6.99999 0.0022583Z"
        clip-rule="evenodd"></path>
</svg>