<svg viewBox="0 0 24 24" xmlns="http://www.w3.org/2000/svg" stroke-width="1.5"><path d="m13.5 22.5-2.929-2.344A1.637 1.637 0 0 1 10 18.48h0a1.637 1.637 0 0 1 2.321-1.067L13.5 18v-5.25a1.5 1.5 0 0 1 1.5-1.5h0a1.5 1.5 0 0 1 1.5 1.5v3l1.993.332A3 3 0 0 1 21 19.041V22.5" fill="none" stroke="currentColor" stroke-linecap="round" stroke-linejoin="round"></path><path d="M5.247 6h7.5" fill="none" stroke="currentColor" stroke-linecap="round" stroke-linejoin="round"></path><path d="M5.247 9h7.5" fill="none" stroke="currentColor" stroke-linecap="round" stroke-linejoin="round"></path><path d="M5.247 12h3.75" fill="none" stroke="currentColor" stroke-linecap="round" stroke-linejoin="round"></path><path d="M7.5 18H2.247a1.5 1.5 0 0 1-1.5-1.5V3a1.5 1.5 0 0 1 1.5-1.5h19.5a1.5 1.5 0 0 1 1.5 1.5v12" fill="none" stroke="currentColor" stroke-linecap="round" stroke-linejoin="round"></path><path d="M18.747 1.5v9" fill="none" stroke="currentColor" stroke-linecap="round" stroke-linejoin="round"></path></svg>