<svg xmlns="http://www.w3.org/2000/svg" fill="none" viewBox="0 0 24 24" stroke-width="1.5"><path stroke="currentColor" stroke-linecap="round" stroke-linejoin="round" d="M17.401.75H6.598c-1.08 0-1.957.876-1.957 1.957v18.586c0 1.08.876 1.957 1.957 1.957h10.803c1.08 0 1.957-.876 1.957-1.957V2.707c0-1.08-.876-1.957-1.957-1.957Z"></path><path stroke="currentColor" d="M8.459 8.695a.5.5 0 0 1 0-1"></path><path stroke="currentColor" d="M8.459 8.695a.5.5 0 0 0 0-1"></path><path stroke="currentColor" d="M8.459 4.945a.5.5 0 0 1 0-1"></path><path stroke="currentColor" d="M8.459 4.945a.5.5 0 0 0 0-1"></path><path stroke="currentColor" d="M11.959 6.945a.5.5 0 0 1 0-1"></path><path stroke="currentColor" d="M11.959 6.945a.5.5 0 0 0 0-1"></path></svg>