<svg viewBox="0 0 24 24" fill="none" xmlns="http://www.w3.org/2000/svg"><path d="M14.7 10.2v3.6m2.556-6.147a3.6 3.6 0 0 0-5.094 0m7.632-2.547a7.2 7.2 0 0 0-10.179 0M4.8 13.8h14.4a1.8 1.8 0 0 1 1.8 1.8v3.6a1.8 1.8 0 0 1-1.8 1.8H4.8A1.8 1.8 0 0 1 3 19.2v-3.6a1.8 1.8 0 0 1 1.8-1.8Z" stroke="currentColor" stroke-linecap="round" stroke-linejoin="round"/><path fill-rule="evenodd" clip-rule="evenodd" d="M6 17.5a1 1 0 1 1 2 0 1 1 0 0 1-2 0ZM10 17.5a1 1 0 1 1 2 0 1 1 0 0 1-2 0Z" fill="currentColor"/></svg>
