<svg viewBox="0 0 24 24" fill="none" xmlns="http://www.w3.org/2000/svg"><path d="M12 9.286a2.5 2.5 0 1 1 2.5 2.5m-2.5-2.5a2.5 2.5 0 1 0-2.5 2.5m2.5-2.5v.833m2.5 1.667a2.5 2.5 0 1 1-2.5 2.5m2.5-2.5h-.833m-4.167 0a2.5 2.5 0 1 0 2.5 2.5m-2.5-2.5h.833M12 10.119c-.92 0-1.667.746-1.667 1.667M12 10.119c.92 0 1.667.746 1.667 1.667M12 14.286v-.834m0 .834V20.5m-1.667-8.714c0 .92.746 1.666 1.667 1.666m1.667-1.666c0 .92-.746 1.666-1.667 1.666M4.2 3h15.6S21 3 21 4.2v15.6s0 1.2-1.2 1.2H4.2S3 21 3 19.8V4.2S3 3 4.2 3Z" stroke="currentColor" stroke-linecap="round" stroke-linejoin="round"/></svg>
