<svg viewBox="0 0 24 24" fill="none" xmlns="http://www.w3.org/2000/svg"><path d="M11.566 18.582v2.778s3.367-.611 4.445-2.222c.58-.87.599-2.196.465-3.334m-10.698-3.01H3s.611-3.367 2.222-4.445c.87-.58 2.196-.6 3.334-.465m-.82 8.883-1.571-1.571-.625-.625a20.19 20.19 0 0 1 1.837-4.667c1.15-2.16 2.939-3.822 5.199-4.825 2.26-1.003 4.914-1.314 7.712-.903.486 3.46.349 9.4-5.665 12.92a20.57 20.57 0 0 1-4.73 1.828l-.586-.585-1.571-1.572Zm0 0L6.165 18.34" stroke="currentColor" stroke-linecap="round" stroke-linejoin="round"/></svg>
