<svg xmlns="http://www.w3.org/2000/svg" viewBox="0 0 24 24" stroke-width="1.5"><g><g><path d="M7.75 3.75h-4a1.5 1.5 0 0 0-1.5 1.5v16.5a1.5 1.5 0 0 0 1.5 1.5h16.5a1.5 1.5 0 0 0 1.5-1.5V5.25a1.5 1.5 0 0 0-1.5-1.5h-4" fill="none" stroke="currentColor" stroke-linecap="round" stroke-linejoin="round"></path><path d="M15.92 4.74a.75.75 0 0 1-.71.51H8.79a.75.75 0 0 1-.71-.51l-1-3a.75.75 0 0 1 .1-.68.77.77 0 0 1 .61-.31h8.42a.77.77 0 0 1 .61.31.75.75 0 0 1 .1.68Z" fill="none" stroke="currentColor" stroke-linecap="round" stroke-linejoin="round"></path><path d="M18.75 6.75v9.88a1.5 1.5 0 0 1-.44 1.06l-2.12 2.12a1.5 1.5 0 0 1-1.06.44H6a.76.76 0 0 1-.75-.75V6.75" fill="none" stroke="currentColor" stroke-linecap="round" stroke-linejoin="round"></path></g><path d="M13.75 20.25v-3.5a1.5 1.5 0 0 1 1.5-1.5h3.5" fill="none" stroke="currentColor" stroke-linecap="round" stroke-linejoin="round"></path></g></svg>