<svg viewBox="0 0 24 24" fill="none" xmlns="http://www.w3.org/2000/svg"><path d="M2 11.78v.44a2 2 0 0 0 2 2h.18a2 2 0 0 1 1.73 1l.25.43a2 2 0 0 1 0 2l-.08.15a2 2 0 0 0 .73 2.73l.38.22a2 2 0 0 0 2.73-.73l.1-.15a2 2 0 0 1 1.72-1h.51a1.999 1.999 0 0 1 1.74 1l.09.15a2 2 0 0 0 2.73.73l.38-.22a2 2 0 0 0 .73-2.73l-.08-.15a2 2 0 0 1 0-2l.25-.43a2 2 0 0 1 1.73-1H20a2 2 0 0 0 2-2v-.44a2 2 0 0 0-2-2h-.18a2 2 0 0 1-1.73-1l-.25-.43a2 2 0 0 1 0-2l.08-.15a2 2 0 0 0-.73-2.73l-.39-.22a2 2 0 0 0-2.73.73l-.08.15a2 2 0 0 1-1.74 1h-.5a2 2 0 0 1-1.74-1l-.09-.15a2 2 0 0 0-2.73-.73l-.38.22a2 2 0 0 0-.73 2.73l.08.15a2 2 0 0 1 0 2l-.25.43a2 2 0 0 1-1.73 1H4a2 2 0 0 0-2 2Z" stroke="currentColor" stroke-linecap="round" stroke-linejoin="round"/><path d="M15 12a3 3 0 1 0-6 0 3 3 0 0 0 6 0Z" stroke="currentColor" stroke-linecap="round" stroke-linejoin="round"/></svg>
