<svg xmlns="http://www.w3.org/2000/svg" fill="none" viewBox="0 0 24 24" stroke-width="1.5"><path stroke="currentColor" stroke-linecap="round" stroke-linejoin="round" d="M15.243 16.182c1.025-1.026.194-3.519-1.856-5.569-2.05-2.05-4.544-2.881-5.569-1.856-1.025 1.025-.194 3.518 1.856 5.568 2.05 2.05 4.544 2.882 5.569 1.857Z"></path><path stroke="currentColor" stroke-linecap="round" stroke-linejoin="round" d="M7.4 9.7.888 21.121a1.5 1.5 0 0 0 1.991 1.991L14.3 16.605"></path><path stroke="currentColor" stroke-linecap="round" stroke-linejoin="round" d="M12.857.75c.211 1.89.03 3.803-.531 5.62"></path><path stroke="currentColor" stroke-linecap="round" stroke-linejoin="round" d="m16.569 2.128-.53 2.651"></path><path stroke="currentColor" stroke-linecap="round" stroke-linejoin="round" d="M23.25 11.143a13.837 13.837 0 0 0-5.62.531"></path><path stroke="currentColor" stroke-linecap="round" stroke-linejoin="round" d="m21.872 7.431-2.651.53"></path><path stroke="currentColor" d="M8.083 5.154a.375.375 0 0 1 0-.75"></path><path stroke="currentColor" d="M8.083 5.154a.375.375 0 1 0 0-.75"></path><path stroke="currentColor" d="M15.508 8.337a.375.375 0 1 1 0-.75"></path><path stroke="currentColor" d="M15.508 8.337a.375.375 0 0 0 0-.75"></path><g><path stroke="currentColor" d="M19.75 4.094a.375.375 0 1 1 0-.75"></path><path stroke="currentColor" d="M19.75 4.094a.375.375 0 0 0 0-.75"></path></g><g><path stroke="currentColor" d="M19.75 14.7a.375.375 0 1 1 0-.75"></path><path stroke="currentColor" d="M19.75 14.7a.375.375 0 0 0 0-.75"></path></g></svg>