<svg xmlns="http://www.w3.org/2000/svg" viewBox="0 0 24 24" stroke-width="1.5"><defs></defs><path fill="none" stroke="currentColor" stroke-linecap="round" stroke-linejoin="round" d="M9 3.75a3 3 0 1 0 6 0 3 3 0 1 0-6 0"></path><path fill="none" stroke="currentColor" stroke-linecap="round" stroke-linejoin="round" d="M16 20.25a3 3 0 1 0 6 0 3 3 0 1 0-6 0"></path><path fill="none" stroke="currentColor" stroke-linecap="round" stroke-linejoin="round" d="M2 20.25a3 3 0 1 0 6 0 3 3 0 1 0-6 0"></path><path d="M12 6.75V8.5A3.5 3.5 0 0 1 8.5 12 3.5 3.5 0 0 0 5 15.5v1.75" fill="none" stroke="currentColor" stroke-linecap="round" stroke-linejoin="round"></path><path d="M12 6.75V8.5a3.5 3.5 0 0 0 3.5 3.5 3.5 3.5 0 0 1 3.5 3.5v1.75" fill="none" stroke="currentColor" stroke-linecap="round" stroke-linejoin="round"></path></svg>