<svg viewBox="0 0 24 24" xmlns="http://www.w3.org/2000/svg" stroke-width="1.5"><path d="M.75 21.75h22.5" fill="none" stroke="currentColor" stroke-linecap="round" stroke-linejoin="round"></path><path d="M6 11.25H3a.75.75 0 0 0-.75.75v9.75h4.5V12a.75.75 0 0 0-.75-.75Z" fill="none" stroke="currentColor" stroke-linecap="round" stroke-linejoin="round"></path><path d="M13.5 2.25h-3a.75.75 0 0 0-.75.75v18.75h4.5V3a.75.75 0 0 0-.75-.75Z" fill="none" stroke="currentColor" stroke-linecap="round" stroke-linejoin="round"></path><path d="M21 6.75h-3a.75.75 0 0 0-.75.75v14.25h4.5V7.5a.75.75 0 0 0-.75-.75Z" fill="none" stroke="currentColor" stroke-linecap="round" stroke-linejoin="round"></path></svg>