<svg xmlns="http://www.w3.org/2000/svg" viewBox="0 0 24 24" stroke-width="1.5"><defs></defs><title>module-three</title><path fill="none" stroke="currentColor" stroke-linecap="round" stroke-linejoin="round" d="M2.25 13.5H9s1.5 0 1.5 1.5v6.75s0 1.5-1.5 1.5H2.25s-1.5 0-1.5-1.5V15s0-1.5 1.5-1.5"></path><path fill="none" stroke="currentColor" stroke-linecap="round" stroke-linejoin="round" d="M15 13.5h6.75s1.5 0 1.5 1.5v6.75s0 1.5-1.5 1.5H15s-1.5 0-1.5-1.5V15s0-1.5 1.5-1.5"></path><path fill="none" stroke="currentColor" stroke-linecap="round" stroke-linejoin="round" d="M8.625.75h6.75s1.5 0 1.5 1.5V9s0 1.5-1.5 1.5h-6.75s-1.5 0-1.5-1.5V2.25s0-1.5 1.5-1.5"></path></svg>