<svg viewBox="0 0 24 24" xmlns="http://www.w3.org/2000/svg" stroke-width="1.5"><path d="M3.75 14.298a8.25 8.25 0 1 0 16.5 0 8.25 8.25 0 1 0-16.5 0Z" fill="none" stroke="currentColor" stroke-linecap="round" stroke-linejoin="round"></path><path d="M4.658 10.548h14.684" fill="none" stroke="currentColor" stroke-linecap="round" stroke-linejoin="round"></path><path d="M12 10.548v12" fill="none" stroke="currentColor" stroke-linecap="round" stroke-linejoin="round"></path><path d="M4.292 11.351a5.225 5.225 0 0 0-2.792-.8" fill="none" stroke="currentColor" stroke-linecap="round" stroke-linejoin="round"></path><path d="M1.5 21.048a5.239 5.239 0 0 0 3.926-1.765" fill="none" stroke="currentColor" stroke-linecap="round" stroke-linejoin="round"></path><path d="M1.5 15.048h2.285" fill="none" stroke="currentColor" stroke-linecap="round" stroke-linejoin="round"></path><path d="M19.708 11.351a5.225 5.225 0 0 1 2.792-.8" fill="none" stroke="currentColor" stroke-linecap="round" stroke-linejoin="round"></path><path d="M22.5 21.048a5.239 5.239 0 0 1-3.926-1.765" fill="none" stroke="currentColor" stroke-linecap="round" stroke-linejoin="round"></path><path d="M22.5 15.048h-2.285" fill="none" stroke="currentColor" stroke-linecap="round" stroke-linejoin="round"></path><path d="M5.96 1.5c0 2.937.228 4.027 2.687 5.258" fill="none" stroke="currentColor" stroke-linecap="round" stroke-linejoin="round"></path><path d="M17.96 1.5c0 2.937-.228 4.027-2.687 5.258" fill="none" stroke="currentColor" stroke-linecap="round" stroke-linejoin="round"></path></svg>