<svg viewBox="0 0 24 24" xmlns="http://www.w3.org/2000/svg" stroke-width="1.5"><path d="M21.75 11.25H2.25v10.5a1.5 1.5 0 0 0 1.5 1.5h16.5a1.5 1.5 0 0 0 1.5-1.5Z" fill="none" stroke="currentColor" stroke-linecap="round" stroke-linejoin="round"></path><path d="M21.75 6.75H2.25a1.5 1.5 0 0 0-1.5 1.5v2.25a.75.75 0 0 0 .75.75h21a.75.75 0 0 0 .75-.75V8.25a1.5 1.5 0 0 0-1.5-1.5Z" fill="none" stroke="currentColor" stroke-linecap="round" stroke-linejoin="round"></path><path d="M11.25 6.75c-3.314 0-6.75-2.686-6.75-6" fill="none" stroke="currentColor" stroke-linecap="round" stroke-linejoin="round"></path><path d="M4.5.75c3.314 0 6.75 2.686 6.75 6" fill="none" stroke="currentColor" stroke-linecap="round" stroke-linejoin="round"></path><path d="M12.75 6.75c3.314 0 6.75-2.686 6.75-6" fill="none" stroke="currentColor" stroke-linecap="round" stroke-linejoin="round"></path><path d="M19.5.75c-3.314 0-6.75 2.686-6.75 6" fill="none" stroke="currentColor" stroke-linecap="round" stroke-linejoin="round"></path><path d="M9.75 6.75h4.5v16.5h-4.5z" fill="none" stroke="currentColor" stroke-linecap="round" stroke-linejoin="round"></path></svg>