<svg xmlns="http://www.w3.org/2000/svg" viewBox="0 0 24 24" stroke-width="1.5"><defs></defs><title>ethernet-port</title><path fill="none" stroke="currentColor" stroke-linecap="round" stroke-linejoin="round" d="M3.75.75h16.5s3 0 3 3v16.5s0 3-3 3H3.75s-3 0-3-3V3.75s0-3 3-3"></path><path d="M18 6H6a1.5 1.5 0 0 0-1.5 1.5v6A1.5 1.5 0 0 0 6 15h3v1.5a1.5 1.5 0 0 0 1.5 1.5h3a1.5 1.5 0 0 0 1.5-1.5V15h3a1.5 1.5 0 0 0 1.5-1.5v-6A1.5 1.5 0 0 0 18 6Z" fill="none" stroke="currentColor" stroke-linecap="round" stroke-linejoin="round"></path><path fill="none" stroke="currentColor" stroke-linecap="round" stroke-linejoin="round" d="M12 6v3.75"></path><path fill="none" stroke="currentColor" stroke-linecap="round" stroke-linejoin="round" d="M8.25 6v3.75"></path><path fill="none" stroke="currentColor" stroke-linecap="round" stroke-linejoin="round" d="M15.75 6v3.75"></path></svg>