<svg xmlns="http://www.w3.org/2000/svg" fill="none" viewBox="0 0 24 24" stroke-width="1.5"><path stroke="currentColor" stroke-linecap="round" stroke-linejoin="round" d="M4.125 21.751v1.5"></path><path stroke="currentColor" stroke-linecap="round" stroke-linejoin="round" d="M19.875 21.751v1.5"></path><path stroke="currentColor" stroke-linecap="round" stroke-linejoin="round" d="M9.75 15.001v6.75"></path><path stroke="currentColor" stroke-linecap="round" stroke-linejoin="round" d="M17.25 15.001v-8.25"></path><path stroke="currentColor" stroke-linecap="round" stroke-linejoin="round" d="M15.129 4.629a3 3 0 0 1 4.242 0"></path><path stroke="currentColor" stroke-linecap="round" stroke-linejoin="round" d="M13.007 2.508a6 6 0 0 1 8.486 0"></path><path stroke="currentColor" stroke-linecap="round" stroke-linejoin="round" d="M19.875 21.751a3.375 3.375 0 0 0 0-6.75H4.125a3.375 3.375 0 0 0 0 6.75h15.75Z"></path><path stroke="currentColor" d="M18.75 18.75a.375.375 0 0 1 0-.75"></path><path stroke="currentColor" d="M18.75 18.75a.375.375 0 0 0 0-.75"></path><g><path stroke="currentColor" d="M14.25 18.75a.375.375 0 0 1 0-.75"></path><path stroke="currentColor" d="M14.25 18.75a.375.375 0 0 0 0-.75"></path></g></svg>