<svg xmlns="http://www.w3.org/2000/svg" fill="none" viewBox="0 0 24 24" stroke-width="1.5"><path stroke="currentColor" stroke-linecap="round" stroke-linejoin="round" d="M6.726.75h10.5"></path><path stroke="currentColor" stroke-linecap="round" stroke-linejoin="round" d="M15.726 8.25V.75h-7.5v7.5L1.489 18.615A3 3 0 0 0 4 23.25h15.948a3 3 0 0 0 2.515-4.635L15.726 8.25Z"></path><path stroke="currentColor" stroke-linecap="round" stroke-linejoin="round" d="M5.301 12.75h13.35"></path><path stroke="currentColor" stroke-linecap="round" stroke-linejoin="round" d="M14.226 17.25h3"></path><path stroke="currentColor" stroke-linecap="round" stroke-linejoin="round" d="M15.726 15.75v3"></path><path stroke="currentColor" stroke-linecap="round" stroke-linejoin="round" d="M15.726 3.75h-3"></path><path stroke="currentColor" stroke-linecap="round" stroke-linejoin="round" d="M15.726 6.75h-3"></path><path stroke="currentColor" d="M6.726 19.875a.375.375 0 0 1 0-.75"></path><path stroke="currentColor" d="M6.726 19.875a.375.375 0 0 0 0-.75"></path><g><path stroke="currentColor" d="M9.726 16.875a.375.375 0 0 1 0-.75"></path><path stroke="currentColor" d="M9.726 16.875a.375.375 0 0 0 0-.75"></path></g></svg>