<svg xmlns="http://www.w3.org/2000/svg" fill="none" viewBox="0 0 24 24" stroke-width="1.5"><path stroke="currentColor" stroke-linecap="round" stroke-linejoin="round" d="m6.21 7.185 10.606 10.607-3.36 3.359a2 2 0 0 1-2.827 0L2.85 13.373a2 2 0 0 1 0-2.829l3.36-3.359v0Z"></path><path stroke="currentColor" stroke-linecap="round" stroke-linejoin="round" d="M16.816 17.791 6.209 7.184l4.072-2.768a6.8 6.8 0 0 1 8.656.647 6.8 6.8 0 0 1 .647 8.656l-2.768 4.072Z"></path><path stroke="currentColor" stroke-linecap="round" stroke-linejoin="round" d="M15.225 11.025a2.25 2.25 0 1 0 0-4.5 2.25 2.25 0 0 0 0 4.5Z"></path><path stroke="currentColor" stroke-linecap="round" stroke-linejoin="round" d="m6.209 7.184-2.444-.277a3.51 3.51 0 0 0-2.543 1.022l-.216.216a.905.905 0 0 0 .019 1.28l1.517 1.517"></path><path stroke="currentColor" stroke-linecap="round" stroke-linejoin="round" d="m16.816 17.791.277 2.444a3.514 3.514 0 0 1-1.022 2.543l-.216.216a.907.907 0 0 1-1.28-.019l-1.517-1.517"></path><path stroke="currentColor" stroke-linecap="round" stroke-linejoin="round" d="M2.25 21.75h3"></path><path stroke="currentColor" stroke-linecap="round" stroke-linejoin="round" d="M3.75 20.25v3"></path><path stroke="currentColor" stroke-linecap="round" stroke-linejoin="round" d="M1.5 2.25h3"></path><path stroke="currentColor" stroke-linecap="round" stroke-linejoin="round" d="M3 .75v3"></path><path stroke="currentColor" stroke-linecap="round" stroke-linejoin="round" d="M20.25 17.25h3"></path><path stroke="currentColor" stroke-linecap="round" stroke-linejoin="round" d="M21.75 15.75v3"></path><path stroke="currentColor" d="M1.125 17.25a.375.375 0 0 1 0-.75"></path><path stroke="currentColor" d="M1.125 17.25a.375.375 0 0 0 0-.75"></path><path stroke="currentColor" d="M9.375 1.5a.375.375 0 0 1 0-.75"></path><path stroke="currentColor" d="M9.375 1.5a.375.375 0 1 0 0-.75"></path><g><path stroke="currentColor" d="M20.625 22.5a.375.375 0 0 1 0-.75"></path><path stroke="currentColor" d="M20.625 22.5a.375.375 0 0 0 0-.75"></path></g></svg>