<svg xmlns="http://www.w3.org/2000/svg" fill="none" viewBox="0 0 24 24" stroke-width="1.5"><path stroke="currentColor" stroke-linecap="round" stroke-linejoin="round" d="M16.625 13.724c-4.988 1.68-6.632 3.552-7.848 8.213-1.216-4.66-2.86-6.532-7.848-8.213 4.988-1.68 6.632-3.552 7.848-8.214 1.216 4.662 2.86 6.533 7.848 8.214Z"></path><path stroke="currentColor" stroke-linecap="round" stroke-linejoin="round" d="M22.813 5.948c-2.814.944-3.741 1.996-4.427 4.615-.686-2.619-1.614-3.67-4.427-4.615 2.813-.944 3.74-1.996 4.427-4.615.686 2.62 1.613 3.67 4.427 4.615Z"></path><path stroke="currentColor" stroke-linecap="round" stroke-linejoin="round" d="M23.178 19.562c-2.082.684-2.769 1.446-3.276 3.344-.508-1.898-1.195-2.66-3.277-3.344 2.082-.684 2.769-1.446 3.277-3.344.507 1.898 1.194 2.66 3.276 3.344Z"></path></svg>