<svg xmlns="http://www.w3.org/2000/svg" fill="none" viewBox="0 0 24 24" stroke-width="1.5"><path stroke="currentColor" stroke-linecap="round" stroke-linejoin="round" d="M.75 9.75V6a5.25 5.25 0 1 1 10.5 0v3.75"></path><path stroke="currentColor" stroke-linecap="round" stroke-linejoin="round" d="M21.75 9.75H8.25a1.5 1.5 0 0 0-1.5 1.5v10.5a1.5 1.5 0 0 0 1.5 1.5h13.5a1.5 1.5 0 0 0 1.5-1.5v-10.5a1.5 1.5 0 0 0-1.5-1.5Z"></path><path stroke="currentColor" d="M15 16.5a.375.375 0 0 1 0-.75"></path><path stroke="currentColor" d="M15 16.5a.375.375 0 0 0 0-.75"></path></svg>