<svg xmlns="http://www.w3.org/2000/svg" viewBox="0 0 24 24" stroke-width="1.5"><defs></defs><title>color-rolling-brush</title><path fill="none" stroke="currentColor" stroke-linecap="round" stroke-linejoin="round" d="M5.625.75h13.5s1.5 0 1.5 1.5v4.5s0 1.5-1.5 1.5h-13.5s-1.5 0-1.5-1.5v-4.5s0-1.5 1.5-1.5"></path><path d="M4.125 4.5h-1.5a1.5 1.5 0 0 0-1.5 1.5v3.75a1.5 1.5 0 0 0 1.5 1.5h8.25a1.5 1.5 0 0 1 1.5 1.5v1.5" fill="none" stroke="currentColor" stroke-linecap="round" stroke-linejoin="round"></path><path d="M13.125 23.25h-1.5a1.5 1.5 0 0 1-1.5-1.5V16.5a2.25 2.25 0 0 1 2.25-2.25h0a2.25 2.25 0 0 1 2.25 2.25v5.25a1.5 1.5 0 0 1-1.5 1.5Z" fill="none" stroke="currentColor" stroke-linecap="round" stroke-linejoin="round"></path><path fill="none" stroke="currentColor" stroke-linecap="round" stroke-linejoin="round" d="M20.625 4.5h2.25"></path></svg>