<svg viewBox="0 0 24 24" xmlns="http://www.w3.org/2000/svg" stroke-width="1.5"><path d="M.75 18a4.5 4.5 0 1 0 9 0 4.5 4.5 0 1 0-9 0Z" fill="none" stroke="currentColor" stroke-linecap="round" stroke-linejoin="round"></path><path d="M9.75 18V4.125a2.625 2.625 0 0 0-5.156-.7L.911 16.805" fill="none" stroke="currentColor" stroke-linecap="round" stroke-linejoin="round"></path><path d="M14.25 18a4.5 4.5 0 1 0 9 0 4.5 4.5 0 1 0-9 0Z" fill="none" stroke="currentColor" stroke-linecap="round" stroke-linejoin="round"></path><path d="M14.25 18V4.125a2.625 2.625 0 0 1 5.156-.7l3.683 13.377" fill="none" stroke="currentColor" stroke-linecap="round" stroke-linejoin="round"></path><path d="M9.75 9h4.5v3h-4.5z" fill="none" stroke="currentColor" stroke-linecap="round" stroke-linejoin="round"></path></svg>