<svg xmlns="http://www.w3.org/2000/svg" fill="none" viewBox="0 0 24 24" stroke-width="1.5"><path stroke="currentColor" stroke-linecap="round" stroke-linejoin="round" d="M12 2V1"></path><path stroke="currentColor" stroke-linecap="round" stroke-linejoin="round" d="M12 23v-2.766"></path><path stroke="currentColor" stroke-linecap="round" stroke-linejoin="round" d="M1 12h2.719"></path><path stroke="currentColor" stroke-linecap="round" stroke-linejoin="round" d="M20.281 12H23"></path><path stroke="currentColor" stroke-linecap="round" stroke-linejoin="round" d="m6.063 19.226-2.017 2.016"></path><path stroke="currentColor" stroke-linecap="round" stroke-linejoin="round" d="m17.938 5.04 2.016-2.017"></path><path stroke="currentColor" stroke-linecap="round" stroke-linejoin="round" d="M6.063 5.04 4.046 3.023"></path><path stroke="currentColor" stroke-linecap="round" stroke-linejoin="round" d="m17.938 18.96 2.016 2.017"></path><path stroke="currentColor" stroke-linecap="round" stroke-linejoin="round" d="m12.417 4.696 1.915 3.83 3.684.368a.466.466 0 0 1 .284.794l-3.036 3.034 1.126 4.124a.467.467 0 0 1-.659.54L12 15.522l-3.731 1.867a.467.467 0 0 1-.658-.54l1.125-4.125L5.7 9.686a.466.466 0 0 1 .284-.794l3.684-.368 1.915-3.83a.466.466 0 0 1 .834.002Z"></path></svg>