<svg viewBox="0 0 24 24" xmlns="http://www.w3.org/2000/svg" stroke-width="1.5"><path d="M7.5 4.5h2.25" fill="none" stroke="currentColor" stroke-linecap="round" stroke-linejoin="round"></path><path d="M8.25 8.25h6" fill="none" stroke="currentColor" stroke-linecap="round" stroke-linejoin="round"></path><path d="M8.25 12h6" fill="none" stroke="currentColor" stroke-linecap="round" stroke-linejoin="round"></path><path d="M8.25 15.75h6" fill="none" stroke="currentColor" stroke-linecap="round" stroke-linejoin="round"></path><path d="M8.25 19.5h3" fill="none" stroke="currentColor" stroke-linecap="round" stroke-linejoin="round"></path><path d="M19.5.75H21a1.5 1.5 0 0 1 1.5 1.5V6.5a1 1 0 0 1-1 1H18h0V2.25a1.5 1.5 0 0 1 1.5-1.5Z" fill="none" stroke="currentColor" stroke-linecap="round" stroke-linejoin="round"></path><path d="M20.25.75H7.5a3 3 0 0 0-3 3v15c0 3-1.5 3.876-3 4.5h12a4.5 4.5 0 0 0 4.5-4.5V7.5" fill="none" stroke="currentColor" stroke-linecap="round" stroke-linejoin="round"></path></svg>