<svg xmlns="http://www.w3.org/2000/svg" viewBox="0 0 24 24" stroke-width="1.5"><defs></defs><title>layout-module-1</title><path fill="none" stroke="currentColor" stroke-linecap="round" stroke-linejoin="round" d="M2.25.747h6s1.5 0 1.5 1.5v6s0 1.5-1.5 1.5h-6s-1.5 0-1.5-1.5v-6s0-1.5 1.5-1.5"></path><path fill="none" stroke="currentColor" stroke-linecap="round" stroke-linejoin="round" d="M2.25 14.247h6s1.5 0 1.5 1.5v6s0 1.5-1.5 1.5h-6s-1.5 0-1.5-1.5v-6s0-1.5 1.5-1.5"></path><path fill="none" stroke="currentColor" stroke-linecap="round" stroke-linejoin="round" d="M15.75.747h6s1.5 0 1.5 1.5v6s0 1.5-1.5 1.5h-6s-1.5 0-1.5-1.5v-6s0-1.5 1.5-1.5"></path><path fill="none" stroke="currentColor" stroke-linecap="round" stroke-linejoin="round" d="M15.75 14.247h6s1.5 0 1.5 1.5v6s0 1.5-1.5 1.5h-6s-1.5 0-1.5-1.5v-6s0-1.5 1.5-1.5"></path></svg>