<svg viewBox="0 0 24 24" xmlns="http://www.w3.org/2000/svg" stroke-width="1.5"><path d="m1.817 4.524 9.1-3.568a2.936 2.936 0 0 1 2.162 0l9.1 3.568a1.763 1.763 0 0 1 1.071 1.662v11.628a1.763 1.763 0 0 1-1.067 1.662l-9.1 3.569a2.956 2.956 0 0 1-2.162 0l-9.1-3.569A1.763 1.763 0 0 1 .75 17.814V6.186a1.763 1.763 0 0 1 1.067-1.662Z" fill="none" stroke="currentColor" stroke-linecap="round" stroke-linejoin="round"></path><path d="M12 9.353 1.104 5.081" fill="none" stroke="currentColor" stroke-linecap="round" stroke-linejoin="round"></path><path d="m12 9.353 10.896-4.272" fill="none" stroke="currentColor" stroke-linecap="round" stroke-linejoin="round"></path><path d="M12 23.25V9.353" fill="none" stroke="currentColor" stroke-linecap="round" stroke-linejoin="round"></path></svg>