<svg xmlns="http://www.w3.org/2000/svg" fill="none" viewBox="0 0 24 24" stroke-width="1.5"><path stroke="currentColor" stroke-linecap="round" stroke-linejoin="round" d="M12.001 6h1.5"></path><path stroke="currentColor" stroke-linecap="round" stroke-linejoin="round" d="M16.501 6h1.5"></path><path stroke="currentColor" stroke-linecap="round" stroke-linejoin="round" d="M12.001 12h1.5"></path><path stroke="currentColor" stroke-linecap="round" stroke-linejoin="round" d="M16.501 12h1.5"></path><path stroke="currentColor" stroke-linecap="round" stroke-linejoin="round" d="M12.001 15v6"></path><path stroke="currentColor" stroke-linecap="round" stroke-linejoin="round" d="M4.501 21h15"></path><path stroke="currentColor" stroke-linecap="round" stroke-linejoin="round" d="M21 6a3 3 0 0 1-3 3H6a3 3 0 1 1 0-6h12a3 3 0 0 1 3 3Z"></path><path stroke="currentColor" stroke-linecap="round" stroke-linejoin="round" d="M21 12a3 3 0 0 1-3 3H6a3 3 0 1 1 0-6h12a3 3 0 0 1 3 3Z"></path><path stroke="currentColor" d="M6.751 6.375a.375.375 0 1 1 0-.75"></path><path stroke="currentColor" d="M6.751 6.375a.375.375 0 0 0 0-.75"></path><path stroke="currentColor" d="M6.751 12.375a.375.375 0 1 1 0-.75"></path><path stroke="currentColor" d="M6.751 12.375a.375.375 0 1 0 0-.75"></path><g><path stroke="currentColor" d="M1.126 21a.375.375 0 1 1 0-.75"></path><path stroke="currentColor" d="M1.126 21a.375.375 0 1 0 0-.75"></path></g><g><path stroke="currentColor" d="M22.876 21a.375.375 0 1 1 0-.75"></path><path stroke="currentColor" d="M22.876 21a.375.375 0 1 0 0-.75"></path></g></svg>